<?xml version="1.0" standalone="no"?>
<!DOCTYPE svg PUBLIC "-//W3C//DTD SVG 1.1//EN" "http://www.w3.org/Graphics/SVG/1.1/DTD/svg11.dtd" >
<svg>
<metadata>
Created by FontForge 20090622 at Sun Jul 23 10:03:30 2017
 By deploy user
Copyright (c) ParaType, Inc., 2009. All rights reserved. ITC Officina is a registered trade mark of International Typeface Corporation. Greek design by Panos Haratzopoulos, Cannibal.
</metadata>
<defs>
<font id="OfficinaSansBookITC-Reg" horiz-adv-x="500" >
  <font-face 
    font-family="OfficinaSansBookITC"
    font-weight="400"
    font-stretch="normal"
    units-per-em="1000"
    panose-1="2 11 5 6 4 5 3 2 2 4"
    ascent="800"
    descent="-200"
    x-height="480"
    cap-height="685"
    bbox="-358 -250 1047 997"
    underline-thickness="50"
    underline-position="-50"
    unicode-range="U+0020-U+FB02"
  />
<missing-glyph horiz-adv-x="233" 
 />
    <glyph glyph-name="afii10017.sc.var.accented" unicode="&#xf350;`" horiz-adv-x="472" 
d="M456 17q2 -8 2 -10q0 -7 -12 -7h-58q-12 0 -16 11l-46 147h-174l-47 -147q-3 -11 -16 -11h-53q-14 0 -14 7q0 3 2 9l175 515q4 11 15 11h52q12 0 16 -11zM306 224l-50 165q-5 14 -17 64q-11 -46 -17 -64l-50 -165h134zM387 674q0 -3 -9 -8l-164 -85q-7 -4 -10 -4t-9 8
l-10 15q-4 7 -4 10q0 4 8 9l145 111q6 5 10 5t10 -8l29 -42q4 -7 4 -11z" />
    <glyph glyph-name="afii10022.sc.var.accented" unicode="&#xf355;`" horiz-adv-x="415" 
d="M375 13q0 -8 -3 -10.5t-12 -2.5h-265q-9 0 -12 2t-3 11v515q0 14 15 14h266q15 0 15 -7q0 -2 -2 -8l-13 -42q-3 -11 -16 -11h-188v-160h166q15 0 15 -15v-36q0 -14 -15 -14h-166v-181h203q9 0 12 -2.5t3 -11.5v-41zM358 674q0 -3 -9 -8l-164 -85q-7 -4 -10 -4t-9 8
l-10 15q-4 7 -4 10q0 4 8 9l145 111q6 5 10 5t10 -8l29 -42q4 -7 4 -11z" />
    <glyph glyph-name="afii10026.sc.var.accented" unicode="&#xf358;`" horiz-adv-x="528" 
d="M363 542h75q10 0 10 -11v-522q0 -9 -9 -9h-58q-10 0 -10 9v377q0 16 8 74h-1q-9 -32 -22 -59l-188 -393q-4 -8 -13 -8h-65q-10 0 -10 10v523q0 9 9 9h58q10 0 10 -9v-359q0 -28 -8 -75h1q10 35 22 59l177 374q4 10 14 10zM415 674q0 -3 -9 -8l-164 -85q-7 -4 -10 -4t-9 8
l-10 15q-4 7 -4 10q0 4 8 9l145 111q6 5 10 5t10 -8l29 -42q4 -7 4 -11z" />
    <glyph glyph-name="afii10032.sc.var.accented" unicode="&#xf35e;`" horiz-adv-x="489" 
d="M443 271q0 -137 -52 -209.5t-151 -72.5q-96 0 -145 71t-49 209q0 139 51.5 211.5t151.5 72.5q194 0 194 -282zM360 269q0 219 -113 219q-58 0 -88 -50.5t-30 -164.5q0 -219 116 -219q58 0 86.5 50t28.5 165zM395 674q0 -3 -9 -8l-164 -85q-7 -4 -10 -4t-9 8l-10 15
q-4 7 -4 10q0 4 8 9l145 111q6 5 10 5t10 -8l29 -42q4 -7 4 -11z" />
    <glyph glyph-name="afii10037.sc.var.accented" unicode="&#xf363;`" horiz-adv-x="413" 
d="M393 528l-122 -411q-20 -68 -51.5 -98t-80.5 -30q-52 0 -86 24l-7 5q-8 8 -8 14q0 5 1 7l18 39q3 5 7 5q6 0 29.5 -14.5t43.5 -14.5q48 0 69 75l6 23h-31q-13 0 -16 8q0 2 -1 4l-143 357q-1 2 -1 6q0 7 6 9l51 17q2 1 5 1q6 0 10 -9l99 -252l35 -97q5 29 20 81l75 268
q2 8 9 8l55 -13q9 -3 9 -8v-2q-1 -1 -1 -2zM357 674q0 -3 -9 -8l-164 -85q-7 -4 -10 -4t-9 8l-10 15q-4 7 -4 10q0 4 8 9l145 111q6 5 10 5t10 -8l29 -42q4 -7 4 -11z" />
    <glyph glyph-name="afii10045.sc.var.accented" unicode="&#xf36b;`" horiz-adv-x="650" 
d="M93 542h50q14 0 14 -11v-211h54q210 0 210 -163q0 -157 -184 -157h-145q-12 0 -12 12v516q0 14 13 14zM157 64h59q127 0 127 90q0 102 -132 102h-54v-192zM570 527v-514q0 -13 -11 -13h-55q-11 0 -11 11v516q0 15 12 15h52q13 0 13 -15zM476 674q0 -3 -9 -8l-164 -85
q-7 -4 -10 -4t-9 8l-10 15q-4 7 -4 10q0 4 8 9l145 111q6 5 10 5t10 -8l29 -42q4 -7 4 -11z" />
    <glyph glyph-name="afii10047.sc.var.accented" unicode="&#xf36d;`" horiz-adv-x="411" 
d="M34 62l23 29q5 6 9 6t8 -3q2 -2 10.5 -7.5t11 -7t9.5 -6t10 -6l9 -4.5t10.5 -4t10.5 -2.5t11.5 -2t12.5 -0.5q32 0 55.5 17.5t35.5 47t17 60.5t5 65v6h-155q-10 0 -10 10v44q0 10 10 10h155v3q0 31 -5.5 59t-17 54.5t-35 42t-55.5 15.5q-39 0 -81 -29l-10 -7q-4 -3 -9 -3
q-6 0 -9 5l-20 26q-4 5 -4 11t8 14q45 48 134 48q187 0 187 -275q0 -31 -1.5 -56t-7.5 -61.5t-19 -64t-33 -53.5t-54.5 -40t-78.5 -14q-45 0 -88 19q-53 25 -53 44q0 5 4 10zM356 674q0 -3 -9 -8l-164 -85q-7 -4 -10 -4t-9 8l-10 15q-4 7 -4 10q0 4 8 9l145 111q6 5 10 5
t10 -8l29 -42q4 -7 4 -11z" />
    <glyph glyph-name="afii10048.sc.var.accented" unicode="&#xf36e;`" horiz-adv-x="684" 
d="M157 313h87q5 132 66 193q47 47 129 47q83 0 130 -47q69 -68 69 -235t-69 -235q-47 -47 -130 -47q-82 0 -129 47q-36 36 -51.5 96t-15.5 117h-86v-238q0 -11 -12 -11h-55q-10 0 -10 12v521q0 9 9 9h57q11 0 11 -10v-219zM555 271q0 217 -113 217q-28 0 -50 -13t-34 -36.5
t-20 -45t-10.5 -52t-3 -42t-0.5 -28.5t0.5 -28.5t3 -42t10.5 -52t20 -45t34 -36.5t50 -13q113 0 113 217zM493 674q0 -3 -9 -8l-164 -85q-7 -4 -10 -4t-9 8l-10 15q-4 7 -4 10q0 4 8 9l145 111q6 5 10 5t10 -8l29 -42q4 -7 4 -11z" />
    <glyph glyph-name="afii10049.sc.var.accented" unicode="&#xf36f;`" horiz-adv-x="488" 
d="M331 240h-53h-10h-10.5t-9.5 -1t-10 -2.5t-8.5 -4t-9.5 -6.5t-8 -10t-8.5 -14t-7.5 -18.5t-7 -23.5l-20 -75q-25 -96 -128 -96q-12 0 -15 9l-11 40l-1 2v4q0 10 10 11l11 2q48 8 64 65l15 54q18 67 61 90q-48 12 -77 45t-29 83q0 45 19.5 76.5t51.5 46t61 20t60 5.5h136
q11 0 11 -12v-518q0 -8 -3 -10t-10 -2h-51q-9 0 -11 3t-2 11v226zM331 304v174h-65q-113 0 -113 -86q0 -25 8.5 -42.5t20 -26t30.5 -13t31.5 -5.5t32.5 -1h55zM395 674q0 -3 -9 -8l-164 -85q-7 -4 -10 -4t-9 8l-10 15q-4 7 -4 10q0 4 8 9l145 111q6 5 10 5t10 -8l29 -42
q4 -7 4 -11z" />
    <glyph glyph-name="afii10023.sc.var.accented" unicode="&#xf371;`" horiz-adv-x="415" 
d="M375 13q0 -8 -3 -10.5t-12 -2.5h-265q-9 0 -12 2t-3 11v515q0 14 15 14h266q15 0 15 -7q0 -2 -2 -8l-13 -42q-3 -11 -16 -11h-188v-160h166q15 0 15 -15v-36q0 -14 -15 -14h-166v-181h203q9 0 12 -2.5t3 -11.5v-41zM371 646q0 -20 -14 -34.5t-34 -14.5t-34.5 14.5
t-14.5 34.5t14.5 34t35.5 14q19 0 33 -14.5t14 -33.5zM192 646q0 -20 -14.5 -34.5t-34.5 -14.5t-34 14.5t-14 34.5t14.5 34t33.5 14q20 0 34.5 -14t14.5 -34zM374 772q0 -2 -8 -7l-148 -77q-6 -3 -9 -3t-8 7l-9 14q-4 5 -4 9q0 2 7 8l131 100q7 4 9 4q4 0 9 -7l26 -38
q4 -5 4 -10z" />
    <glyph glyph-name="fi.sc" unicode="&#xf766;&#xf769;" horiz-adv-x="688" 
d="M668 13q0 -8 -2.5 -10.5t-11.5 -2.5h-223q-9 0 -12 2.5t-3 10.5v36q0 9 3 11.5t12 2.5h73v415h-73q-9 0 -12 3t-3 12v35q0 9 3 11.5t12 2.5h223q9 0 11.5 -3t2.5 -11v-35q0 -9 -2.5 -12t-11.5 -3h-73v-415h73q9 0 11.5 -2.5t2.5 -11.5v-36zM373 525l-12 -40
q-3 -11 -16 -11h-188v-166h166q15 0 15 -13v-37q0 -14 -15 -14h-166v-231q0 -8 -3 -10.5t-11 -2.5h-48q-15 0 -15 13v515q0 14 15 14h267q12 0 12 -9q0 -5 -1 -8z" />
    <glyph glyph-name="fl.sc" unicode="&#xf766;&#xf76c;" horiz-adv-x="764" 
d="M759 52l-13 -42q-2 -10 -16 -10h-261q-15 0 -15 13v515q0 14 15 14h48q8 0 11 -3t3 -11v-460h217q13 0 13 -7q0 -1 -2 -9zM377 525l-12 -40q-3 -11 -16 -11h-188v-166h166q15 0 15 -13v-37q0 -14 -15 -14h-166v-231q0 -8 -3 -10.5t-11 -2.5h-48q-15 0 -15 13v515
q0 14 15 14h267q12 0 12 -9q0 -5 -1 -8z" />
    <glyph glyph-name="afii10017.var.accented" unicode="&#x410;`" horiz-adv-x="554" 
d="M171 204l-51 -192q-3 -9 -8 -11q-3 -1 -10 -1h-65q-5 0 -6.5 0.5t-3.5 3t1 8.5l203 662q4 11 15 11h59q11 0 15 -11l204 -662q3 -8 -2 -11q-2 -1 -10 -1h-66q-11 0 -14 11l-56 193h-205zM357 274l-60 221q-14 50 -23 95h-2q-7 -49 -21 -95l-61 -221h167zM170 776l164 102
q6 3 8 3q4 0 7 -4l29 -50q3 -5 3 -9q0 -6 -11 -10l-172 -69q-1 0 -5 -1.5t-6 -1.5q-4 0 -7 4l-13 24q-2 3 -2 6q0 4 5 6z" />
    <glyph glyph-name="afii10022.var.accented" unicode="&#x415;`" horiz-adv-x="483" 
d="M429 58v-46q0 -12 -12 -12h-310q-12 0 -12 12v661q0 12 12 12h314q14 0 10 -10l-17 -51q-2 -9 -13 -9h-224v-222h197q12 0 12 -12v-46q0 -12 -12 -12h-197v-253h240q12 0 12 -12zM134 776l164 102q6 3 8 3q4 0 7 -4l29 -50q3 -5 3 -9q0 -6 -11 -10l-172 -69q-1 0 -5 -1.5
t-6 -1.5q-4 0 -7 4l-13 24q-2 3 -2 6q0 4 5 6z" />
    <glyph glyph-name="afii10026.var.accented" unicode="&#x418;`" horiz-adv-x="626" 
d="M445 685h74q12 0 12 -12v-661q0 -12 -12 -12h-58q-12 0 -12 12v488q0 33 10 89h-2q-11 -44 -27 -75l-245 -504q-6 -10 -16 -10h-62q-12 0 -12 12v661q0 12 12 12h58q12 0 12 -12v-465q0 -33 -10 -89h2q11 44 27 75l234 482q4 9 15 9zM206 776l164 102q6 3 8 3q4 0 7 -4
l29 -50q3 -5 3 -9q0 -6 -11 -10l-172 -69q-1 0 -5 -1.5t-6 -1.5q-4 0 -7 4l-13 24q-2 3 -2 6q0 4 5 6z" />
    <glyph glyph-name="afii10032.var.accented" unicode="&#x41e;`" horiz-adv-x="556" 
d="M278 -14q-32 0 -60 7.5t-59.5 30.5t-54 60.5t-37.5 104t-15 154.5q0 30 1.5 55t7.5 71.5t21 82.5t38.5 71.5t64 55.5t93.5 20q31 0 59 -7t59.5 -30.5t54.5 -60.5t38 -103.5t15 -154.5t-15 -154.5t-38 -104t-55 -61t-59.5 -30.5t-58.5 -7zM278 53q28 0 50.5 11t36.5 26.5
t24 42.5t14.5 48t7.5 54.5t3 50v46.5v11q0 49 -2 83t-9.5 76t-21.5 68t-40 44t-63 18q-28 0 -50.5 -11.5t-36.5 -27t-24 -43t-14.5 -49t-7 -54.5t-3 -50t-0.5 -47v-7q0 -133 18 -190q30 -100 118 -100zM171 776l164 102q6 3 8 3q4 0 7 -4l29 -50q3 -5 3 -9q0 -6 -11 -10
l-172 -69q-1 0 -5 -1.5t-6 -1.5q-4 0 -7 4l-13 24q-2 3 -2 6q0 4 5 6z" />
    <glyph glyph-name="afii10037.var.accented" unicode="&#x423;`" horiz-adv-x="494" 
d="M471 663l-163 -543q-21 -70 -56.5 -102t-98.5 -32q-50 0 -97 29q-26 16 -19 30l21 43q4 7 10 7q5 0 18 -11q36 -31 69 -31q21 0 37 9t26.5 27.5t15 31.5t11.5 36l10 36h-31q-12 0 -17 14l-177 452q-7 15 9 20l20 6l23 7q1 0 3.5 1t3.5 1t3.5 -1t4.5 -3.5t4 -7.5l128 -323
l41 -118h3q8 44 30 122l91 316q4 14 8 16t10 -1l50 -10q3 0 7.5 -2.5t4.5 -7.5q0 -4 -3 -11zM140 776l164 102q6 3 8 3q4 0 7 -4l29 -50q3 -5 3 -9q0 -6 -11 -10l-172 -69q-1 0 -5 -1.5t-6 -1.5q-4 0 -7 4l-13 24q-2 3 -2 6q0 4 5 6z" />
    <glyph glyph-name="afii10045.var.accented" unicode="&#x42b;`" horiz-adv-x="771" 
d="M178 396h98q88 0 145 -40q74 -55 74 -160q0 -83 -46 -135q-54 -61 -174 -61h-167q-12 0 -12 12v661q0 12 12 12h58q12 0 12 -12v-277zM178 70h97q61 0 95.5 33.5t34.5 93.5q0 36 -12.5 62t-28 38.5t-37.5 19.5t-33.5 8t-23.5 1h-92v-256zM676 673v-661q0 -12 -12 -12h-58
q-12 0 -12 12v661q0 12 12 12h58q12 0 12 -12zM278 776l164 102q6 3 8 3q4 0 7 -4l29 -50q3 -5 3 -9q0 -6 -11 -10l-172 -69q-1 0 -5 -1.5t-6 -1.5q-4 0 -7 4l-13 24q-2 3 -2 6q0 4 5 6z" />
    <glyph glyph-name="afii10047.var.accented" unicode="&#x42d;`" horiz-adv-x="473" 
d="M36 74l25 32q3 5 7 6h2q1 0 2 -1t5 -4.5t10 -7.5q60 -46 103 -46q30 0 61 19.5t50 62.5q30 68 30 177v11h-197q-12 0 -12 12v46q0 12 12 12h197v15q0 100 -27 157q-33 67 -107 67q-47 0 -92 -37l-10.5 -8.5t-8 -7.5t-5 -4.5t-4.5 -1.5h-1q-2 0 -7 5l-27 35q-3 3 -3 7
t5 12q16 21 61.5 44t99.5 23q53 0 97.5 -26t70.5 -69q49 -80 49 -255q0 -189 -62 -278q-60 -85 -166 -85q-86 0 -149 58q-13 10 -13 19q0 7 4 11zM129 776l164 102q6 3 8 3q4 0 7 -4l29 -50q3 -5 3 -9q0 -6 -11 -10l-172 -69q-1 0 -5 -1.5t-6 -1.5q-4 0 -7 4l-13 24
q-2 3 -2 6q0 4 5 6z" />
    <glyph glyph-name="afii10048.var.accented" unicode="&#x42e;`" horiz-adv-x="800" 
d="M177 391h119q19 308 226 308q31 0 59 -7t59.5 -30.5t54.5 -60.5t38 -103.5t15 -154.5t-15 -154.5t-38 -104t-55 -60.5t-59.5 -30.5t-58.5 -7.5q-99 0 -163.5 85t-62.5 250h-119v-309q0 -12 -12 -12h-58q-12 0 -12 12v661q0 12 12 12h58q12 0 12 -12v-282zM522 53
q28 0 50.5 11t36.5 26.5t24 42.5t14.5 48t7.5 54.5t3 50v46.5v11q0 49 -2 83t-9.5 76t-21.5 68t-40 44t-63 18q-28 0 -50.5 -11.5t-36.5 -27t-24 -43t-14.5 -49t-7 -54.5t-3 -50t-0.5 -47v-7q0 -133 18 -190q30 -100 118 -100zM293 776l164 102q6 3 8 3q4 0 7 -4l29 -50
q3 -5 3 -9q0 -6 -11 -10l-172 -69q-1 0 -5 -1.5t-6 -1.5q-4 0 -7 4l-13 24q-2 3 -2 6q0 4 5 6z" />
    <glyph glyph-name="afii10049.var.accented" unicode="&#x42f;`" horiz-adv-x="572" 
d="M395 312h-65q-38 0 -58 -23q-13 -14 -26 -63l-28 -98q-23 -79 -36 -96q-26 -34 -84 -42l-13 -2q-3 0 -9 -1t-7.5 -1.5t-5 0t-5 1.5t-3 3.5t-2.5 6.5l-15 48q-5 13 14 16l19 3q25 4 38 18q12 13 20 44l34 118q18 61 69 92q-56 12 -90.5 53t-34.5 108q0 87 54 137.5
t137 50.5h167q12 0 12 -12v-661q0 -12 -12 -12h-58q-12 0 -12 12v300zM395 377v238h-89q-54 0 -85.5 -31.5t-31.5 -84.5q0 -57 31 -89.5t93 -32.5h82zM179 776l164 102q6 3 8 3q4 0 7 -4l29 -50q3 -5 3 -9q0 -6 -11 -10l-172 -69q-1 0 -5 -1.5t-6 -1.5q-4 0 -7 4l-13 24
q-2 3 -2 6q0 4 5 6z" />
    <glyph glyph-name="afii10023.var.accented" unicode="&#x401;`" horiz-adv-x="483" 
d="M429 58v-46q0 -12 -12 -12h-310q-12 0 -12 12v661q0 12 12 12h314q10 0 10 -6q0 -4 -1 -7l-16 -48q-2 -9 -13 -9h-224v-222h197q12 0 12 -12v-46q0 -12 -12 -12h-197v-253h240q12 0 12 -12zM115 805q0 24 14 39.5t36 15.5t36 -15.5t14 -39.5t-14 -39.5t-36 -15.5
t-36 15.5t-14 39.5zM327 805q0 24 14 39.5t36 15.5t36 -15.5t14 -39.5t-14 -39.5t-36 -15.5t-36 15.5t-14 39.5zM208 902l148 92q6 3 7 3q5 0 6 -4l27 -45q2 -4 2 -8q0 -6 -10 -9l-155 -62l-9 -3q-4 0 -7 4l-11 21q-2 3 -2 6t4 5z" />
    <glyph glyph-name="afii10065.var.accented" unicode="&#x430;`" horiz-adv-x="463" 
d="M308 301v36q0 19 -2.5 32.5t-10.5 28t-26 22t-45 7.5q-57 0 -111 -26q-12 -6 -15 -6q-6 0 -8 5l-15 40q-5 14 21 25q71 29 137 29q151 0 151 -137v-227q0 -43 12 -72q4 -10 14 -28q4 -5 4 -8t-6 -7l-42 -26q-13 -7 -26 16q-10 16 -19 45l-1 3l-4 -4q-63 -63 -135 -63
q-68 0 -101.5 41t-33.5 100q0 127 141 160q58 14 105 14h16zM308 110v129h-15q-24 0 -47.5 -3.5t-54.5 -13t-50 -33.5t-19 -59q0 -41 22 -61.5t50 -20.5q52 0 108 56zM346 700l29 -43q4 -8 4 -9q0 -4 -9 -10l-166 -86q-4 -2 -7 -2t-7 4l-13 19q-4 5 -4 8q0 5 4 7l149 115
q8 5 10 5q5 0 10 -8z" />
    <glyph glyph-name="afii10070.var.accented" unicode="&#x435;`" horiz-adv-x="467" 
d="M391 88l18 -45q1 -2 1 -6q0 -7 -37 -25q-58 -26 -113 -26q-40 0 -76 12.5t-69 40t-53 79.5t-20 122q0 118 56 186t144 68q180 0 180 -248v-5q0 -17 -11 -17h-287v-5q0 -81 41 -123.5t97 -42.5q49 0 110 35q8 4 12 5h2q4 0 5 -5zM124 286h216q0 47 -16 85q-25 61 -89 61
q-45 0 -77.5 -36t-33.5 -110zM348 700l29 -43q4 -8 4 -9q0 -4 -9 -10l-166 -86q-4 -2 -7 -2t-7 4l-13 19q-4 5 -4 8q0 5 4 7l149 115q8 5 10 5q5 0 10 -8z" />
    <glyph glyph-name="afii10074.var.accented" unicode="&#x438;`" horiz-adv-x="518" 
d="M83 12v456q0 10 7 12l22 5l32 8q4 1 8 1q7 0 7 -9v-271l-3 -98h3l48 92l153 267q2 4 6 5l54 13q4 1 8 1q7 0 7 -9v-473q0 -12 -12 -12h-52q-12 0 -12 12v254l3 97h-3q-38 -76 -48 -91l-153 -267q-3 -5 -11 -5h-52q-12 0 -12 12zM374 700l29 -43q4 -8 4 -9q0 -4 -9 -10
l-166 -86q-4 -2 -7 -2t-7 4l-13 19q-4 5 -4 8q0 5 4 7l149 115q8 5 10 5q5 0 10 -8z" />
    <glyph glyph-name="afii10080.var.accented" unicode="&#x43e;`" 
d="M250 494q35 0 67.5 -12t63.5 -39t49.5 -79.5t18.5 -123.5t-18.5 -123.5t-49.5 -79.5t-63.5 -39t-67.5 -12t-67.5 12t-63.5 39t-49.5 79.5t-18.5 123.5t18.5 123.5t49.5 79.5t63.5 39t67.5 12zM250 432q-117 0 -117 -192t117 -192t117 192t-117 192zM365 700l29 -43
q4 -8 4 -9q0 -4 -9 -10l-166 -86q-4 -2 -7 -2t-7 4l-13 19q-4 5 -4 8q0 5 4 7l149 115q7 5 10 5q5 0 10 -8z" />
    <glyph glyph-name="afii10085.var.accented" unicode="&#x443;`" horiz-adv-x="445" 
d="M374 485l49 -20q5 -2 6 -6q1 -3 -1 -13l-123 -409q-41 -135 -61 -174q-38 -73 -118 -73q-26 0 -53 8q-32 9 -64 29q-12 7 -7 19l20 40q2 5 7 5q2 0 18 -10q42 -29 77 -29q18 0 31 9q27 18 46 76l21 63h-36q-10 0 -13 9l-157 441q-4 12 6 15l38 15l9 4q9 3 12 3q8 0 10 -8
l126 -378q9 -27 19 -68l1 -4h2q2 21 15 70l100 380q2 8 10 8q6 0 10 -2zM337 700l29 -43q4 -8 4 -9q0 -4 -9 -10l-166 -86q-4 -2 -7 -2t-7 4l-13 19q-4 5 -4 8q0 5 4 7l149 115q7 5 10 5q5 0 10 -8z" />
    <glyph glyph-name="afii10093.var.accented" unicode="&#x44b;`" horiz-adv-x="616" 
d="M159 291h78q69 0 113 -34q52 -39 52 -111q0 -74 -53 -114q-43 -32 -120 -32h-134q-12 0 -12 12v456q0 10 7 12l54 13q4 1 8 1q7 0 7 -9v-194zM159 229v-167h69q41 0 69.5 20.5t28.5 61.5q0 40 -25.5 62.5t-72.5 22.5h-69zM457 12v456q0 10 7 12l54 13q4 1 8 1q7 0 7 -8
v-474q0 -12 -12 -12h-52q-12 0 -12 12zM423 700l29 -43q4 -8 4 -9q0 -4 -9 -10l-166 -86q-4 -2 -7 -2t-7 4l-13 19q-4 5 -4 8q0 5 4 7l149 115q8 5 10 5q5 0 10 -8z" />
    <glyph glyph-name="afii10095.var.accented" unicode="&#x44d;`" horiz-adv-x="444" 
d="M79 387l-24 40q-6 9 16 25q59 42 133 42q84 0 135 -61q55 -65 55 -190q0 -87 -30 -151q-51 -106 -172 -106q-69 0 -135 38q-14 9 -14 13t1 6l18 40q0 3 5 5h2q4 -1 12 -5q62 -35 110 -35q19 0 37.5 5.5t41 28t32.5 59.5q7 25 10 75h-153q-12 0 -12 12v38q0 12 13 12h152
q0 59 -27 102q-32 52 -91 52q-46 0 -98 -42q-9 -7 -12 -7t-5 4zM337 700l29 -43q4 -8 4 -9q0 -4 -9 -10l-166 -86q-4 -2 -7 -2t-7 4l-13 19q-4 5 -4 8q0 5 4 7l149 115q7 5 10 5q5 0 10 -8z" />
    <glyph glyph-name="afii10096.var.accented" unicode="&#x44e;`" horiz-adv-x="675" 
d="M159 278h77q4 106 60 161t130 55q35 0 67 -12.5t63 -39.5t49.5 -79t18.5 -123t-18.5 -123t-49.5 -79t-63 -39.5t-67 -12.5q-33 0 -65 12.5t-61 38.5t-47 72.5t-18 106.5h-76v-204q0 -12 -12 -12h-52q-12 0 -12 12v456q0 10 7 12l54 13q4 1 8 1q7 0 7 -9v-207zM425 432
q-115 0 -115 -192t115 -192q117 0 117 192t-117 192zM452 700l29 -43q4 -8 4 -9q0 -4 -9 -10l-166 -86q-4 -2 -7 -2t-7 4l-13 19q-4 5 -4 8q0 5 4 7l149 115q8 5 10 5q5 0 10 -8z" />
    <glyph glyph-name="afii10097.var.accented" unicode="&#x44f;`" horiz-adv-x="472" 
d="M243 480h134q12 0 12 -12v-456q0 -12 -12 -12h-52q-12 0 -12 12v193h-54q-17 0 -27 -2.5t-20.5 -14.5t-17.5 -36l-16 -58q-9 -33 -14.5 -47.5t-17 -28.5t-29.5 -22q-22 -10 -61 -10q-12 0 -14 8l-13 45q-3 9 0 11t12 3l12 2q22 4 29 10q11 10 16 28l23 75q13 43 48 59v3
q-47 9 -73 41.5t-26 75.5q0 13 2 26t12.5 33.5t27.5 36t51 26.5t80 11zM313 267v151h-69q-98 0 -98 -73q0 -33 23.5 -55.5t74.5 -22.5h69zM351 700l29 -43q4 -8 4 -9q0 -4 -9 -10l-166 -86q-4 -2 -7 -2t-7 4l-13 19q-4 5 -4 8q0 5 4 7l149 115q8 5 10 5q5 0 10 -8z" />
    <glyph glyph-name="afii10071.var.accented" unicode="&#x451;`" horiz-adv-x="467" 
d="M391 88l18 -45q1 -2 1 -6q0 -7 -37 -25q-58 -26 -113 -26q-40 0 -76 12.5t-69 40t-53 79.5t-20 122q0 118 56 186t144 68q180 0 180 -248v-5q0 -17 -11 -17h-287v-5q0 -81 41 -123.5t97 -42.5q49 0 110 35q10 5 13 5q4 0 6 -5zM124 286h216q0 47 -16 85q-25 61 -89 61
q-45 0 -77.5 -36t-33.5 -110zM194 629q0 -21 -14 -37t-34 -16t-34 15.5t-14 37.5t14 37.5t34 15.5t34 -16t14 -37zM305 629q0 22 14 37.5t34 15.5t34 -15.5t14 -37.5t-14 -37.5t-34 -15.5t-34 15.5t-14 37.5zM340 845l26 -39q0 -1 1.5 -2t2 -2.5t0.5 -3.5t-1.5 -4t-4.5 -4
l-2 -1l-150 -77q-4 -2 -6 -2q-3 0 -6 3l-12 18q-4 4 -4 7q0 4 4 6l134 104q6 4 9 4q5 0 9 -7z" />
    <glyph glyph-name="fi" unicode="fi" horiz-adv-x="537" 
d="M445 465v-453q0 -12 -12 -12h-52q-12 0 -12 12v406h-194v-406q0 -12 -12 -12h-52q-12 0 -12 12v406h-70q-7 0 -7 12v38q0 12 7 12h70v78q0 83 28 121q32 45 97 45q39 0 78 -16q10 -5 10 -9q0 -5 -4 -14l-14 -33q-4 -9 -15 -5q-43 10 -48 10q-39 0 -50 -31q-6 -14 -6 -69
v-77h257q13 0 13 -15zM462 656q0 -25 -18 -43t-43 -18t-43 18t-18 43t18 43t43 18t43 -18t18 -43z" />
    <glyph glyph-name="fl" unicode="fl" horiz-adv-x="556" 
d="M178 418v-406q0 -12 -12 -12h-52q-12 0 -12 12v406h-70q-7 0 -7 12v38q0 12 7 12h70v78q0 166 135 166q51 0 100 -21q14 -7 14 -14q0 -3 -5 -14l-14 -33q-3 -6 -7 -6q-7 0 -13 3q-47 18 -71 18q-31 0 -45 -14q-18 -18 -18 -86v-77h144q15 0 10 -14l-13 -39q-3 -9 -13 -9
h-128zM550 55l14 -39q3 -7 -4 -12q-34 -18 -80 -18q-49 0 -77 25q-22 21 -27 54q-4 22 -4 62v571q0 10 8 12l52 13q4 1 9 1q7 0 7 -13v-569q0 -50 3 -64q7 -30 42 -30q18 0 39 9q10 4 14 4t4 -6z" />
    <glyph glyph-name=".notdef" horiz-adv-x="233" 
 />
    <glyph glyph-name=".null" horiz-adv-x="0" 
 />
    <glyph glyph-name="nonmarkingreturn" horiz-adv-x="333" 
 />
    <glyph glyph-name="space" unicode=" " horiz-adv-x="233" 
 />
    <glyph glyph-name="exclam" unicode="!" horiz-adv-x="333" 
d="M182 265h-32q-12 0 -12 13l-24 395q-1 12 13 12h76q14 0 13 -12l-22 -395q0 -13 -12 -13zM237 56q0 -28 -20.5 -49t-49.5 -21t-49.5 21t-20.5 49t20.5 49t49.5 21t49.5 -21t20.5 -49z" />
    <glyph glyph-name="quotedbl" unicode="&#x22;" horiz-adv-x="407" 
d="M105 473l-16 242q-1 9 12 9h58q13 0 12 -9l-16 -242q-1 -13 -12 -13h-26q-11 0 -12 13zM253 473l-16 242q-1 9 12 9h58q13 0 12 -9l-16 -242q-1 -13 -12 -13h-26q-11 0 -12 13z" />
    <glyph glyph-name="numbersign" unicode="#" 
d="M306 177l21 200h-122l-21 -200h122zM363 112l-18 -178q-1 -14 -12 -14h-39h-6t-5 3.5t-2 10.5l18 178h-122l-18 -178q-1 -14 -12 -14h-39h-6t-5 3.5t-2 10.5l18 178h-64q-8 0 -8 8v49q0 8 8 8h71l21 200h-70q-8 0 -8 8v49q0 8 8 8h76l21 201q1 6 2 10v1q2 3 10 3h45
q5 0 7 -2v-12l-21 -201h122l21 201q1 6 2 10v1q2 3 10 3h45q5 0 7 -2v-12l-21 -201h59q8 0 8 -8v-49q0 -8 -8 -8h-65l-21 -200h64q8 0 8 -8v-49q0 -8 -8 -8h-71z" />
    <glyph glyph-name="dollar" unicode="$" 
d="M285 590v-227l17 -9q27 -14 45.5 -27t42.5 -35.5t36.5 -53.5t12.5 -70q0 -67 -41 -116.5t-113 -61.5v-66q0 -12 -12 -12h-30q-12 0 -12 12v62q-74 3 -135 29q-34 13 -35 25v3q0 1 1 5l1 3l17 43q2 6 8 6h1l16 -8q67 -35 126 -39v251l-19 11q-66 39 -90 63q-45 46 -45 112
t43 112.5t111 52.5v59q0 12 12 12h30q12 0 12 -12v-57q70 -4 126 -35q15 -8 10 -20l-18 -44q-5 -4 -7 -5h-3q-3 1 -15 7q-53 27 -93 30zM231 384v204q-32 -5 -52 -28t-20 -63q0 -38 17 -62.5t49 -46.5zM285 283v-226q34 8 53 35t19 65q0 43 -21 75.5t-46 47.5z" />
    <glyph glyph-name="percent" unicode="%" horiz-adv-x="759" 
d="M305 495q0 -83 -36.5 -131t-99.5 -48q-13 0 -26 2t-33 12t-34.5 26t-25.5 48.5t-11 75.5q0 81 36 129t101 48q56 0 92.5 -40t36.5 -122zM169 370q70 0 70 119q0 114 -64 114q-70 0 -70 -120q0 -113 64 -113zM721 165q0 -83 -36.5 -131t-99.5 -48q-13 0 -26 2t-33 12
t-34.5 26t-25.5 48.5t-11 75.5q0 81 36 129t101 48q56 0 92.5 -40t36.5 -122zM585 40q70 0 70 119q0 114 -64 114q-70 0 -70 -120q0 -113 64 -113zM453 657h42q18 0 11 -17l-200 -644q-3 -10 -14 -10h-42q-11 0 -13 4.5t2 11.5l199 645q4 10 15 10z" />
    <glyph glyph-name="ampersand" unicode="&#x26;" horiz-adv-x="610" 
d="M502 307h49q12 0 12 -12v-6q0 -46 -16 -94.5t-42 -80.5l63 -73q6 -6 6 -10q0 -7 -6 -10l-38 -31q-8 -4 -9 -4h-3q-8 0 -14 7l-55 65q-54 -40 -90.5 -56t-95.5 -16q-92 0 -149 49.5t-57 129.5q0 70 41 121l14.5 16t18.5 16.5l17 13l21 15t20 13.5q-26 24 -57 79
q-29 53 -29 99q0 63 43.5 112t129.5 49q76 0 115.5 -41t39.5 -104q0 -70 -48 -125q-24 -27 -88 -72l165 -191q30 52 30 116v13q0 12 12 12zM255 400q26 16 52 42q48 48 48 102q0 44 -24.5 68.5t-60.5 24.5q-37 0 -64 -25t-27 -66q0 -45 39 -100q27 -36 37 -46zM408 107
l-179 211q-24 -14 -47 -40q-43 -46 -43 -106q0 -49 33 -84t99 -35q77 0 137 54z" />
    <glyph glyph-name="quotesingle" unicode="'" horiz-adv-x="167" 
d="M124 715l-15 -242q-1 -13 -9 -13h-33q-8 0 -9 13l-16 242q-1 9 10 9h62q11 0 10 -9z" />
    <glyph glyph-name="parenleft" unicode="(" horiz-adv-x="370" 
d="M285 721l26 -16q7 -5 7 -11q0 -4 -10 -17q-35 -41 -63 -99q-80 -160 -80 -333t80 -333q28 -58 63 -99q10 -13 10 -17q0 -6 -7 -11l-26 -16q-5 -3 -9 -3q-5 0 -20 14q-28 27 -60 80q-113 188 -113 385q0 210 113 386q36 55 60 79q14 14 20 14q4 0 9 -3z" />
    <glyph glyph-name="parenright" unicode=")" horiz-adv-x="370" 
d="M85 -231l-26 16q-7 5 -7 11q0 4 10 17q35 41 63 99q80 160 80 333t-80 333q-28 58 -63 99q-10 13 -10 17q0 6 7 11l26 16q5 3 9 3q5 0 20 -14q28 -27 60 -80q113 -188 113 -385q0 -210 -113 -386q-36 -55 -60 -79q-14 -14 -20 -14q-4 0 -9 3z" />
    <glyph glyph-name="asterisk" unicode="*" 
d="M211 508l-118 29q-7 2 -7 7q0 3 2 7l13 41q3 11 12 8l112 -46l-9 122q0 9 10 9h48q10 0 10 -9l-9 -122l112 46q9 3 12 -8l13 -41q2 -4 2 -7q0 -5 -7 -7l-118 -29l79 -93q6 -7 -5 -15l-34 -25q-7 -4 -8 -4q-2 0 -7 5l-64 103l-64 -103q-5 -5 -7 -5q-1 0 -8 4l-34 25
q-11 8 -5 15z" />
    <glyph glyph-name="plus" unicode="+" 
d="M285 290h180q12 0 12 -12v-48q0 -12 -12 -12h-180v-180q0 -12 -12 -12h-48q-12 0 -12 12v180h-179q-12 0 -12 12v48q0 12 12 12h179v178q0 12 12 12h48q12 0 12 -12v-178z" />
    <glyph glyph-name="comma" unicode="," horiz-adv-x="296" 
d="M139 126h83q11 0 11 -7q0 -2 -4 -10l-115 -211q-4 -7 -6 -8q-1 -1 -4 -1q-2 0 -8 2l-26 9q-7 2 -7 7q0 3 2 9l59 199q4 11 15 11z" />
    <glyph glyph-name="hyphen" unicode="-" horiz-adv-x="352" 
d="M51 226v51q0 12 12 12h226q12 0 12 -12v-51q0 -12 -12 -12h-226q-12 0 -12 12z" />
    <glyph glyph-name="period" unicode="." horiz-adv-x="296" 
d="M218 56q0 -28 -21 -49t-49 -21t-49 21t-21 49t21 49t49 21t49 -21t21 -49z" />
    <glyph glyph-name="slash" unicode="/" horiz-adv-x="443" 
d="M378 724h40q12 0 12 -8q0 -2 -4 -10l-384 -906q-4 -10 -16 -10h-39q-19 0 -12 13l386 910q4 11 17 11z" />
    <glyph glyph-name="zero" unicode="0" 
d="M47 321q0 90 17 156.5t40 99.5t54.5 52.5t51.5 23.5t40 4t40 -4t51.5 -23.5t54.5 -52.5t40 -99.5t17 -156.5q0 -89 -17 -155t-40 -99.5t-54.5 -53t-51.5 -23.5t-40 -4t-40 4t-51.5 23.5t-54.5 53t-40 99.5t-17 155zM129 321q0 -265 121 -265t121 265q0 266 -121 266
t-121 -266z" />
    <glyph glyph-name="one" unicode="1" 
d="M425 53v-41q0 -12 -12 -12h-268q-12 0 -12 12v41q0 12 12 12h102v489l-138 -80q-7 -4 -11 -4t-6 5l-15 28q-3 5 -3 7q0 3 7 8l179 125h51q12 0 12 -12v-566h90q12 0 12 -12z" />
    <glyph glyph-name="two" unicode="2" 
d="M430 58v-46q0 -12 -12 -12h-337q-12 0 -12 12v9q0 75 24 136t51 91.5t66 61.5q17 13 62 44q23 15 36 26.5t27 38.5t14 61q0 49 -26 78t-67 29q-40 0 -70 -25q-22 -19 -40 -60q-9 -22 -15 -23q-2 -1 -5 0l-47 14q-8 2 -8 9q0 13 14 47q21 48 67 78t109 30
q77 0 123.5 -49.5t46.5 -131.5q0 -37 -9 -65.5t-30.5 -52t-36 -35.5t-44.5 -33q-33 -23 -58 -44q-82 -69 -96 -176h261q12 0 12 -12z" />
    <glyph glyph-name="three" unicode="3" 
d="M105 529l-33 28q-6 6 -6 9t8 14q23 33 68 55t94 22q71 0 120.5 -44t49.5 -122q0 -102 -103 -144q52 -12 88.5 -53t36.5 -111q0 -90 -58 -143.5t-154 -53.5q-82 0 -146 28q-22 11 -17 22l21 47q2 6 8 6q2 0 23 -10q44 -23 106 -23q67 0 101 34.5t34 91.5q0 123 -145 123
h-36q-12 0 -12 12v43q0 12 12 12h36q62 0 95.5 33.5t33.5 85.5q0 49 -30 72.5t-67 23.5q-55 0 -102 -47q-14 -14 -19 -14q-2 0 -7 3z" />
    <glyph glyph-name="four" unicode="4" 
d="M375 142v-142q0 -7 -2 -10.5t-3.5 -3.5h-5.5h-53q-12 0 -12 12v144h-256q-12 0 -12 12v58l259 431l4 6q5 9 18 7l47 -8q12 -3 12 -9q0 -3 -4 -9l-257 -423h189l13 161q1 13 13 13h38q12 0 12 -12v-162h82q12 0 12 -12v-41q0 -12 -12 -12h-82z" />
    <glyph glyph-name="five" unicode="5" 
d="M169 573l-22 -203l13 9q48 34 107 34q77 0 123.5 -55.5t46.5 -138.5q0 -61 -22.5 -110t-57.5 -77q-61 -46 -162 -46q-51 0 -106 16q-21 6 -17 21l11 45q0 7 9 7q1 0 18 -5q51 -14 87 -14q158 0 158 159q0 42 -11.5 70t-30.5 39.5t-32.5 15t-27.5 3.5q-46 0 -88 -31
q-4 -3 -8 -6.5l-10.5 -9t-11.5 -10.5q-9 -8 -15 -5l-37 13q-7 3 -8 4q-2 3 -2 12l31 320q0 5 0.5 6.5t1.5 3.5t3.5 2.5t6.5 0.5h264q12 0 12 -12v-47v-4.5t-1 -3t-4 -2.5t-7 -1h-211z" />
    <glyph glyph-name="six" unicode="6" 
d="M419 625l-15 -38q-3 -8 -10 -8q-4 0 -7 1q-33 10 -58 10q-56 0 -103 -42q-28 -25 -47 -62.5t-23.5 -56.5t-11.5 -54l-2 -10l2 -2q18 34 52.5 55.5t76.5 21.5q77 0 122.5 -62.5t45.5 -159.5q0 -106 -55.5 -169t-138.5 -63q-84 0 -134.5 62.5t-50.5 203.5q0 168 56 273
q24 45 56.5 74.5t66.5 40.5t52.5 14t36.5 3q40 0 74 -12q20 -8 15 -20zM248 56q50 0 80.5 42t30.5 116q0 79 -30.5 117.5t-74.5 38.5q-43 0 -76.5 -35t-33.5 -126q0 -76 28 -114.5t76 -38.5z" />
    <glyph glyph-name="seven" unicode="7" 
d="M434 606l-231 -606q-3 -10 -11 -9l-59 9q-8 0 -11 4q-2 2 2 13l216 556h-260q-12 0 -12 12v46q0 12 12 12h342q12 0 12 -12v-25z" />
    <glyph glyph-name="eight" unicode="8" 
d="M180 342q-17 7 -33 18t-36 30t-32 49t-12 66q0 65 48 108.5t135 43.5t135 -43.5t48 -108.5q0 -36 -12 -66t-32 -49t-36 -30t-33 -18q66 -22 104 -69.5t38 -105.5q0 -74 -57 -127.5t-155 -53.5t-155 53.5t-57 127.5q0 58 38 105.5t104 69.5zM250 373l4 2q98 49 98 124
q0 38 -28.5 64.5t-73.5 26.5t-73.5 -26.5t-28.5 -64.5q0 -75 98 -124zM250 302l-9 -4q-24 -11 -40 -19.5t-37.5 -25t-32.5 -39.5t-11 -52q0 -42 32.5 -75.5t97.5 -33.5t97.5 33.5t32.5 75.5q0 29 -11 52t-32.5 39.5t-37.5 25t-40 19.5z" />
    <glyph glyph-name="nine" unicode="9" 
d="M94 16l4 40q0 9 9 9q5 0 18 -4q28 -8 55 -8q78 0 124 61q9 11 16 25.5t11.5 25t9.5 28.5l7 25.5t5.5 27t4.5 22.5l2 10l-2 2q-18 -34 -52.5 -55.5t-76.5 -21.5q-77 0 -122.5 62.5t-45.5 159.5q0 106 56 169t140 63q82 0 132.5 -62t50.5 -203q0 -80 -16.5 -168t-56.5 -144
q-66 -94 -180 -94q-29 0 -78 11q-13 4 -15 9q-1 4 0 10zM254 587q-50 0 -80.5 -42t-30.5 -116q0 -80 30.5 -118.5t74.5 -38.5q19 0 36 6.5t35 22.5t28.5 50.5t10.5 83.5q0 76 -28 114t-76 38z" />
    <glyph glyph-name="colon" unicode=":" horiz-adv-x="296" 
d="M218 56q0 -28 -21 -49t-49 -21t-49 21t-21 49t21 49t49 21t49 -21t21 -49zM218 410q0 -28 -21 -49t-49 -21t-49 21t-21 49t21 49t49 21t49 -21t21 -49z" />
    <glyph glyph-name="semicolon" unicode=";" horiz-adv-x="307" 
d="M244 410q0 -29 -20.5 -49.5t-49.5 -20.5q-28 0 -49 21t-21 49t21 49t49 21t49 -21t21 -49zM139 114h83q11 0 11 -7q0 -2 -4 -10l-115 -211q-4 -7 -6 -8q-1 -1 -4 -1q-2 0 -8 2l-26 9q-7 2 -7 7q0 3 2 9l59 199q4 11 15 11z" />
    <glyph glyph-name="less" unicode="&#x3c;" 
d="M22 230v47q0 12 11 16l404 146q6 3 12 3t9 -10l16 -46l2 -8q0 -7 -9 -9l-322 -115v-2l322 -114q9 -3 9 -10l-1 -2q-1 -3 -1 -5l-16 -46q-3 -10 -9 -10q-3 0 -12 3l-404 146q-11 4 -11 16z" />
    <glyph glyph-name="equal" unicode="=" 
d="M477 346v-48q0 -12 -12 -12h-431q-12 0 -12 12v48q0 12 12 12h431q12 0 12 -12zM477 209v-48q0 -12 -12 -12h-431q-12 0 -12 12v48q0 12 12 12h431q12 0 12 -12z" />
    <glyph glyph-name="greater" unicode="&#x3e;" 
d="M478 277v-47q0 -12 -11 -16l-404 -146q-9 -3 -12 -3q-6 0 -9 10l-16 46q0 2 -1 5l-1 2q0 7 9 10l322 114v2l-322 115q-9 2 -9 9l2 8l16 46q3 10 9 10t12 -3l404 -146q11 -4 11 -16z" />
    <glyph glyph-name="question" unicode="?" horiz-adv-x="426" 
d="M211 369v-92q0 -12 -12 -12h-44q-12 0 -12 12v117q0 17 3.5 21t19.5 8q22 6 38 12.5t36 19.5t31 34t11 49q0 44 -26.5 69t-71.5 25q-56 0 -110 -27q-9 -3 -10 -3q-7 0 -9 7l-15 38q-2 6 -2 9q0 4 21 15q58 28 130 28q88 0 131.5 -44.5t43.5 -113.5q0 -139 -153 -172z
M249 56q0 -28 -20.5 -49t-49.5 -21t-49.5 21t-20.5 49t20.5 49t49.5 21t49.5 -21t20.5 -49z" />
    <glyph glyph-name="at" unicode="@" horiz-adv-x="944" 
d="M596 420h48q7 0 5 -11l-49 -229q-3 -15 -3 -17v-9q2 -50 41 -50q60 0 116 73t56 185q0 110 -70 174.5t-193 64.5q-119 0 -214 -57.5t-146 -152.5t-51 -208q0 -137 78 -219t234 -82q144 0 285 66l11.5 6t8.5 4.5t6 1.5h4q5 -1 7 -8l12 -29q2 -6 2 -11t-11.5 -12.5
t-38.5 -18.5q-140 -57 -280 -57q-177 0 -282 93t-105 263q0 202 139 340.5t338 138.5q149 0 240 -79t91 -216q0 -124 -74.5 -219.5t-172.5 -95.5q-28 0 -46.5 10.5t-25.5 27t-9.5 28.5t-2.5 24h-2q-60 -89 -137 -89q-39 0 -62.5 29t-23.5 85t18 115t49 95q49 56 117 56
q44 0 76 -40l10 24q2 6 7 6zM548 256l17 82q-34 34 -67 34q-52 0 -82 -80q-25 -71 -25 -125q0 -55 36 -55q32 0 69.5 37.5t51.5 106.5z" />
    <glyph glyph-name="A" unicode="A" horiz-adv-x="554" 
d="M171 204l-51 -192q-3 -9 -8 -11q-3 -1 -10 -1h-65q-5 0 -6.5 0.5t-3.5 3t1 8.5l203 662q4 11 15 11h59q11 0 15 -11l204 -662q3 -8 -2 -11q-2 -1 -10 -1h-66q-11 0 -14 11l-56 193h-205zM357 274l-60 221q-14 50 -23 95h-2q-7 -49 -21 -95l-61 -221h167z" />
    <glyph glyph-name="B" unicode="B" horiz-adv-x="546" 
d="M107 685h156q28 0 49 -2t51.5 -11t50 -25t34 -48t14.5 -77q0 -111 -99 -163q53 -13 88 -54t35 -113q0 -100 -66 -154q-28 -23 -66.5 -30.5t-108.5 -7.5h-138q-12 0 -12 12v661q0 12 12 12zM177 383h63q132 0 132 130q0 34 -10 56t-28.5 31t-34 12t-38.5 3h-84v-232z
M177 70h89q14 0 27 1.5t33 8t34.5 18.5t25 36t10.5 56q0 34 -11 59t-26 37.5t-36 19.5t-34 8.5t-28 1.5h-84v-246z" />
    <glyph glyph-name="C" unicode="C" horiz-adv-x="467" 
d="M432 613l-27 -35q-5 -5 -7 -5q-3 0 -18 13q-52 46 -105 46q-28 0 -49.5 -11t-35.5 -26t-23.5 -41t-14.5 -46t-7 -51t-2.5 -45.5t-0.5 -39.5q0 -319 142 -319q43 0 102 46q15 12 19 12q5 0 8 -5l25 -32q4 -4 4 -11q0 -9 -13 -19q-63 -58 -149 -58q-34 0 -63.5 8
t-60.5 32.5t-53.5 63t-36.5 105t-14 154.5q0 350 218 350q40 0 82 -15.5t70 -42.5q13 -10 13 -21q0 -4 -3 -7z" />
    <glyph glyph-name="D" unicode="D" horiz-adv-x="556" 
d="M109 685h126q114 0 171 -42q101 -75 98 -304q-2 -146 -40 -216q-21 -40 -49 -66t-62 -37.5t-62.5 -15.5t-66.5 -4h-115q-12 0 -12 12v661q0 12 12 12zM179 70h62q107 0 147 92q25 59 26 183q3 177 -56 232q-41 38 -124 38h-55v-545z" />
    <glyph glyph-name="E" unicode="E" horiz-adv-x="483" 
d="M429 58v-46q0 -12 -12 -12h-310q-12 0 -12 12v661q0 12 12 12h314q14 0 10 -10l-17 -51q-2 -9 -13 -9h-224v-222h197q12 0 12 -12v-46q0 -12 -12 -12h-197v-253h240q12 0 12 -12z" />
    <glyph glyph-name="F" unicode="F" horiz-adv-x="426" 
d="M177 323v-311q0 -12 -12 -12h-58q-12 0 -12 12v661q0 12 12 12h311q16 0 12 -12l-15 -46q-3 -12 -16 -12h-222v-222h197q12 0 12 -12v-46q0 -12 -12 -12h-197z" />
    <glyph glyph-name="G" unicode="G" horiz-adv-x="537" 
d="M468 335v-286q0 -17 -14 -26q-63 -37 -154 -37q-248 0 -248 361q0 28 1.5 54t7.5 63t16 67.5t29 63t44.5 54.5t64 36t86.5 14q84 0 147 -47q12 -9 12 -16q0 -2 -3 -8l-20 -37q-5 -8 -9 -8t-12 6q-61 43 -117 43q-157 0 -157 -277q0 -85 16.5 -162t53.5 -109
q36 -31 91 -31q39 0 83 19v210h-80q-12 0 -12 12v41q0 12 12 12h150q12 0 12 -12z" />
    <glyph glyph-name="H" unicode="H" horiz-adv-x="611" 
d="M434 321h-257v-309q0 -12 -12 -12h-58q-12 0 -12 12v661q0 12 12 12h58q12 0 12 -12v-282h257v282q0 12 12 12h58q12 0 12 -12v-661q0 -12 -12 -12h-58q-12 0 -12 12v309z" />
    <glyph glyph-name="I" unicode="I" horiz-adv-x="374" 
d="M228 65h91q12 0 12 -12v-41q0 -12 -12 -12h-264q-12 0 -12 12v41q0 12 12 12h91v555h-91q-12 0 -12 12v41q0 12 12 12h264q12 0 12 -12v-41q0 -12 -12 -12h-91v-555z" />
    <glyph glyph-name="J" unicode="J" horiz-adv-x="451" 
d="M367 673v-504q0 -84 -43 -131q-48 -52 -141 -52q-89 0 -134 54q-42 51 -42 128v16q0 12 12 12h52q12 0 12 -12v-9q0 -122 105 -122q49 0 73 30.5t24 83.5v448h-175q-12 0 -12 12v46q0 12 12 12h245q12 0 12 -12z" />
    <glyph glyph-name="K" unicode="K" horiz-adv-x="518" 
d="M430 -5l-251 331h-2v-314q0 -12 -12 -12h-58q-12 0 -12 12v661q0 12 12 12h58q12 0 12 -12v-328h2l256 347q5 7 10 7q3 0 9 -4l39 -28q6 -6 6 -7q0 -2 -5 -9l-234 -311l241 -303q7 -9 -4 -16l-44 -30q-5 -5 -12 -5q-4 0 -11 9z" />
    <glyph glyph-name="L" unicode="L" horiz-adv-x="444" 
d="M175 70h254q7 0 10 -3q2 -2 0 -12l-16 -44q-4 -11 -16 -11h-302q-12 0 -12 12v661q0 12 12 12h58q12 0 12 -12v-603z" />
    <glyph glyph-name="M" unicode="M" horiz-adv-x="667" 
d="M331 268h2q3 32 13 62l119 345q4 10 11 10h65q12 0 12 -12l39 -661q0 -12 -12 -12h-58q-12 0 -12 12l-16 514q-1 19 1 52h-2q-6 -42 -12 -59l-121 -348q-4 -11 -15 -11h-30q-11 0 -15 11l-116 348q-4 11 -12 59h-2q2 -28 1 -52l-15 -514q0 -12 -12 -12h-58q-12 0 -12 12
l38 661q0 12 12 12h65q8 0 11 -10l118 -345q10 -30 13 -62z" />
    <glyph glyph-name="N" unicode="N" horiz-adv-x="589" 
d="M499 673v-661q0 -12 -12 -12h-56q-12 0 -16 10l-230 494q-12 24 -26 85h-3q10 -56 10 -89v-488q0 -12 -12 -12h-52q-12 0 -12 12v661q0 12 12 12h68q11 0 15 -9l219 -462q10 -19 26 -85h3q-10 56 -10 89v455q0 12 12 12h52q12 0 12 -12z" />
    <glyph glyph-name="O" unicode="O" horiz-adv-x="556" 
d="M278 -14q-32 0 -60 7.5t-59.5 30.5t-54 60.5t-37.5 104t-15 154.5q0 30 1.5 55t7.5 71.5t21 82.5t38.5 71.5t64 55.5t93.5 20q31 0 59 -7t59.5 -30.5t54.5 -60.5t38 -103.5t15 -154.5t-15 -154.5t-38 -104t-55 -61t-59.5 -30.5t-58.5 -7zM278 53q28 0 50.5 11t36.5 26.5
t24 42.5t14.5 48t7.5 54.5t3 50v46.5v11q0 49 -2 83t-9.5 76t-21.5 68t-40 44t-63 18q-28 0 -50.5 -11.5t-36.5 -27t-24 -43t-14.5 -49t-7 -54.5t-3 -50t-0.5 -47v-7q0 -133 18 -190q30 -100 118 -100z" />
    <glyph glyph-name="P" unicode="P" horiz-adv-x="511" 
d="M178 289v-277q0 -12 -12 -12h-58q-12 0 -12 12v661q0 12 12 12h155q21 0 34 -0.5t36.5 -4t39.5 -10t35 -20t30.5 -32.5t19.5 -48.5t8 -66.5q0 -59 -19.5 -102t-44.5 -64t-60 -32.5t-54 -13.5t-38 -2h-72zM178 359h65q20 0 34 1t36 8.5t36 21.5t24.5 41.5t10.5 66.5
t-10 64t-30.5 36t-39.5 14t-49 3h-77v-256z" />
    <glyph glyph-name="Q" unicode="Q" horiz-adv-x="556" 
d="M543 -31l-53 -36q-10 -7 -27 4q-34 21 -86 75q-48 -26 -98 -26q-227 0 -227 355q0 88 15.5 155t38.5 104.5t55.5 60.5t61 30.5t60.5 7.5q51 0 90.5 -19.5t62.5 -54.5t37.5 -70t20.5 -81.5t7.5 -72.5t1.5 -58q0 -149 -43 -238q-15 -31 -22 -38l-3 -3q54 -46 95 -71
q1 -1 5.5 -3.5t6 -3.5t3.5 -4t2 -6t-4 -7zM277 53q44 0 73 24.5t42 70.5t17 89t4 103q0 48 -2.5 84.5t-10.5 77.5t-22 67.5t-39 44.5t-60 18q-30 0 -53.5 -11.5t-38 -34t-24 -48t-14 -60.5t-6 -65t-1.5 -68q0 -60 4.5 -104.5t17.5 -91t41.5 -71.5t71.5 -25z" />
    <glyph glyph-name="R" unicode="R" horiz-adv-x="527" 
d="M333 319l166 -303q4 -8 4 -10q0 -6 -11 -8l-63 -12q-10 -2 -15 8l-165 318h-72v-300q0 -12 -12 -12h-58q-12 0 -12 12v661q0 12 12 12h155q29 0 51.5 -2t53 -12t50 -27.5t34 -51.5t14.5 -81q0 -75 -36.5 -123.5t-95.5 -68.5zM177 377h65q19 0 30.5 0.5t35.5 7t38 18.5
t25.5 37t11.5 61q0 31 -7.5 52.5t-18.5 33.5t-29.5 18.5t-34.5 8t-39 1.5h-77v-238z" />
    <glyph glyph-name="S" unicode="S" horiz-adv-x="463" 
d="M407 638l-17 -43q-4 -9 -9 -9q-3 0 -17 7l-11 5.5t-12.5 6t-12.5 6t-14.5 6t-15 4.5t-18 4.5t-18.5 2.5t-21 1q-50 0 -78.5 -28t-28.5 -72q0 -26 8.5 -46t28.5 -37t37 -27.5t50 -27.5q56 -29 88 -54q80 -63 80 -155q0 -80 -54.5 -138t-151.5 -58q-88 0 -178 45
q-18 8 -18 13q0 6 2 10l17 43q4 9 9 9t22 -10q80 -40 142 -40t91 35.5t29 80.5q0 13 -2.5 24.5t-5 20.5t-10 19t-11.5 16t-15 15t-15.5 13t-18 12l-18 10.5l-20 11t-18.5 10.5q-39 22 -59.5 35t-47.5 37.5t-39 54.5t-12 69q0 73 51.5 126t142.5 53q84 0 156 -39
q18 -10 13 -22z" />
    <glyph glyph-name="T" unicode="T" horiz-adv-x="461" 
d="M266 615v-603q0 -12 -12 -12h-58q-12 0 -12 12v603h-149q-12 0 -12 12v46q0 12 12 12h394q15 0 10 -15l-16 -44q-4 -11 -16 -11h-141z" />
    <glyph glyph-name="U" unicode="U" horiz-adv-x="594" 
d="M511 673v-489q0 -18 -1.5 -34t-13 -48.5t-32 -55.5t-64 -41.5t-103.5 -18.5t-103.5 18.5t-64 41.5t-32 55.5t-13 48.5t-1.5 34v489q0 12 12 12h58q12 0 12 -12v-487q0 -21 4 -39.5t16 -42t41 -37.5t71 -14t71 14t41 37.5t16 42t4 39.5v487q0 12 12 12h58q12 0 12 -12z
" />
    <glyph glyph-name="V" unicode="V" 
d="M474 656l-175 -652q-3 -11 -15 -11h-70q-12 0 -15 11l-173 653q0 1 -1.5 5t-1.5 6q0 6 10 9l32 8l25 6q15 4 17 -11l127 -526q5 -22 14 -80h2q4 27 15 78l127 524q2 11 6 14t12 1l55 -14q12 -4 12 -10q0 -1 -0.5 -2t-1 -3.5t-1.5 -5.5z" />
    <glyph glyph-name="W" unicode="W" horiz-adv-x="704" 
d="M606 691l56 -14q10 -3 10 -9q0 -1 -1 -5q-1 -3 -1 -6l-137 -652q-2 -12 -12 -12h-71q-10 0 -12 12l-84 553h-2l-104 -553q-2 -12 -12 -12h-67q-10 0 -12 12l-123 652q0 2 -1 5q-1 4 -1 5q0 7 10 10l56 14q11 2 13 -5q0 -1 0.5 -2.5t0.5 -2.5t0.5 -3t0.5 -4l85 -487
q3 -15 6 -75l2 -31h2l2 24q7 73 10 88l96 480q2 9 4 10.5t8 1.5h58h1q3 0 4.5 -0.5t3.5 -3t3 -8.5l83 -494q9 -51 10 -98h2l1 31q3 53 6 68l91 494q2 13 5 16t10 1z" />
    <glyph glyph-name="X" unicode="X" horiz-adv-x="481" 
d="M458 16l-50 -21q-4 -3 -8.5 -1t-11.5 15l-122 225q-10 16 -26 56l-23 -50l-125 -235q0 -1 -2 -4t-3 -4q-5 -6 -14 -2l-50 17q-11 5 -11 11q0 3 1 5t2.5 4t1.5 3l174 322l-161 293l-5 10v2q0 7 11 11l35 12l15 5q10 4 17 -7l112 -206l25 -52q12 30 26 56l105 195
q7 13 11.5 15t8.5 -1l50 -21q11 -5 11 -11q0 -4 -5 -11l-164 -287l181 -322q5 -7 5 -11q0 -3 -1.5 -5t-2.5 -2.5t-4 -1.5z" />
    <glyph glyph-name="Y" unicode="Y" horiz-adv-x="481" 
d="M279 291v-279q0 -12 -12 -12h-58q-12 0 -12 12v277l-194 368q-3 6 -3 8q0 9 10 12l35 8l25 6q7 2 11 0q5 -2 9 -12l152 -313q6 15 28 62l122 253q6 13 19 10l60 -14q6 -2 8 -5q4 -6 -1 -15z" />
    <glyph glyph-name="Z" unicode="Z" horiz-adv-x="444" 
d="M421 58v-46q0 -12 -12 -12h-377q-12 0 -12 12v54l294 549h-269q-12 0 -12 7q0 3 2 8l16 44q4 11 16 11h331q12 0 12 -12v-50l-296 -553h295q12 0 12 -12z" />
    <glyph glyph-name="bracketleft" unicode="[" horiz-adv-x="370" 
d="M316 -152v-38q0 -12 -12 -12h-176q-12 0 -12 12v895q0 12 13 12h175q12 0 12 -12v-38q0 -12 -12 -12h-112v-795h112q12 0 12 -12z" />
    <glyph glyph-name="backslash" unicode="\" horiz-adv-x="441" 
d="M39 724h40q13 0 17 -11l386 -906q3 -9 3 -10q0 -7 -12 -7h-40q-12 0 -16 10l-386 906q-3 9 -3 10q0 8 11 8z" />
    <glyph glyph-name="bracketright" unicode="]" horiz-adv-x="370" 
d="M55 -190v38q0 12 12 12h112v795h-112q-12 0 -12 12v38q0 12 12 12h175q13 0 13 -12v-895q0 -12 -12 -12h-176q-12 0 -12 12z" />
    <glyph glyph-name="asciicircum" unicode="^" 
d="M223 685h55q9 0 13 -8l143 -319q5 -11 5 -13q0 -5 -10 -8l-48 -14q-11 -4 -15 6l-116 258l-115 -258q-2 -7 -10 -7q-3 0 -5 1l-48 14q-10 3 -10 8q0 2 5 13l143 319q4 8 13 8z" />
    <glyph glyph-name="underscore" unicode="_" 
d="M0 -125v50h500v-50h-500z" />
    <glyph glyph-name="grave" unicode="`" 
d="M102 657l29 43q5 8 10 8q3 0 10 -5l149 -115q4 -2 4 -7q0 -3 -4 -8l-13 -19q-4 -4 -7 -4t-7 2l-166 86q-9 6 -9 10q0 1 4 9z" />
    <glyph glyph-name="a" unicode="a" horiz-adv-x="463" 
d="M308 301v36q0 19 -2.5 32.5t-10.5 28t-26 22t-45 7.5q-57 0 -111 -26q-12 -6 -15 -6q-6 0 -8 5l-15 40q-5 14 21 25q71 29 137 29q151 0 151 -137v-227q0 -43 12 -72q4 -10 14 -28q4 -5 4 -8t-6 -7l-42 -26q-13 -7 -26 16q-10 16 -19 45l-1 3l-4 -4q-63 -63 -135 -63
q-68 0 -101.5 41t-33.5 100q0 127 141 160q58 14 105 14h16zM308 110v129h-15q-24 0 -47.5 -3.5t-54.5 -13t-50 -33.5t-19 -59q0 -41 22 -61.5t50 -20.5q52 0 108 56z" />
    <glyph glyph-name="b" unicode="b" 
d="M84 122v576q0 10 8 12l52 13q4 1 9 1q7 0 7 -13v-268q57 51 127 51q30 0 55 -9t51 -31.5t41 -70.5t15 -117q0 -60 -8 -107t-27.5 -88t-57 -63t-91.5 -22q-77 0 -126 49q-18 -49 -33 -49q-3 0 -9 4l-38 25q-6 4 -6 8q0 2 1.5 4.5t3.5 5.5t6 10t8 16q12 27 12 63zM160 377
v-286q54 -38 99 -38q30 0 51 13.5t32 32t17 50.5t7 57t1 63q0 37 -3 61t-12 48.5t-30 36.5t-53 12q-43 0 -88 -34z" />
    <glyph glyph-name="c" unicode="c" horiz-adv-x="437" 
d="M400 427l-24 -45q-2 -4 -5 -4t-12 7q-53 42 -98 42q-124 0 -124 -187q0 -35 3.5 -62t14 -58.5t35.5 -49t62 -17.5q46 0 110 35q8 4 12 5h2q4 0 5 -5l18 -45q1 -2 1 -6q0 -7 -37 -25q-58 -26 -113 -26q-37 0 -69 11t-62 36.5t-47 76t-17 120.5q0 128 58.5 196t141.5 68
q71 0 129 -42q22 -16 16 -25z" />
    <glyph glyph-name="d" unicode="d" 
d="M417 711v-553q0 -70 10 -98q3 -10 8 -18.5t8 -13t3 -6.5q0 -3 -9 -9l-39 -24q-13 -8 -25.5 12t-18.5 44l-8 -6q-71 -53 -131 -53q-25 0 -49 8.5t-52 31.5t-45.5 76.5t-17.5 130.5q0 67 13.5 117t32 76.5t45 43t46.5 20.5t41 4q62 0 112 -34v238q0 10 8 12l52 13q4 1 9 1
q7 0 7 -13zM341 112v282q-58 33 -100 33q-36 0 -59 -15.5t-33 -46t-13 -57.5t-3 -68q0 -26 0.5 -40.5t2.5 -40t8 -41t15 -32.5t25 -25t37 -8q37 0 102 46z" />
    <glyph glyph-name="e" unicode="e" horiz-adv-x="467" 
d="M391 88l18 -45q1 -2 1 -6q0 -7 -37 -25q-58 -26 -113 -26q-40 0 -76 12.5t-69 40t-53 79.5t-20 122q0 118 56 186t144 68q180 0 180 -248v-5q0 -17 -11 -17h-287v-5q0 -81 41 -123.5t97 -42.5q49 0 110 35q8 4 12 5h2q4 0 5 -5zM124 286h216q0 47 -16 85q-25 61 -89 61
q-45 0 -77.5 -36t-33.5 -110z" />
    <glyph glyph-name="f" unicode="f" horiz-adv-x="315" 
d="M178 418v-406q0 -12 -12 -12h-52q-12 0 -12 12v406h-65q-12 0 -12 12v38q0 12 12 12h65v78q0 77 26 115q36 51 113 51q39 0 92 -20q21 -9 16 -21l-17 -41q-2 -6 -7 -6q-6 0 -24 7q-33 14 -63 14q-34 0 -49 -21q-11 -16 -11 -63v-93h144q14 0 10 -14l-13 -39q-3 -9 -13 -9
h-128z" />
    <glyph glyph-name="g" unicode="g" 
d="M413 362v-169l7 -227q3 -87 -46.5 -131.5t-129.5 -44.5q-89 0 -146 33q-1 1 -5 3t-6.5 3.5t-5 4t-4 4.5t-1.5 5q0 2 0.5 3.5t1.5 3t1 2.5l17 38q3 5 7 6q4 0 21 -9q57 -30 120 -30q104 0 100 108l-3 103q-64 -55 -135 -55q-67 0 -111 55.5t-44 165.5q0 72 16.5 125t45 81
t59.5 41t65 13q64 0 115 -37l7 -5q16 43 30 42q3 0 6 -2l45 -28q4 -3 4 -6v-1q0 -3 -5 -11q-26 -43 -26 -84zM337 130v270q-18 11 -46 19t-46 8q-112 0 -112 -181q0 -34 3 -59.5t11 -52t26.5 -40.5t46.5 -14q47 0 117 50z" />
    <glyph glyph-name="h" unicode="h" horiz-adv-x="519" 
d="M84 12v686q0 10 8 12l52 13q4 1 9 1q7 0 7 -13v-285q78 68 159 68q34 0 57.5 -11.5t35 -25.5t17.5 -38.5t6.5 -37.5t0.5 -37v-332q0 -12 -12 -12h-52q-12 0 -12 12v334q0 81 -68 81t-132 -61v-354q0 -12 -12 -12h-52q-12 0 -12 12z" />
    <glyph glyph-name="i" unicode="i" horiz-adv-x="279" 
d="M190 465v-453q0 -12 -12 -12h-52q-12 0 -12 12v406h-78q-12 0 -12 12v38q0 12 12 12h141q13 0 13 -15zM209 656q0 -26 -18 -44t-44 -18t-44 18t-18 44t18 44t44 18t44 -18t18 -44z" />
    <glyph glyph-name="j" unicode="j" horiz-adv-x="279" 
d="M190 465v-518q0 -18 -2 -34.5t-10.5 -40t-23 -40.5t-42.5 -29.5t-66 -12.5q-62 0 -112 25q-16 8 -11 22l19 42q2 5 8 5h1q3 0 6 -1.5l10 -5t15 -6.5q35 -14 63 -14q11 0 20 2t16 4.5t12 9t8.5 9.5t6 12.5t4 12.5t2 15t0.5 14v16v13v453h-79q-12 0 -12 12v38q0 12 12 12
h142q13 0 13 -15zM209 656q0 -26 -18 -44t-44 -18t-44 18t-18 44t18 44t44 18t44 -18t18 -44z" />
    <glyph glyph-name="k" unicode="k" horiz-adv-x="447" 
d="M242 258l178 -226q5 -5 5 -9q0 -3 -3 -5l-41 -28q-8 -4 -9 -4q-3 0 -11 8l-204 252h-2v-234q0 -12 -12 -12h-52q-12 0 -12 12v686q0 10 8 12l52 13q4 1 9 1q7 0 7 -13v-451l201 228q6 6 10 6t7 -3l39 -27q6 -4 6 -8t-7 -11z" />
    <glyph glyph-name="l" unicode="l" horiz-adv-x="259" 
d="M253 55l14 -39q3 -7 -4 -12q-35 -18 -80 -18q-49 0 -77 25q-21 18 -27 54q-4 23 -4 84v549q0 10 8 12l52 13q4 1 9 1q7 0 7 -13v-569q0 -50 3 -64q7 -30 42 -30q18 0 39 9q10 4 14 4t4 -6z" />
    <glyph glyph-name="m" unicode="m" horiz-adv-x="721" 
d="M86 12v343q0 68 -16 98q-3 6 -3 7q0 4 5 6l45 25q12 7 18 -6q12 -24 16 -51q37 30 68 45t73 15q67 0 93 -60q83 60 142 60q37 0 61 -14t34 -39.5t13 -46.5t3 -50v-332q0 -12 -12 -12h-52q-12 0 -12 12v334q0 81 -65 81q-37 0 -89 -35l-8 -6v-374q0 -12 -12 -12h-52
q-12 0 -12 12v334q0 81 -65 81q-46 0 -97 -41v-374q0 -12 -12 -12h-52q-12 0 -12 12z" />
    <glyph glyph-name="n" unicode="n" horiz-adv-x="519" 
d="M87 12v359q0 41 -12 67l-3 6q-5 9 -5 15q0 3 5 6l47 26q12 7 21 -11q12 -22 16 -54q78 68 166 68q33 0 55.5 -11t34 -25t17 -38t6.5 -38t1 -38v-332q0 -12 -12 -12h-52q-12 0 -12 12v334q0 81 -65 81q-69 0 -132 -61v-354q0 -12 -12 -12h-52q-12 0 -12 12z" />
    <glyph glyph-name="o" unicode="o" 
d="M250 494q35 0 67.5 -12t63.5 -39t49.5 -79.5t18.5 -123.5t-18.5 -123.5t-49.5 -79.5t-63.5 -39t-67.5 -12t-67.5 12t-63.5 39t-49.5 79.5t-18.5 123.5t18.5 123.5t49.5 79.5t63.5 39t67.5 12zM250 432q-117 0 -117 -192t117 -192t117 192t-117 192z" />
    <glyph glyph-name="p" unicode="p" horiz-adv-x="502" 
d="M90 -199v549q0 52 -23 93q-7 11 -7 14q0 5 5 7l43 27q9 6 17 -2q18 -18 27 -54l8 6q71 53 131 53q19 0 37 -4t42 -19.5t42 -41t30.5 -74t12.5 -112.5q0 -65 -13 -114t-32 -75.5t-45 -42.5t-47 -20.5t-43 -4.5q-58 0 -109 34v-204q0 -10 -8 -12l-48 -12q-20 -6 -20 9z
M166 378v-292q54 -33 105 -33q35 0 56.5 15t31 46t12 58.5t2.5 72.5q0 32 -1.5 54t-7 48.5t-16 42t-29 26.5t-45.5 11q-44 0 -108 -49z" />
    <glyph glyph-name="q" unicode="q" horiz-adv-x="481" 
d="M412 358v-542q0 -10 -7 -12l-55 -13q-8 -2 -11 0.5t-3 9.5v244l-6 -5q-48 -39 -77 -48q-19 -6 -39 -6q-65 0 -114.5 60.5t-49.5 195.5q0 125 53.5 188.5t130.5 63.5q61 0 122 -48l3 7q13 29 21 37q5 5 14 1l37 -21q8 -4 8 -9v-1q0 -4 -5 -12l-2 -4q-20 -40 -20 -86z
M336 111v277l-10 6q-56 33 -88 33q-106 0 -106 -181q0 -89 21 -141t77 -52q42 0 98 51z" />
    <glyph glyph-name="r" unicode="r" horiz-adv-x="315" 
d="M150 410l14 16q19 22 28.5 32t32.5 23t47 13q18 0 38 -8q12 -4 7 -14l-24 -55q-2 -6 -6 -6q-1 0 -2.5 0.5t-3.5 2t-5 2.5q-8 4 -18 4q-32 0 -81 -59l-16 -20v-329q0 -12 -12 -12h-52q-12 0 -12 12v343q0 40 -17 76l-7 14q-4 8 -4 11q0 5 4 8l40 26q2 1 3 2t2 1.5t2 0.5h2
q8 -1 17 -16q17 -32 23 -68z" />
    <glyph glyph-name="s" unicode="s" horiz-adv-x="389" 
d="M327 446l-17 -37q-3 -7 -10 -7l-15 6q-46 21 -83 21q-38 0 -57.5 -19t-19.5 -48q0 -18 6 -31t22 -24.5t28.5 -18t40.5 -19.5q32 -15 47 -23t37 -25.5t31.5 -41t9.5 -54.5q0 -66 -47.5 -102.5t-112.5 -36.5q-71 0 -135 32q-17 11 -17 16q0 6 1 7l19 40q2 5 6 5h3
q2 0 27 -12q48 -23 98 -23q39 0 60.5 19.5t21.5 52.5q0 23 -14 40t-29 25t-53 26q-26 12 -38.5 18.5t-33 20t-29.5 26.5t-17 33t-8 45q0 60 40.5 98.5t106.5 38.5q32 0 70 -10q33 -9 52 -20q14 -8 9 -18z" />
    <glyph glyph-name="t" unicode="t" horiz-adv-x="352" 
d="M175 418v-284q0 -20 1.5 -31.5t6.5 -24.5t17.5 -19t32.5 -6q40 0 82 21q12 6 14 6h2q4 0 7 -6l12 -39q1 -5 1 -9t-10 -10t-32 -14q-42 -16 -87 -16q-62 0 -94 35q-29 32 -29 113v284h-70q-12 0 -12 12v38q0 12 12 12h70v137q0 9 11 12l53 15q13 4 12 -8v-2v-154h148
q14 0 10 -14l-13 -39q-3 -9 -13 -9h-132z" />
    <glyph glyph-name="u" unicode="u" horiz-adv-x="518" 
d="M368 37l-3 8q-72 -59 -148 -59q-45 0 -74 13t-42 37t-17 46.5t-4 53.5v332q0 10 7 12l54 13q11 2 14 -2q1 -2 1 -6v-351q0 -43 22 -62t55 -19q52 0 119 51v364q0 10 7 12l54 13q10 2 12 0q2 0 2 -2q1 -2 1 -6v-378q0 -18 8 -40q1 -3 15 -31l7 -14q0 -4 -8 -8l-40 -25
q-13 -8 -25 13q-13 24 -17 35z" />
    <glyph glyph-name="v" unicode="v" horiz-adv-x="444" 
d="M369 486l53 -14q9 -2 9 -7q0 -1 -1 -4l-1 -3l-181 -456q-7 -8 -12 -9h-40q-5 0 -7 1q-3 2 -5 8l-169 459q-3 5 0 8q1 1 8 3l33 8l20 6q10 3 13 -7l111 -325q10 -27 18 -63h2q3 21 18 62l118 326l3 6q4 3 10 1z" />
    <glyph glyph-name="w" unicode="w" horiz-adv-x="630" 
d="M298 480h40q10 0 12 -10l82 -334q6 -24 7 -42h2q1 22 6 42l85 341q3 12 13 9l50 -14q8 -2 5 -13l-131 -456q-3 -10 -12 -10h-40q-9 0 -12 10l-79 303q-10 37 -11 76h-2q-5 -41 -15 -75l-94 -304q-5 -10 -11 -10h-40q-8 0 -11 10l-113 453q0 2 -0.5 4t-1 3t-0.5 2q0 5 6 7
l50 14q7 2 10 -1q1 -1 3 -8l72 -328q6 -24 10 -55h2q3 21 11 55l95 321q3 10 12 10z" />
    <glyph glyph-name="x" unicode="x" horiz-adv-x="444" 
d="M351 1l-93 139q-20 30 -32 53l-36 -53l-98 -140q-7 -10 -21 -5l-48 20q-6 2 -6 6q0 5 4 9l166 215l-145 205q-4 5 -4 8q0 5 8 8l35 14l12 5q12 5 20 -6l113 -177l119 177q5 8 12 8q5 0 9 -2l46 -19q12 -5 4 -16l-150 -197l156 -223q4 -5 4 -8q0 -5 -6 -7l-49 -20
q-4 -2 -8 -2q-7 0 -12 8z" />
    <glyph glyph-name="y" unicode="y" horiz-adv-x="445" 
d="M374 485l49 -20q5 -2 6 -6q1 -3 -1 -13l-123 -409q-41 -135 -61 -174q-38 -73 -118 -73q-26 0 -53 8q-32 9 -64 29q-12 7 -7 19l20 40q2 5 7 5q2 0 18 -10q42 -29 77 -29q18 0 31 9q27 18 46 76l21 63h-36q-10 0 -13 9l-157 441q-4 12 6 15l38 15l9 4q9 3 12 3q8 0 10 -8
l126 -378q9 -27 19 -68l1 -4h2q2 21 15 70l100 380q2 8 10 8q6 0 10 -2z" />
    <glyph glyph-name="z" unicode="z" horiz-adv-x="419" 
d="M130 65h247q16 0 11 -12l-19 -44q-4 -9 -13 -9h-312h-2q-3 0 -4.5 0.5t-3 3t-1.5 8.5v40l251 363h-219q-12 0 -12 12v41v2q0 4 0.5 5.5t3 3t8.5 1.5h302q6 0 8.5 -1.5t3 -3t0.5 -5.5v-2v-41z" />
    <glyph glyph-name="braceleft" unicode="{" horiz-adv-x="426" 
d="M385 668q0 -12 -12 -12h-19q-31 0 -51 -7t-28.5 -21.5t-11 -28t-2.5 -34.5v-178q0 -43 -13 -71.5t-56 -48.5q43 -20 56 -48.5t13 -71.5v-178q0 -21 2.5 -34.5t11 -28t28.5 -21.5t51 -7h19q12 0 12 -12v-38q0 -12 -12 -12h-22q-166 0 -166 154v178q0 30 -8 49.5t-23.5 27
t-27.5 10t-30 2.5h-21q-12 0 -12 12v36q0 12 12 12h21q18 0 30 2.5t27.5 10t23.5 27t8 49.5v178q0 154 166 154h22q12 0 12 -12v-38z" />
    <glyph glyph-name="bar" unicode="|" horiz-adv-x="304" 
d="M188 738v-976q0 -12 -12 -12h-48q-12 0 -12 12v976q0 12 12 12h48q12 0 12 -12z" />
    <glyph glyph-name="braceright" unicode="}" horiz-adv-x="426" 
d="M41 -172v38q0 12 12 12h19q31 0 51 7t28.5 21.5t11 28t2.5 34.5v178q0 43 13 71.5t56 48.5q-43 20 -56 48.5t-13 71.5v178q0 21 -2.5 34.5t-11 28t-28.5 21.5t-51 7h-19q-12 0 -12 12v38q0 12 12 12h22q166 0 166 -154v-178q0 -30 8 -49.5t23.5 -27t27.5 -10t30 -2.5h21
q12 0 12 -12v-36q0 -12 -12 -12h-21q-18 0 -30 -2.5t-27.5 -10t-23.5 -27t-8 -49.5v-178q0 -154 -166 -154h-22q-12 0 -12 12z" />
    <glyph glyph-name="asciitilde" unicode="~" horiz-adv-x="493" 
d="M428 314l28 -17q1 0 3 -1t3 -2.5t1 -3.5q0 -6 -7 -16q-26 -40 -55 -62.5t-77 -22.5q-43 0 -91 28q-56 34 -87 34q-52 0 -84 -48q-8 -13 -21 -5l-28 17q-7 5 -7 8q0 5 8 18q54 83 131 83q43 0 102 -33q47 -27 64 -29q7 -1 15 -1q47 0 80 47q10 14 22 6z" />
    <glyph glyph-name="uni00A0" unicode="&#xa0;" horiz-adv-x="233" 
 />
    <glyph glyph-name="exclamdown" unicode="&#xa1;" horiz-adv-x="333" 
d="M150 218h32q12 0 12 -13l22 -395q1 -12 -13 -12h-76q-14 0 -13 12l24 395q0 13 12 13zM237 427q0 -29 -20.5 -49.5t-49.5 -20.5t-49.5 20.5t-20.5 49.5t20.5 49.5t49.5 20.5t49.5 -20.5t20.5 -49.5z" />
    <glyph glyph-name="cent" unicode="&#xa2;" 
d="M313 67v-59v-2q0 -4 -0.5 -6t-3.5 -3.5t-10 -1.5h-26q-10 0 -12 2.5t-2 8.5v2v55q-78 4 -127 65q-48 61 -48 176q0 124 49 190q47 63 126 74v53q0 10 3 12t9 2h2h26q10 0 12 -3t2 -9v-2v-53q58 -3 103 -32q15 -10 15 -17q0 -1 -3 -7l-22 -38q-3 -6 -9 -6q-2 0 -15 7
q-38 23 -69 26v-366l10 2q25 5 71 29q7 4 9 4q4 0 7 -6l17 -42q5 -10 -10 -19q-46 -29 -104 -36zM259 133v366q-34 -7 -56 -28.5t-30.5 -53t-10.5 -53t-2 -51.5q0 -32 3 -55t12 -51t30 -47t54 -27z" />
    <glyph glyph-name="sterling" unicode="&#xa3;" 
d="M190 372h137q12 0 12 -12v-41q0 -12 -12 -12h-121l2 -8q16 -64 16 -116q0 -53 -12 -105l-3 -13h270q20 0 12 -16l-17 -39q-4 -10 -15 -10h-413q-12 0 -12 12v41q0 12 12 12h87l2 8q13 52 13 112q0 64 -15 115l-2 7h-92q-12 0 -12 12v41q0 12 12 12h78q-17 61 -17 91
q0 88 54.5 141t150.5 53q71 0 131 -27q25 -11 18 -24l-20 -41q-2 -5 -8 -6h-3q-2 0 -4.5 1.5t-7 3.5t-9.5 4q-52 22 -97 22q-64 0 -96.5 -33.5t-32.5 -79.5q0 -30 10 -84z" />
    <glyph glyph-name="currency" unicode="&#xa4;" horiz-adv-x="491" 
d="M17 118l60 61q-48 60 -48 135t48 135l-60 61q-10 10 0 20l12 12q10 10 20 0l61 -60q60 48 135 48t135 -48l61 60q10 10 20 0l12 -12q10 -10 0 -20l-60 -61q48 -60 48 -135t-48 -135l60 -60q11 -11 0 -21l-12 -12q-10 -10 -20 0l-61 60q-62 -48 -136 -48q-72 0 -134 48
l-61 -60q-10 -10 -20 0l-12 12q-10 10 0 20zM125 194q50 -50 120 -50t120 50t50 120t-50 120t-120 50t-120 -50t-50 -120t50 -120z" />
    <glyph glyph-name="yen" unicode="&#xa5;" 
d="M293 247v-235q0 -12 -12 -12h-58q-12 0 -12 12v235h-184h-4t-3.5 3t-2.5 8v16q0 15 8 16q3 1 7 1h179l-32 66h-150q-12 0 -12 11v16q0 15 8 16q3 1 7 1h126l-122 255q-5 10 -5 12q0 8 10 11l47 14q7 2 13 -1q4 -2 7 -11l122 -263l26 -52l135 317q6 14 19 10l50 -15
q7 0 7 -10q0 -2 -1 -3.5t-2 -4t-2 -4.5l-117 -255h123q11 0 13 -3.5t2 -13.5v-16q0 -11 -12 -11h-147l-31 -66h175q11 0 13 -3.5t2 -13.5v-16q0 -11 -12 -11h-178z" />
    <glyph glyph-name="brokenbar" unicode="&#xa6;" horiz-adv-x="304" 
d="M188 661v-336h-72v336q0 10 2.5 12t8.5 2h2h46q13 0 13 -14zM188 175v-336q0 -7 -1.5 -10t-3 -3.5t-5.5 -0.5h-3h-46h-3h-4.5t-3 1.5t-2 4.5t-0.5 8v336h72z" />
    <glyph glyph-name="section" unicode="&#xa7;" 
d="M387 627l-18 -38q-3 -8 -8 -8h-1q-2 0 -10 5q-52 32 -94 32q-38 0 -58 -19t-20 -43q0 -15 6.5 -27.5t24 -24.5t25.5 -16.5t32 -15.5q5 -3 8 -4q47 -24 68 -37q80 -50 80 -119q0 -89 -100 -147q-3 -2 -19 -10q99 -44 99 -127q0 -64 -50.5 -104t-115.5 -40q-68 0 -137 40
q-26 16 -19 29l20 39q5 8 10 8q2 0 23 -12q64 -37 107 -37q33 0 56.5 19t23.5 51q0 36 -26 58.5t-78 46.5q-25 12 -48 25q-42 24 -66 52t-24 76q0 32 10 57.5t30.5 44.5t31.5 26.5t35 20.5q2 1 5.5 3t5.5 3q-40 16 -67 46.5t-27 71.5q0 50 39.5 91.5t120.5 41.5
q58 0 113 -31q15 -9 15 -18q0 -3 -3 -9zM250 188q96 47 96 111q0 32 -24 56q-17 18 -78 50q-48 -32 -69 -58t-21 -57q0 -34 25 -59q20 -20 71 -43z" />
    <glyph glyph-name="dieresis" unicode="&#xa8;" 
d="M205 629q0 -21 -15.5 -37t-37.5 -16t-37.5 15.5t-15.5 37.5t15.5 37.5t37.5 15.5t37.5 -16t15.5 -37zM296 629q0 22 15.5 37.5t37.5 15.5t37.5 -15.5t15.5 -37.5t-15.5 -37.5t-37.5 -15.5t-37.5 15.5t-15.5 37.5z" />
    <glyph glyph-name="copyright" unicode="&#xa9;" horiz-adv-x="707" 
d="M673 343q0 -147 -93.5 -251.5t-225.5 -104.5t-226 104.5t-94 250.5q0 150 94 253.5t230 103.5q129 0 222 -105t93 -251zM620 342q0 129 -78 218t-191 89q-109 0 -186.5 -90t-77.5 -216q0 -127 78.5 -216.5t188.5 -89.5t188 89.5t78 215.5zM462 181q0 -17 -37.5 -34.5
t-72.5 -17.5q-73 0 -111 56t-38 162q0 209 145 209q35 0 73 -17t38 -33q0 -6 -3 -9l-18 -22q-3 -5 -10 -5q-5 0 -26 14q-28 19 -53 19q-40 0 -58 -36t-18 -115q0 -170 81 -170q27 0 67 29q8 5 12 5q6 0 10 -7l16 -19q3 -3 3 -9z" />
    <glyph glyph-name="ordfeminine" unicode="&#xaa;" horiz-adv-x="426" 
d="M335 340l-30 -18q-16 -9 -28 14q-6 11 -11 25q-40 -43 -100 -43q-41 0 -65.5 24.5t-24.5 66.5q0 86 93 112q32 9 89 11v18q0 24 -12 36q-14 14 -49 14q-32 0 -72 -16q-12 -5 -13 -5q-5 0 -7 7l-9 31q-2 6 -2 8q0 3 3 6t6.5 4.5l8 3.5t5.5 2q48 16 93 16q67 0 93 -30
q18 -22 18 -65v-145q0 -34 14 -55q6 -9 6 -12q0 -7 -6 -10zM258 403v80q-34 2 -62 -7q-53 -16 -53 -62q0 -19 11 -31.5t30 -12.5q35 0 74 33z" />
    <glyph glyph-name="guillemotleft" unicode="&#xab;" horiz-adv-x="480" 
d="M117 239l130 -193q3 -6 3 -7q0 -5 -6 -8l-33 -19q-4 -2 -5 -2q-3 0 -11 8l-168 211q-5 5 -5 10t5 10l168 211q8 8 11 8q1 0 5 -2l33 -19q6 -3 6 -8q0 -1 -3 -7zM302 239l130 -193q3 -6 3 -7q0 -5 -6 -8l-33 -19q-4 -2 -5 -2q-3 0 -11 8l-168 211q-5 5 -5 10t5 10l168 211
q8 8 11 8q1 0 5 -2l33 -19q6 -3 6 -8q0 -1 -3 -7z" />
    <glyph glyph-name="logicalnot" unicode="&#xac;" 
d="M405 286h-371q-12 0 -12 12v48q0 12 12 12h431q12 0 12 -12v-185q0 -12 -12 -12h-48q-12 0 -12 12v125z" />
    <glyph glyph-name="uni00AD" unicode="&#xad;" horiz-adv-x="352" 
d="M51 226v51q0 12 12 12h226q12 0 12 -12v-51q0 -12 -12 -12h-226q-12 0 -12 12z" />
    <glyph glyph-name="registered" unicode="&#xae;" horiz-adv-x="492" 
d="M40 461q0 85 60.5 145.5t145.5 60.5t145.5 -60.5t60.5 -145.5t-60.5 -145.5t-145.5 -60.5t-145.5 60.5t-60.5 145.5zM84 461q0 -67 47.5 -114.5t114.5 -47.5t114.5 47.5t47.5 114.5t-47.5 114.5t-114.5 47.5t-114.5 -47.5t-47.5 -114.5zM188 576h69q28 0 47 -16t19 -46
q0 -37 -38 -60l53 -87q8 -13 -3 -15l-27 -3q-9 -1 -15 9l-53 91h-18v-88q0 -10 -10 -10h-24q-10 0 -10 10v205q0 10 10 10zM222 544v-63h23q34 0 34 33q0 30 -34 30h-23z" />
    <glyph glyph-name="macron" unicode="&#xaf;" 
d="M127 610v38q0 12 12 12h221q12 0 12 -12v-38q0 -12 -12 -12h-221q-12 0 -12 12z" />
    <glyph glyph-name="degree" unicode="&#xb0;" 
d="M404 531q0 -64 -45.5 -109t-108.5 -45q-64 0 -109.5 45t-45.5 109t45.5 109t109.5 45q63 0 108.5 -45t45.5 -109zM249 440q38 0 65 26.5t27 64.5t-27 64.5t-65 26.5t-64.5 -26.5t-26.5 -64.5t26.5 -64.5t64.5 -26.5z" />
    <glyph glyph-name="plusminus" unicode="&#xb1;" 
d="M285 290h180q12 0 12 -12v-48q0 -12 -12 -12h-180v-146q0 -12 -12 -12h-48q-12 0 -12 12v146h-179q-12 0 -12 12v48q0 12 12 12h179v178q0 12 12 12h48q12 0 12 -12v-178zM477 9v-47q0 -12 -12 -12h-431q-12 0 -12 12v47q0 13 12 13h431q12 0 12 -13z" />
    <glyph glyph-name="twosuperior" unicode="&#xb2;" horiz-adv-x="352" 
d="M298 299v-26q0 -18 -19 -18h-207q-18 0 -18 16v5q0 64 28 110q24 39 86 82l31 22q31 21 31 54q0 25 -13.5 39t-35.5 14q-45 0 -62 -51l-2 -6q-5 -14 -22 -9l-27 7q-13 3 -13 14q0 5 2 11l5 13q6 15 16 29t38 30t65 16q63 0 90 -32t27 -72q0 -38 -23 -69q-5 -7 -11 -13.5
t-15.5 -13.5t-12.5 -9.5t-17 -11.5l-14 -10l-28 -19q-20 -14 -35 -36.5t-17 -47.5h154q19 0 19 -18z" />
    <glyph glyph-name="threesuperior" unicode="&#xb3;" horiz-adv-x="352" 
d="M103 444v27q0 15 13 15h24q40 0 59.5 19t19.5 44q0 21 -16 34.5t-42 13.5q-31 0 -64 -26q-12 -9 -16 -10h-3q-1 1 -2.5 2t-2.5 2l-24 18q-4 3 -4 8q0 6 10 16q44 44 111 44q51 0 83.5 -28t32.5 -69q0 -25 -13.5 -49t-34.5 -35l-7 -4q69 -26 69 -99q0 -52 -39 -86
t-108 -34q-52 0 -91 14q-28 9 -20 26l13 26q5 8 9 8l12 -4q38 -16 78 -16q37 0 57.5 17.5t20.5 49.5q0 34 -24 51q-19 14 -64 14h-24q-13 0 -13 11z" />
    <glyph glyph-name="acute" unicode="&#xb4;" 
d="M365 700l29 -43q4 -8 4 -9q0 -4 -9 -10l-166 -86q-4 -2 -7 -2t-7 4l-13 19q-4 5 -4 8q0 5 4 7l149 115q7 5 10 5q5 0 10 -8z" />
    <glyph glyph-name="mu" unicode="&#xb5;" horiz-adv-x="604" 
d="M421 486v-361q0 -46 16 -77q3 -7 7 -13t5.5 -9t1.5 -4q0 -4 -6 -7l-42 -26l-10 -2t-14.5 13.5t-20.5 44.5q-38 -31 -65.5 -45t-63.5 -14q-44 0 -80 28v-198q0 -10 -8 -12l-48 -12q-20 -6 -20 9v667q0 10 7 12l54 13q4 1 8 1q7 0 7 -9v-351q0 -45 23.5 -63t53.5 -18
q55 0 119 51v364q0 10 7 12l54 13q4 1 8 1q7 0 7 -8z" />
    <glyph glyph-name="paragraph" unicode="&#xb6;" horiz-adv-x="611" 
d="M501 620v-794q0 -12 -12 -12h-45q-12 0 -12 12v794h-64v-794q0 -12 -12 -12h-45q-12 0 -12 12v348l-16 -2q-32 -5 -58 -5q-33 0 -62 10t-59 35.5t-47.5 80t-17.5 133.5q0 140 66 206q32 32 73.5 42.5t108.5 10.5h283q12 0 12 -12v-41q0 -12 -12 -12h-69zM299 238v382h-23
q-26 0 -39 -0.5t-34 -7.5t-36 -21q-41 -38 -41 -162q0 -31 1.5 -53.5t9 -51.5t20.5 -47.5t37.5 -31.5t58.5 -13q16 0 46 6z" />
    <glyph glyph-name="periodcentered" unicode="&#xb7;" horiz-adv-x="240" 
d="M182 254q0 -26 -18.5 -44t-43.5 -18q-26 0 -44 18.5t-18 43.5t18 43.5t44 18.5t44 -18t18 -44z" />
    <glyph glyph-name="cedilla" unicode="&#xb8;" 
d="M257 1l-5 -55q22 0 43 -9q34 -16 34 -55q0 -37 -28 -58.5t-75 -21.5q-23 0 -46 7q-15 6 -14 12l5 38q0 5 5 5l8 -2q3 -1 4 -1q13 -5 39 -5q41 0 41 23q0 20 -40 22l-18 1q-12 1 -16 6.5t-2 25.5l7 67h58z" />
    <glyph glyph-name="onesuperior" unicode="&#xb9;" horiz-adv-x="352" 
d="M294 297v-30q0 -12 -11 -12h-179q-7 0 -11 2.5t-4 4v4.5v32v3t1.5 3.5t4.5 3.5t9 1h61v265l-83 -42q-12 -6 -19 4l-9 14q-8 12 5 20l119 73h34q6 0 8 -0.5t5 -4t3 -10.5v-319h51q15 0 15 -12z" />
    <glyph glyph-name="ordmasculine" unicode="&#xba;" horiz-adv-x="407" 
d="M338 489q0 -88 -39.5 -129.5t-98.5 -41.5q-55 0 -93 40t-38 127q0 51 13.5 87.5t35.5 53.5t43.5 24t44.5 7q56 0 94 -40.5t38 -127.5zM204 370q67 0 67 120q0 115 -67 115q-68 0 -68 -113q0 -122 68 -122z" />
    <glyph glyph-name="guillemotright" unicode="&#xbb;" horiz-adv-x="480" 
d="M177 239l-130 193q-3 6 -3 7q0 5 6 8l33 19q4 2 5 2q3 0 11 -8l168 -211q5 -5 5 -10t-5 -10l-168 -211q-8 -8 -11 -8q-1 0 -5 2l-33 19q-6 3 -6 8q0 1 3 7zM362 239l-130 193q-3 6 -3 7q0 5 6 8l33 19q4 2 5 2q3 0 11 -8l168 -211q5 -5 5 -10t-5 -10l-168 -211
q-8 -8 -11 -8q-1 0 -5 2l-33 19q-6 3 -6 8q0 1 3 7z" />
    <glyph glyph-name="onequarter" unicode="&#xbc;" horiz-adv-x="833" 
d="M492 657h42q18 0 11 -17l-200 -644q-3 -10 -18 -10h-38q-11 0 -13 4.5t2 11.5l199 645q3 10 15 10zM299 294v-24v-2q0 -4 -0.5 -6.5t-4 -4.5t-10.5 -2h-175q-7 0 -10.5 2t-4 4.5t-0.5 6.5v2v24q0 13 9 15h6h61v265l-83 -42q-2 -1 -14 -1q-2 0 -3.5 2.5t-1.5 3.5l-9 13
q-9 12 5 20l119 73h37q13 0 13 -15v-319h51h5.5t4.5 -1.5t4 -4.5t1 -9zM707 76v-75v-2q0 -4 -0.5 -6.5t-4 -4.5t-10.5 -2h-31q-8 0 -12 2t-4.5 4t-0.5 7v2v75h-165q-11 0 -11 12v38l172 250q6 9 22 7l30 -4q12 -1 12 -10q0 -4 -5 -11l-160 -230h105l7 87q0 7 4 11q3 3 7 3
h33q12 0 12 -12v-89h47q7 0 10.5 -2t4 -4.5t0.5 -6.5v-2v-22v-2q0 -4 -0.5 -6.5t-4 -4.5t-10.5 -2h-47z" />
    <glyph glyph-name="onehalf" unicode="&#xbd;" horiz-adv-x="833" 
d="M496 657h42q18 0 11 -17l-200 -644q-3 -10 -16 -10h-40q-11 0 -13 4.5t2 11.5l199 645q3 10 15 10zM303 297v-30q0 -12 -11 -12h-179q-7 0 -11 2.5t-4 4v4.5v32v3t1.5 3.5t4.5 3.5t9 1h61v265l-83 -42q-12 -6 -19 4l-9 14q-8 12 5 20l119 73h34q6 0 8 -0.5t5 -4t3 -10.5
v-319h51q15 0 15 -12zM761 44v-26q0 -18 -19 -18h-207q-18 0 -18 16v5q0 64 28 110q24 39 86 82l31 22q31 21 31 54q0 25 -13.5 39t-35.5 14q-45 0 -62 -51l-2 -6q-5 -14 -22 -9l-27 7q-13 3 -13 14q0 5 2 11l5 13q6 15 16 29t38 30t65 16q63 0 90 -32t27 -72q0 -38 -23 -69
q-5 -7 -11 -13.5t-15.5 -13.5t-12.5 -9.5t-17 -12.5l-14 -9l-28 -19q-20 -14 -35 -36.5t-17 -47.5h154q19 0 19 -18z" />
    <glyph glyph-name="threequarters" unicode="&#xbe;" horiz-adv-x="833" 
d="M508 657h42q17 0 11 -17l-200 -644q-3 -10 -18 -10h-38q-9 0 -11 2t0 14l199 645q3 10 15 10zM120 444v27q0 15 13 15h24q40 0 59.5 19t19.5 44q0 21 -16 34.5t-42 13.5q-32 0 -64 -26q-12 -9 -16 -10h-3q-1 1 -2.5 2t-2.5 2l-24 18q-4 3 -4 8q0 6 10 16q44 44 111 44
q51 0 83.5 -28t32.5 -69q0 -58 -55 -88q69 -26 69 -99q0 -52 -39 -86t-108 -34q-52 0 -91 14q-28 9 -20 26l13 26q5 8 9 8q1 0 2.5 -0.5t2.5 -1t3 -1t4 -1.5q38 -16 78 -16q37 0 57.5 17.5t20.5 49.5q0 34 -24 51q-19 14 -64 14h-24q-13 0 -13 11zM723 76v-75v-2
q0 -4 -0.5 -6.5t-4 -4.5t-10.5 -2h-31q-8 0 -12 2t-4.5 4t-0.5 7v2v75h-165q-11 0 -11 12v38l172 250q6 9 22 7l30 -4q12 -1 12 -10q0 -4 -5 -11l-160 -230h105l7 87q0 14 11 14h33q12 0 12 -12v-89h47q7 0 10.5 -2t4 -4.5t0.5 -6.5v-2v-22v-2q0 -4 -0.5 -6.5t-4 -4.5
t-10.5 -2h-47z" />
    <glyph glyph-name="questiondown" unicode="&#xbf;" horiz-adv-x="449" 
d="M214 120v92q0 12 12 12h44q12 0 12 -12v-117q0 -17 -3.5 -21t-19.5 -8q-22 -6 -38 -12.5t-36 -19.5t-31 -34t-11 -49q0 -44 26.5 -69t71.5 -25q56 0 110 27q9 3 10 3q7 0 9 -7l15 -38q2 -6 2 -9q0 -5 -21 -15q-58 -28 -130 -28q-88 0 -131.5 44.5t-43.5 113.5
q0 139 153 172zM176 433q0 29 21 49.5t49 20.5t49 -20.5t21 -49.5t-21 -49.5t-49 -20.5t-49 20.5t-21 49.5z" />
    <glyph glyph-name="Agrave" unicode="&#xc0;" horiz-adv-x="554" 
d="M171 204l-51 -192q-3 -9 -8 -11q-3 -1 -10 -1h-65q-5 0 -6.5 0.5t-3.5 3t1 8.5l203 662q4 11 15 11h59q11 0 15 -11l204 -662q3 -8 -2 -11q-2 -1 -10 -1h-66q-11 0 -14 11l-56 193h-205zM357 274l-60 221q-14 50 -23 95h-2q-7 -49 -21 -95l-61 -221h167zM191 878
l164 -102q5 -2 5 -6q0 -3 -2 -6l-13 -24q-3 -4 -7 -4q-1 0 -3 0.5t-4.5 1.5t-3.5 1l-172 69q-11 4 -11 10q0 4 3 9l29 50q3 4 7 4q2 0 8 -3z" />
    <glyph glyph-name="Aacute" unicode="&#xc1;" horiz-adv-x="554" 
d="M171 204l-51 -192q-3 -9 -8 -11q-3 -1 -10 -1h-65q-5 0 -6.5 0.5t-3.5 3t1 8.5l203 662q4 11 15 11h59q11 0 15 -11l204 -662q3 -8 -2 -11q-2 -1 -10 -1h-66q-11 0 -14 11l-56 193h-205zM357 274l-60 221q-14 50 -23 95h-2q-7 -49 -21 -95l-61 -221h167zM193 776l164 102
q6 3 8 3q4 0 7 -4l29 -50q3 -5 3 -9q0 -6 -11 -10l-172 -69q-1 0 -5 -1.5t-6 -1.5q-4 0 -7 4l-13 24q-2 3 -2 6q0 4 5 6z" />
    <glyph glyph-name="Acircumflex" unicode="&#xc2;" horiz-adv-x="554" 
d="M171 204l-51 -192q-3 -9 -8 -11q-3 -1 -10 -1h-65q-5 0 -6.5 0.5t-3.5 3t1 8.5l203 662q4 11 15 11h59q11 0 15 -11l204 -662q3 -8 -2 -11q-2 -1 -10 -1h-66q-11 0 -14 11l-56 193h-205zM357 274l-60 221q-14 50 -23 95h-2q-7 -49 -21 -95l-61 -221h167zM277 799l-98 -52
q-7 -4 -10 -4q-2 0 -6 4l-16 20q0 1 -1.5 2t-2 2.5t-0.5 3.5q0 6 8 10l111 77q9 6 15 6t15 -6l111 -77q8 -4 8 -10l-4 -8l-16 -20q-4 -4 -6 -4q-3 0 -10 4z" />
    <glyph glyph-name="Atilde" unicode="&#xc3;" horiz-adv-x="554" 
d="M171 204l-51 -192q-3 -9 -8 -11q-3 -1 -10 -1h-65q-5 0 -6.5 0.5t-3.5 3t1 8.5l203 662q4 11 15 11h59q11 0 15 -11l204 -662q3 -8 -2 -11q-2 -1 -10 -1h-66q-11 0 -14 11l-56 193h-205zM357 274l-60 221q-14 50 -23 95h-2q-7 -49 -21 -95l-61 -221h167zM157 757l-31 12
q-5 3 -5 7q0 3 10 22q18 31 41 46q20 12 43 12t57 -17q46 -23 58 -23q20 0 40 24q1 2 3 5t3.5 4.5l3 3t3.5 1.5t8 -2l31 -12q5 -2 5 -7q0 -3 -10 -22q-18 -31 -41 -46q-19 -12 -43 -12q-25 0 -57 17q-46 23 -58 23q-24 0 -40 -24q-1 -2 -3 -5t-3.5 -4.5l-3 -3t-3.5 -1.5
t-8 2z" />
    <glyph glyph-name="Adieresis" unicode="&#xc4;" horiz-adv-x="554" 
d="M171 204l-51 -192q-3 -9 -8 -11q-3 -1 -10 -1h-65q-5 0 -6.5 0.5t-3.5 3t1 8.5l203 662q4 11 15 11h59q11 0 15 -11l204 -662q3 -8 -2 -11q-2 -1 -10 -1h-66q-11 0 -14 11l-56 193h-205zM357 274l-60 221q-14 50 -23 95h-2q-7 -49 -21 -95l-61 -221h167zM120 805
q0 24 15.5 39.5t39.5 15.5t39.5 -15.5t15.5 -39.5t-15.5 -39.5t-39.5 -15.5t-39.5 15.5t-15.5 39.5zM322 805q0 24 15.5 39.5t39.5 15.5t39.5 -15.5t15.5 -39.5t-15.5 -39.5t-39.5 -15.5t-39.5 15.5t-15.5 39.5z" />
    <glyph glyph-name="Aring" unicode="&#xc5;" horiz-adv-x="554" 
d="M171 204l-51 -192q-3 -9 -8 -11q-3 -1 -10 -1h-65q-5 0 -6.5 0.5t-3.5 3t1 8.5l203 662q4 11 15 11h59q11 0 15 -11l204 -662q3 -8 -2 -11q-2 -1 -10 -1h-66q-11 0 -14 11l-56 193h-205zM357 274l-60 221q-14 50 -23 95h-2q-7 -49 -21 -95l-61 -221h167zM190 822
q0 38 26 64t64 26t64 -26t26 -64t-26 -64t-64 -26t-64 26t-26 64zM236 822q0 -18 13 -31t31 -13t31 13t13 31t-13 31t-31 13t-31 -13t-13 -31z" />
    <glyph glyph-name="AE" unicode="&#xc6;" horiz-adv-x="739" 
d="M453 323v-253h240q12 0 12 -12v-46q0 -12 -12 -12h-310q-12 0 -12 12v195h-183l-84 -192q-6 -15 -18 -15h-67q-10 0 -10 6l5 12l309 647q9 20 24 20h350q14 0 10 -10l-17 -51q-2 -9 -13 -9h-224v-222h197q12 0 12 -12v-46q0 -12 -12 -12h-197zM371 274v352h-2
q-13 -45 -46 -117l-106 -235h154z" />
    <glyph glyph-name="Ccedilla" unicode="&#xc7;" horiz-adv-x="467" 
d="M432 613l-27 -35q-5 -5 -7 -5q-3 0 -18 13q-52 46 -105 46q-28 0 -49.5 -11t-35.5 -26t-23.5 -41t-14.5 -46t-7 -51t-2.5 -45.5t-0.5 -39.5q0 -319 142 -319q43 0 102 46q15 12 19 12q5 0 8 -5l25 -32q4 -4 4 -11q0 -9 -13 -19q-55 -52 -133 -57l-4 -43q25 0 45 -10
q32 -17 32 -54q0 -44 -37 -66q-26 -16 -69 -16q-26 0 -44 6q-14 4 -16.5 8t0.5 12l5 31q0 7 7 7q1 0 3 -0.5t5 -1.5l6 -2q26 -6 39 -6q39 0 39 25q0 20 -38 22l-19 1q-9 1 -11.5 1t-7.5 3.5t-3 9.5t1 19l7 57q-184 42 -184 359q0 350 218 350q40 0 82 -15.5t70 -42.5
q13 -10 13 -21q0 -4 -3 -7z" />
    <glyph glyph-name="Egrave" unicode="&#xc8;" horiz-adv-x="483" 
d="M429 58v-46q0 -12 -12 -12h-310q-12 0 -12 12v661q0 12 12 12h314q14 0 10 -10l-17 -51q-2 -9 -13 -9h-224v-222h197q12 0 12 -12v-46q0 -12 -12 -12h-197v-253h240q12 0 12 -12zM151 878l164 -102q5 -2 5 -6q0 -3 -2 -6l-13 -24q-3 -4 -7 -4q-1 0 -3 0.5t-4.5 1.5
t-3.5 1l-172 69q-11 4 -11 10q0 4 3 9l29 50q3 4 7 4q2 0 8 -3z" />
    <glyph glyph-name="Eacute" unicode="&#xc9;" horiz-adv-x="483" 
d="M429 58v-46q0 -12 -12 -12h-310q-12 0 -12 12v661q0 12 12 12h314q14 0 10 -10l-17 -51q-2 -9 -13 -9h-224v-222h197q12 0 12 -12v-46q0 -12 -12 -12h-197v-253h240q12 0 12 -12zM243 776l164 102q6 3 8 3q4 0 7 -4l29 -50q3 -5 3 -9q0 -6 -11 -10l-172 -69q-1 0 -5 -1.5
t-6 -1.5q-4 0 -7 4l-13 24q-2 3 -2 6q0 4 5 6z" />
    <glyph glyph-name="Ecircumflex" unicode="&#xca;" horiz-adv-x="483" 
d="M429 58v-46q0 -12 -12 -12h-310q-12 0 -12 12v661q0 12 12 12h314q14 0 10 -10l-17 -51q-2 -9 -13 -9h-224v-222h197q12 0 12 -12v-46q0 -12 -12 -12h-197v-253h240q12 0 12 -12zM267 799l-98 -52q-7 -4 -10 -4q-2 0 -6 4l-16 20q0 1 -1.5 2t-2 2.5t-0.5 3.5q0 6 8 10
l111 77q9 6 15 6t15 -6l111 -77q8 -4 8 -10l-4 -8l-16 -20q-4 -4 -6 -4q-3 0 -10 4z" />
    <glyph glyph-name="Edieresis" unicode="&#xcb;" horiz-adv-x="483" 
d="M429 58v-46q0 -12 -12 -12h-310q-12 0 -12 12v661q0 12 12 12h314q14 0 10 -10l-17 -51q-2 -9 -13 -9h-224v-222h197q12 0 12 -12v-46q0 -12 -12 -12h-197v-253h240q12 0 12 -12zM104 805q0 24 15.5 39.5t39.5 15.5t39.5 -15.5t15.5 -39.5t-15.5 -39.5t-39.5 -15.5
t-39.5 15.5t-15.5 39.5zM306 805q0 24 15.5 39.5t39.5 15.5t39.5 -15.5t15.5 -39.5t-15.5 -39.5t-39.5 -15.5t-39.5 15.5t-15.5 39.5z" />
    <glyph glyph-name="Igrave" unicode="&#xcc;" horiz-adv-x="374" 
d="M228 65h91q12 0 12 -12v-41q0 -12 -12 -12h-264q-12 0 -12 12v41q0 12 12 12h91v555h-91q-12 0 -12 12v41q0 12 12 12h264q12 0 12 -12v-41q0 -12 -12 -12h-91v-555zM91 878l164 -102q5 -2 5 -6q0 -3 -2 -6l-13 -24q-3 -4 -7 -4q-1 0 -3 0.5t-4.5 1.5t-3.5 1l-172 69
q-11 4 -11 10q0 4 3 9l29 50q3 4 7 4q2 0 8 -3z" />
    <glyph glyph-name="Iacute" unicode="&#xcd;" horiz-adv-x="374" 
d="M228 65h91q12 0 12 -12v-41q0 -12 -12 -12h-264q-12 0 -12 12v41q0 12 12 12h91v555h-91q-12 0 -12 12v41q0 12 12 12h264q12 0 12 -12v-41q0 -12 -12 -12h-91v-555zM113 776l164 102q6 3 8 3q4 0 7 -4l29 -50q3 -5 3 -9q0 -6 -11 -10l-172 -69q-1 0 -5 -1.5t-6 -1.5
q-4 0 -7 4l-13 24q-2 3 -2 6q0 4 5 6z" />
    <glyph glyph-name="Icircumflex" unicode="&#xce;" horiz-adv-x="374" 
d="M228 65h91q12 0 12 -12v-41q0 -12 -12 -12h-264q-12 0 -12 12v41q0 12 12 12h91v555h-91q-12 0 -12 12v41q0 12 12 12h264q12 0 12 -12v-41q0 -12 -12 -12h-91v-555zM185 799l-98 -52q-7 -4 -10 -4q-2 0 -6 4l-16 20q0 1 -1.5 2t-2 2.5t-0.5 3.5q0 6 8 10l111 77
q9 6 15 6t15 -6l111 -77q8 -4 8 -10l-4 -8l-16 -20q-4 -4 -6 -4q-3 0 -10 4z" />
    <glyph glyph-name="Idieresis" unicode="&#xcf;" horiz-adv-x="374" 
d="M228 65h91q12 0 12 -12v-41q0 -12 -12 -12h-264q-12 0 -12 12v41q0 12 12 12h91v555h-91q-12 0 -12 12v41q0 12 12 12h264q12 0 12 -12v-41q0 -12 -12 -12h-91v-555zM31 805q0 24 15.5 39.5t39.5 15.5t39.5 -15.5t15.5 -39.5t-15.5 -39.5t-39.5 -15.5t-39.5 15.5
t-15.5 39.5zM233 805q0 24 15.5 39.5t39.5 15.5t39.5 -15.5t15.5 -39.5t-15.5 -39.5t-39.5 -15.5t-39.5 15.5t-15.5 39.5z" />
    <glyph glyph-name="Eth" unicode="&#xd0;" horiz-adv-x="556" 
d="M109 685h126q77 0 130.5 -19.5t88.5 -76.5q50 -82 50 -240q0 -148 -40 -226q-21 -40 -49.5 -66t-62.5 -37.5t-62.5 -15.5t-65.5 -4h-115q-12 0 -12 12v312h-62h-2q-4 0 -6 0.5t-3.5 3.5t-1.5 10v38q6 12 13 13h62v284q0 12 12 12zM179 70h62q107 0 147 92q26 59 26 186
q0 177 -56 229q-41 38 -124 38h-55v-226h120q7 0 10 -1.5t3.5 -3t0.5 -5.5v-3v-38v-2q0 -4 -0.5 -6t-3.5 -4t-10 -2h-120v-254z" />
    <glyph glyph-name="Ntilde" unicode="&#xd1;" horiz-adv-x="589" 
d="M499 673v-661q0 -12 -12 -12h-56q-12 0 -16 10l-230 494q-12 24 -26 85h-3q10 -56 10 -89v-488q0 -12 -12 -12h-52q-12 0 -12 12v661q0 12 12 12h68q11 0 15 -9l219 -462q10 -19 26 -85h3q-10 56 -10 89v455q0 12 12 12h52q12 0 12 -12zM183 757l-31 12q-5 3 -5 7
q0 3 10 22q18 31 41 46q20 12 43 12t57 -17q46 -23 58 -23q20 0 40 24q1 2 3 5t3.5 4.5l3 3t3.5 1.5t8 -2l31 -12q5 -2 5 -7q0 -3 -10 -22q-18 -31 -41 -46q-19 -12 -43 -12q-25 0 -57 17q-46 23 -58 23q-24 0 -40 -24q-1 -2 -3 -5t-3.5 -4.5l-3 -3t-3.5 -1.5t-8 2z" />
    <glyph glyph-name="Ograve" unicode="&#xd2;" horiz-adv-x="556" 
d="M278 -14q-32 0 -60 7.5t-59.5 30.5t-54 60.5t-37.5 104t-15 154.5q0 30 1.5 55t7.5 71.5t21 82.5t38.5 71.5t64 55.5t93.5 20q31 0 59 -7t59.5 -30.5t54.5 -60.5t38 -103.5t15 -154.5t-15 -154.5t-38 -104t-55 -61t-59.5 -30.5t-58.5 -7zM278 53q28 0 50.5 11t36.5 26.5
t24 42.5t14.5 48t7.5 54.5t3 50v46.5v11q0 49 -2 83t-9.5 76t-21.5 68t-40 44t-63 18q-28 0 -50.5 -11.5t-36.5 -27t-24 -43t-14.5 -49t-7 -54.5t-3 -50t-0.5 -47v-7q0 -133 18 -190q30 -100 118 -100zM191 878l164 -102q5 -2 5 -6q0 -3 -2 -6l-13 -24q-3 -4 -7 -4
q-1 0 -3 0.5t-4.5 1.5t-3.5 1l-172 69q-11 4 -11 10q0 4 3 9l29 50q3 4 7 4q2 0 8 -3z" />
    <glyph glyph-name="Oacute" unicode="&#xd3;" horiz-adv-x="556" 
d="M278 -14q-32 0 -60 7.5t-59.5 30.5t-54 60.5t-37.5 104t-15 154.5q0 30 1.5 55t7.5 71.5t21 82.5t38.5 71.5t64 55.5t93.5 20q31 0 59 -7t59.5 -30.5t54.5 -60.5t38 -103.5t15 -154.5t-15 -154.5t-38 -104t-55 -61t-59.5 -30.5t-58.5 -7zM278 53q28 0 50.5 11t36.5 26.5
t24 42.5t14.5 48t7.5 54.5t3 50v46.5v11q0 49 -2 83t-9.5 76t-21.5 68t-40 44t-63 18q-28 0 -50.5 -11.5t-36.5 -27t-24 -43t-14.5 -49t-7 -54.5t-3 -50t-0.5 -47v-7q0 -133 18 -190q30 -100 118 -100zM213 776l164 102q6 3 8 3q4 0 7 -4l29 -50q3 -5 3 -9q0 -6 -11 -10
l-172 -69q-1 0 -5 -1.5t-6 -1.5q-4 0 -7 4l-13 24q-2 3 -2 6q0 4 5 6z" />
    <glyph glyph-name="Ocircumflex" unicode="&#xd4;" horiz-adv-x="556" 
d="M278 -14q-32 0 -60 7.5t-59.5 30.5t-54 60.5t-37.5 104t-15 154.5q0 30 1.5 55t7.5 71.5t21 82.5t38.5 71.5t64 55.5t93.5 20q31 0 59 -7t59.5 -30.5t54.5 -60.5t38 -103.5t15 -154.5t-15 -154.5t-38 -104t-55 -61t-59.5 -30.5t-58.5 -7zM278 53q28 0 50.5 11t36.5 26.5
t24 42.5t14.5 48t7.5 54.5t3 50v46.5v11q0 49 -2 83t-9.5 76t-21.5 68t-40 44t-63 18q-28 0 -50.5 -11.5t-36.5 -27t-24 -43t-14.5 -49t-7 -54.5t-3 -50t-0.5 -47v-7q0 -133 18 -190q30 -100 118 -100zM277 799l-98 -52q-7 -4 -10 -4q-2 0 -6 4l-16 20q0 1 -1.5 2t-2 2.5
t-0.5 3.5q0 6 8 10l111 77q9 6 15 6t15 -6l111 -77q8 -4 8 -10l-4 -8l-16 -20q-4 -4 -6 -4q-3 0 -10 4z" />
    <glyph glyph-name="Otilde" unicode="&#xd5;" horiz-adv-x="556" 
d="M278 -14q-32 0 -60 7.5t-59.5 30.5t-54 60.5t-37.5 104t-15 154.5q0 30 1.5 55t7.5 71.5t21 82.5t38.5 71.5t64 55.5t93.5 20q31 0 59 -7t59.5 -30.5t54.5 -60.5t38 -103.5t15 -154.5t-15 -154.5t-38 -104t-55 -61t-59.5 -30.5t-58.5 -7zM278 53q28 0 50.5 11t36.5 26.5
t24 42.5t14.5 48t7.5 54.5t3 50v46.5v11q0 49 -2 83t-9.5 76t-21.5 68t-40 44t-63 18q-28 0 -50.5 -11.5t-36.5 -27t-24 -43t-14.5 -49t-7 -54.5t-3 -50t-0.5 -47v-7q0 -133 18 -190q30 -100 118 -100zM163 757l-31 12q-5 3 -5 7q0 3 10 22q18 31 41 46q19 12 43 12
q23 0 57 -17q46 -23 58 -23q20 0 40 24q1 2 3 5t3.5 4.5l3 3t3.5 1.5t8 -2l31 -12q5 -2 5 -7q0 -3 -10 -22q-18 -31 -41 -46q-20 -12 -43 -12q-25 0 -57 17q-46 23 -58 23q-24 0 -40 -24q-1 -2 -3 -5t-3.5 -4.5l-3 -3t-3.5 -1.5t-8 2z" />
    <glyph glyph-name="Odieresis" unicode="&#xd6;" horiz-adv-x="556" 
d="M278 -14q-32 0 -60 7.5t-59.5 30.5t-54 60.5t-37.5 104t-15 154.5q0 30 1.5 55t7.5 71.5t21 82.5t38.5 71.5t64 55.5t93.5 20q31 0 59 -7t59.5 -30.5t54.5 -60.5t38 -103.5t15 -154.5t-15 -154.5t-38 -104t-55 -61t-59.5 -30.5t-58.5 -7zM278 53q28 0 50.5 11t36.5 26.5
t24 42.5t14.5 48t7.5 54.5t3 50v46.5v11q0 49 -2 83t-9.5 76t-21.5 68t-40 44t-63 18q-28 0 -50.5 -11.5t-36.5 -27t-24 -43t-14.5 -49t-7 -54.5t-3 -50t-0.5 -47v-7q0 -133 18 -190q30 -100 118 -100zM124 805q0 24 15.5 39.5t39.5 15.5t39.5 -15.5t15.5 -39.5t-15.5 -39.5
t-39.5 -15.5t-39.5 15.5t-15.5 39.5zM326 805q0 24 15.5 39.5t39.5 15.5t39.5 -15.5t15.5 -39.5t-15.5 -39.5t-39.5 -15.5t-39.5 15.5t-15.5 39.5z" />
    <glyph glyph-name="multiply" unicode="&#xd7;" horiz-adv-x="496" 
d="M247 302l128 128q4 4 5 4q8 0 12 -4l34 -34q4 -4 4 -12q0 -1 -4 -5l-128 -128l128 -127q8 -8 0 -17l-34 -34q-4 -4 -12 -4q-1 0 -5 4l-128 127l-126 -126q-9 -8 -17 0l-34 34q-8 8 0 17l127 126l-126 126q-5 5 -5 6q0 6 5 11l34 34q9 8 17 0z" />
    <glyph glyph-name="Oslash" unicode="&#xd8;" horiz-adv-x="556" 
d="M491 705l-48 -94q35 -59 48 -118.5t13 -149.5q0 -88 -15 -154.5t-37.5 -104t-54.5 -60.5t-60 -30.5t-59 -7.5q-82 0 -133 48l-34 -66l-1 -1l-2 -3q-2 -4 -6 -5h-4l-6 3l-29 14q-12 7 -8 15l49 96q-28 53 -40 109.5t-12 146.5q0 26 0.5 47t5.5 60t13 69t25 65.5t40 59
t59.5 39.5t82.5 16q73 0 121 -39l36 68l1 2q4 8 8 7l7 -2l3 -1l29 -14q11 -5 10 -9zM401 542l-214 -442q31 -47 91 -47q33 0 57.5 11.5t40 34.5t25 47.5t14 60.5t6 64t1.5 66q0 126 -21 205zM152 165l211 436q-30 31 -85 31q-47 0 -77.5 -24t-44 -70t-18 -89.5t-4.5 -105.5
q0 -106 18 -178z" />
    <glyph glyph-name="Ugrave" unicode="&#xd9;" horiz-adv-x="594" 
d="M511 673v-489q0 -18 -1.5 -34t-13 -48.5t-32 -55.5t-64 -41.5t-103.5 -18.5t-103.5 18.5t-64 41.5t-32 55.5t-13 48.5t-1.5 34v489q0 12 12 12h58q12 0 12 -12v-487q0 -21 4 -39.5t16 -42t41 -37.5t71 -14t71 14t41 37.5t16 42t4 39.5v487q0 12 12 12h58q12 0 12 -12z
M181 878l164 -102q5 -2 5 -6q0 -3 -2 -6l-13 -24q-3 -4 -7 -4q-1 0 -3 0.5t-4.5 1.5t-3.5 1l-172 69q-11 4 -11 10q0 4 3 9l29 50q3 4 7 4q2 0 8 -3z" />
    <glyph glyph-name="Uacute" unicode="&#xda;" horiz-adv-x="594" 
d="M511 673v-489q0 -18 -1.5 -34t-13 -48.5t-32 -55.5t-64 -41.5t-103.5 -18.5t-103.5 18.5t-64 41.5t-32 55.5t-13 48.5t-1.5 34v489q0 12 12 12h58q12 0 12 -12v-487q0 -21 4 -39.5t16 -42t41 -37.5t71 -14t71 14t41 37.5t16 42t4 39.5v487q0 12 12 12h58q12 0 12 -12z
M243 776l164 102q6 3 8 3q4 0 7 -4l29 -50q3 -5 3 -9q0 -6 -11 -10l-172 -69q-1 0 -5 -1.5t-6 -1.5q-4 0 -7 4l-13 24q-2 3 -2 6q0 4 5 6z" />
    <glyph glyph-name="Ucircumflex" unicode="&#xdb;" horiz-adv-x="594" 
d="M511 673v-489q0 -18 -1.5 -34t-13 -48.5t-32 -55.5t-64 -41.5t-103.5 -18.5t-103.5 18.5t-64 41.5t-32 55.5t-13 48.5t-1.5 34v489q0 12 12 12h58q12 0 12 -12v-487q0 -21 4 -39.5t16 -42t41 -37.5t71 -14t71 14t41 37.5t16 42t4 39.5v487q0 12 12 12h58q12 0 12 -12z
M297 799l-98 -52q-7 -4 -10 -4q-2 0 -6 4l-16 20q0 1 -1.5 2t-2 2.5t-0.5 3.5q0 6 8 10l111 77q9 6 15 6t15 -6l111 -77q8 -4 8 -10l-4 -8l-16 -20q-4 -4 -6 -4q-3 0 -10 4z" />
    <glyph glyph-name="Udieresis" unicode="&#xdc;" horiz-adv-x="594" 
d="M511 673v-489q0 -18 -1.5 -34t-13 -48.5t-32 -55.5t-64 -41.5t-103.5 -18.5t-103.5 18.5t-64 41.5t-32 55.5t-13 48.5t-1.5 34v489q0 12 12 12h58q12 0 12 -12v-487q0 -21 4 -39.5t16 -42t41 -37.5t71 -14t71 14t41 37.5t16 42t4 39.5v487q0 12 12 12h58q12 0 12 -12z
M142 805q0 24 15.5 39.5t39.5 15.5t39.5 -15.5t15.5 -39.5t-15.5 -39.5t-39.5 -15.5t-39.5 15.5t-15.5 39.5zM344 805q0 24 15.5 39.5t39.5 15.5t39.5 -15.5t15.5 -39.5t-15.5 -39.5t-39.5 -15.5t-39.5 15.5t-15.5 39.5z" />
    <glyph glyph-name="Yacute" unicode="&#xdd;" horiz-adv-x="481" 
d="M279 291v-279q0 -12 -12 -12h-58q-12 0 -12 12v277l-194 368q-3 6 -3 8q0 9 10 12l35 8l25 6q7 2 11 0q5 -2 9 -12l152 -313q6 15 28 62l122 253q6 13 19 10l60 -14q6 -2 8 -5q4 -6 -1 -15zM200 776l164 102q6 3 8 3q4 0 7 -4l29 -50q3 -5 3 -9q0 -6 -11 -10l-172 -69
q-1 0 -5 -1.5t-6 -1.5q-4 0 -7 4l-13 24q-2 3 -2 6q0 4 5 6z" />
    <glyph glyph-name="Thorn" unicode="&#xde;" 
d="M177 181v-169q0 -12 -12 -12h-58q-12 0 -12 12v662v4.5t1.5 3t4 2.5t6.5 1h58q8 0 10 -2.5t2 -8.5v-103h84q20 0 34 -0.5t36.5 -4.5t39 -10.5t35.5 -20t30.5 -32.5t19.5 -48t8 -65q0 -57 -19.5 -99t-44.5 -62.5t-60 -32t-54 -13.5t-38 -2h-71zM177 251h64q28 0 49 4
t44 16.5t35.5 40.5t12.5 70q0 41 -10.5 67t-32 36.5t-39 13t-47.5 2.5h-76v-250z" />
    <glyph glyph-name="germandbls" unicode="&#xdf;" horiz-adv-x="556" 
d="M69 12v530q0 182 181 182q52 0 88.5 -12.5t54 -33t25 -41t7.5 -42.5q0 -66 -68 -129q-42 -37 -42 -63q0 -11 5.5 -21t18 -21.5t22.5 -19l29 -21l28 -19.5q28 -21 44.5 -36t33.5 -50t17 -78q0 -59 -38.5 -105t-123.5 -46q-51 0 -90 13q-24 7 -27 11t-1 11l13 46q3 6 7 7h3
q2 0 4 -1t6.5 -3t9.5 -4q44 -18 79 -18q38 0 60 21.5t22 59.5q0 32 -15.5 57.5t-31.5 38t-50 34.5q-48 31 -74.5 61.5t-26.5 74.5q0 23 10 43.5t20 31t29 27.5q18 15 26.5 24t16.5 25.5t8 35.5q0 10 -2.5 20.5t-11 25.5t-30.5 24.5t-55 9.5q-29 0 -50 -9t-31.5 -20.5
t-16 -30.5t-6.5 -31.5t-1 -30.5v-528q0 -12 -12 -12h-52q-12 0 -12 12z" />
    <glyph glyph-name="agrave" unicode="&#xe0;" horiz-adv-x="463" 
d="M308 301v36q0 19 -2.5 32.5t-10.5 28t-26 22t-45 7.5q-57 0 -111 -26q-12 -6 -15 -6q-6 0 -8 5l-15 40q-5 14 21 25q71 29 137 29q151 0 151 -137v-227q0 -43 12 -72q4 -10 14 -28q4 -5 4 -8t-6 -7l-42 -26q-13 -7 -26 16q-10 16 -19 45l-1 3l-4 -4q-63 -63 -135 -63
q-68 0 -101.5 41t-33.5 100q0 127 141 160q58 14 105 14h16zM308 110v129h-15q-24 0 -47.5 -3.5t-54.5 -13t-50 -33.5t-19 -59q0 -41 22 -61.5t50 -20.5q52 0 108 56zM72 657l29 43q5 8 10 8q3 0 10 -5l149 -115q4 -2 4 -7q0 -3 -4 -8l-13 -19q-4 -4 -7 -4t-7 2l-166 86
q-9 6 -9 10q0 1 4 9z" />
    <glyph glyph-name="aacute" unicode="&#xe1;" horiz-adv-x="463" 
d="M308 301v36q0 19 -2.5 32.5t-10.5 28t-26 22t-45 7.5q-57 0 -111 -26q-12 -6 -15 -6q-6 0 -8 5l-15 40q-5 14 21 25q71 29 137 29q151 0 151 -137v-227q0 -43 12 -72q4 -10 14 -28q4 -5 4 -8t-6 -7l-42 -26q-13 -7 -26 16q-10 16 -19 45l-1 3l-4 -4q-63 -63 -135 -63
q-68 0 -101.5 41t-33.5 100q0 127 141 160q58 14 105 14h16zM308 110v129h-15q-24 0 -47.5 -3.5t-54.5 -13t-50 -33.5t-19 -59q0 -41 22 -61.5t50 -20.5q52 0 108 56zM365 700l29 -43q4 -8 4 -9q0 -4 -9 -10l-166 -86q-4 -2 -7 -2t-7 4l-13 19q-4 5 -4 8q0 5 4 7l149 115
q7 5 10 5q5 0 10 -8z" />
    <glyph glyph-name="acircumflex" unicode="&#xe2;" horiz-adv-x="463" 
d="M308 301v36q0 19 -2.5 32.5t-10.5 28t-26 22t-45 7.5q-57 0 -111 -26q-12 -6 -15 -6q-6 0 -8 5l-15 40q-5 14 21 25q71 29 137 29q151 0 151 -137v-227q0 -43 12 -72q4 -10 14 -28q4 -5 4 -8t-6 -7l-42 -26q-13 -7 -26 16q-10 16 -19 45l-1 3l-4 -4q-63 -63 -135 -63
q-68 0 -101.5 41t-33.5 100q0 127 141 160q58 14 105 14h16zM308 110v129h-15q-24 0 -47.5 -3.5t-54.5 -13t-50 -33.5t-19 -59q0 -41 22 -61.5t50 -20.5q52 0 108 56zM240 625l-91 -60q-6 -4 -9 -4q-5 0 -9 6l-15 20q-3 6 -3 7q0 4 8 10l110 88q7 5 9 5t9 -5l110 -88
q8 -6 8 -10q0 -1 -3 -7l-15 -20q-4 -6 -9 -6q-3 0 -9 4z" />
    <glyph glyph-name="atilde" unicode="&#xe3;" horiz-adv-x="463" 
d="M308 301v36q0 19 -2.5 32.5t-10.5 28t-26 22t-45 7.5q-57 0 -111 -26q-12 -6 -15 -6q-6 0 -8 5l-15 40q-5 14 21 25q71 29 137 29q151 0 151 -137v-227q0 -43 12 -72q4 -10 14 -28q4 -5 4 -8t-6 -7l-42 -26q-13 -7 -26 16q-10 16 -19 45l-1 3l-4 -4q-63 -63 -135 -63
q-68 0 -101.5 41t-33.5 100q0 127 141 160q58 14 105 14h16zM308 110v129h-15q-24 0 -47.5 -3.5t-54.5 -13t-50 -33.5t-19 -59q0 -41 22 -61.5t50 -20.5q52 0 108 56zM132 582l-27 11q-7 3 -7 9q0 4 5 15q31 64 87 64q22 0 61 -21q34 -20 48 -20q25 0 44 28q8 11 11 11
q1 0 4 -1l3 -1l27 -11q7 -4 7 -9q0 -4 -5 -15q-30 -64 -87 -64q-26 0 -60 21q-33 20 -50 20q-25 0 -43 -28q-8 -11 -11 -11q-1 0 -4 1z" />
    <glyph glyph-name="adieresis" unicode="&#xe4;" horiz-adv-x="463" 
d="M308 301v36q0 19 -2.5 32.5t-10.5 28t-26 22t-45 7.5q-57 0 -111 -26q-12 -6 -15 -6q-6 0 -8 5l-15 40q-5 14 21 25q71 29 137 29q151 0 151 -137v-227q0 -43 12 -72q4 -10 14 -28q4 -5 4 -8t-6 -7l-42 -26q-13 -7 -26 16q-10 16 -19 45l-1 3l-4 -4q-63 -63 -135 -63
q-68 0 -101.5 41t-33.5 100q0 127 141 160q58 14 105 14h16zM308 110v129h-15q-24 0 -47.5 -3.5t-54.5 -13t-50 -33.5t-19 -59q0 -41 22 -61.5t50 -20.5q52 0 108 56zM195 629q0 -21 -15.5 -37t-37.5 -16t-37.5 15.5t-15.5 37.5t15.5 37.5t37.5 15.5t37.5 -16t15.5 -37z
M286 629q0 22 15.5 37.5t37.5 15.5t37.5 -15.5t15.5 -37.5t-15.5 -37.5t-37.5 -15.5t-37.5 15.5t-15.5 37.5z" />
    <glyph glyph-name="aring" unicode="&#xe5;" horiz-adv-x="463" 
d="M308 301v36q0 19 -2.5 32.5t-10.5 28t-26 22t-45 7.5q-57 0 -111 -26q-12 -6 -15 -6q-6 0 -8 5l-15 40q-5 14 21 25q71 29 137 29q151 0 151 -137v-227q0 -43 12 -72q4 -10 14 -28q4 -5 4 -8t-6 -7l-42 -26q-13 -7 -26 16q-10 16 -19 45l-1 3l-4 -4q-63 -63 -135 -63
q-68 0 -101.5 41t-33.5 100q0 127 141 160q58 14 105 14h16zM308 110v129h-15q-24 0 -47.5 -3.5t-54.5 -13t-50 -33.5t-19 -59q0 -41 22 -61.5t50 -20.5q52 0 108 56zM150 629q0 37 26 63.5t64 26.5t64 -26.5t26 -63.5t-26 -63.5t-64 -26.5t-64 26.5t-26 63.5zM198 629
q0 -17 13 -29.5t29 -12.5t29 12.5t13 29.5t-13 29.5t-29 12.5t-29 -12.5t-13 -29.5z" />
    <glyph glyph-name="ae" unicode="&#xe6;" horiz-adv-x="704" 
d="M658 230h-287q0 -57 21 -102q18 -39 51.5 -57t65.5 -18q36 0 90 24q11 5 18.5 9.5l10 6t4.5 1.5q5 0 5 -4l19 -47q2 -9 -13 -18q-74 -39 -143 -39q-101 0 -159 77l-15 -15q-62 -62 -155 -62q-67 0 -101.5 40t-34.5 101q0 60 38 98.5t98 53.5q54 14 128 14h4v51
q0 83 -87 83q-54 0 -113 -26q-12 -6 -17 -6t-7 5l-15 40q-1 2 -1 8t10 11q66 35 150 35q93 0 128 -61q49 61 133 61q114 0 158 -100q27 -60 27 -142q0 -22 -11 -22zM371 292h216q-3 50 -21 85q-28 55 -85 55q-43 0 -77 -35.5t-33 -104.5zM303 110v121h-4q-56 0 -101 -11
q-87 -21 -87 -89q0 -33 20.5 -58t57.5 -25q29 0 58.5 16t49.5 39z" />
    <glyph glyph-name="ccedilla" unicode="&#xe7;" horiz-adv-x="437" 
d="M400 427l-24 -45q-2 -4 -5 -4t-12 7q-53 42 -98 42q-124 0 -124 -187q0 -35 3.5 -62t14 -58.5t35.5 -49t62 -17.5q46 0 110 35q8 4 12 5h2q4 0 5 -5l18 -45q1 -2 1 -6q0 -7 -37 -25q-39 -18 -82 -24l-4 -42q22 0 43 -9q34 -16 34 -55q0 -37 -28 -58.5t-75 -21.5
q-23 0 -46 7q-15 6 -14 12l5 38q0 5 5 5l12 -3q13 -5 39 -5q41 0 41 23q0 20 -40 22l-18 1q-8 1 -11.5 2.5t-5.5 9t-1 20.5l6 54q-46 4 -79.5 27.5t-50 51t-26 64.5t-11 57.5t-1.5 41.5q0 129 58.5 196.5t141.5 67.5q71 0 129 -42q22 -16 16 -25z" />
    <glyph glyph-name="egrave" unicode="&#xe8;" horiz-adv-x="467" 
d="M391 88l18 -45q1 -2 1 -6q0 -7 -37 -25q-58 -26 -113 -26q-40 0 -76 12.5t-69 40t-53 79.5t-20 122q0 118 56 186t144 68q180 0 180 -248v-5q0 -17 -11 -17h-287v-5q0 -81 41 -123.5t97 -42.5q49 0 110 35q8 4 12 5h2q4 0 5 -5zM124 286h216q0 47 -16 85q-25 61 -89 61
q-45 0 -77.5 -36t-33.5 -110zM112 657l29 43q5 8 10 8q3 0 10 -5l149 -115q4 -2 4 -7q0 -3 -4 -8l-13 -19q-4 -4 -7 -4t-7 2l-166 86q-9 6 -9 10q0 1 4 9z" />
    <glyph glyph-name="eacute" unicode="&#xe9;" horiz-adv-x="467" 
d="M391 88l18 -45q1 -2 1 -6q0 -7 -37 -25q-58 -26 -113 -26q-40 0 -76 12.5t-69 40t-53 79.5t-20 122q0 118 56 186t144 68q180 0 180 -248v-5q0 -17 -11 -17h-287v-5q0 -81 41 -123.5t97 -42.5q49 0 110 35q8 4 12 5h2q4 0 5 -5zM124 286h216q0 47 -16 85q-25 61 -89 61
q-45 0 -77.5 -36t-33.5 -110zM355 700l29 -43q4 -8 4 -9q0 -4 -9 -10l-166 -86q-4 -2 -7 -2t-7 4l-13 19q-4 5 -4 8q0 5 4 7l149 115q7 5 10 5q5 0 10 -8z" />
    <glyph glyph-name="ecircumflex" unicode="&#xea;" horiz-adv-x="467" 
d="M391 88l18 -45q1 -2 1 -6q0 -7 -37 -25q-58 -26 -113 -26q-40 0 -76 12.5t-69 40t-53 79.5t-20 122q0 118 56 186t144 68q180 0 180 -248v-5q0 -17 -11 -17h-287v-5q0 -81 41 -123.5t97 -42.5q49 0 110 35q8 4 12 5h2q4 0 5 -5zM124 286h216q0 47 -16 85q-25 61 -89 61
q-45 0 -77.5 -36t-33.5 -110zM244 625l-91 -60q-6 -4 -9 -4q-5 0 -9 6l-15 20q-3 6 -3 7q0 4 8 10l110 88q8 5 9 5q2 0 9 -5l110 -88q8 -6 8 -10q0 -1 -3 -7l-15 -20q-4 -6 -9 -6q-3 0 -9 4z" />
    <glyph glyph-name="edieresis" unicode="&#xeb;" horiz-adv-x="467" 
d="M391 88l18 -45q1 -2 1 -6q0 -7 -37 -25q-58 -26 -113 -26q-40 0 -76 12.5t-69 40t-53 79.5t-20 122q0 118 56 186t144 68q180 0 180 -248v-5q0 -17 -11 -17h-287v-5q0 -81 41 -123.5t97 -42.5q49 0 110 35q8 4 12 5h2q4 0 5 -5zM124 286h216q0 47 -16 85q-25 61 -89 61
q-45 0 -77.5 -36t-33.5 -110zM205 629q0 -21 -15.5 -37t-37.5 -16t-37.5 15.5t-15.5 37.5t15.5 37.5t37.5 15.5t37.5 -16t15.5 -37zM296 629q0 22 15.5 37.5t37.5 15.5t37.5 -15.5t15.5 -37.5t-15.5 -37.5t-37.5 -15.5t-37.5 15.5t-15.5 37.5z" />
    <glyph glyph-name="igrave" unicode="&#xec;" horiz-adv-x="279" 
d="M190 465v-453q0 -12 -12 -12h-52q-12 0 -12 12v406h-78q-12 0 -12 12v38q0 12 12 12h141q13 0 13 -15zM2 657l29 43q5 8 10 8q3 0 10 -5l149 -115q4 -2 4 -7q0 -3 -4 -8l-13 -19q-4 -4 -7 -4t-7 2l-166 86q-9 6 -9 10q0 1 4 9z" />
    <glyph glyph-name="iacute" unicode="&#xed;" horiz-adv-x="279" 
d="M190 465v-453q0 -12 -12 -12h-52q-12 0 -12 12v406h-78q-12 0 -12 12v38q0 12 12 12h141q13 0 13 -15zM275 700l29 -43q4 -8 4 -9q0 -4 -9 -10l-166 -86q-4 -2 -7 -2t-7 4l-13 19q-4 5 -4 8q0 5 4 7l149 115q7 5 10 5q5 0 10 -8z" />
    <glyph glyph-name="icircumflex" unicode="&#xee;" horiz-adv-x="279" 
d="M190 465v-453q0 -12 -12 -12h-52q-12 0 -12 12v406h-78q-12 0 -12 12v38q0 12 12 12h141q13 0 13 -15zM150 625l-91 -60q-6 -4 -9 -4q-5 0 -9 6l-15 20q-3 6 -3 7q0 4 8 10l110 88q7 5 9 5t9 -5l110 -88q8 -6 8 -10q0 -1 -3 -7l-15 -20q-4 -6 -9 -6q-3 0 -9 4z" />
    <glyph glyph-name="idieresis" unicode="&#xef;" horiz-adv-x="279" 
d="M190 465v-453q0 -12 -12 -12h-52q-12 0 -12 12v406h-78q-12 0 -12 12v38q0 12 12 12h141q13 0 13 -15zM115 629q0 -21 -15.5 -37t-37.5 -16q-20 0 -36.5 14.5t-16.5 38.5t16.5 38.5t36.5 14.5q22 0 37.5 -16t15.5 -37zM165 629q0 22 15.5 37.5t37.5 15.5t37.5 -15.5
t15.5 -37.5t-15.5 -37.5t-37.5 -15.5t-37.5 15.5t-15.5 37.5z" />
    <glyph glyph-name="eth" unicode="&#xf0;" 
d="M312 674l79 38q1 0 3.5 1.5t4.5 1.5q5 0 7 -7l11 -22q2 -4 2 -8q0 -6 -7 -9l-75 -36q112 -183 112 -365q0 -79 -18.5 -136.5t-50 -88t-65.5 -44t-72 -13.5q-81 0 -136.5 60.5t-55.5 190.5q0 128 56.5 192.5t137.5 64.5q54 0 95 -37l2 2q-37 89 -67 142l-86 -42
q-5 -3 -7 -3q-3 0 -8 7l-12 23q-2 4 -2 7q0 4 8 8l84 41l-22 36q-17 28 -17 31q0 5 13 8l27 5q10 2 15 2t11 -6q13 -13 29 -38zM251 48q116 0 116 191q0 193 -117 193t-117 -188q0 -196 118 -196z" />
    <glyph glyph-name="ntilde" unicode="&#xf1;" horiz-adv-x="519" 
d="M87 12v359q0 41 -12 67l-3 6q-5 9 -5 15q0 3 5 6l47 26q12 7 21 -11q12 -22 16 -54q78 68 166 68q33 0 55.5 -11t34 -25t17 -38t6.5 -38t1 -38v-332q0 -12 -12 -12h-52q-12 0 -12 12v334q0 81 -65 81q-69 0 -132 -61v-354q0 -12 -12 -12h-52q-12 0 -12 12zM162 582
l-27 11q-7 3 -7 9q0 4 5 15q31 64 87 64q22 0 61 -21q34 -20 48 -20q25 0 44 28q8 11 11 11q1 0 4 -1l3 -1l27 -11q7 -4 7 -9q0 -4 -5 -15q-30 -64 -87 -64q-26 0 -60 21q-33 20 -50 20q-25 0 -43 -28q-8 -11 -11 -11q-1 0 -4 1z" />
    <glyph glyph-name="ograve" unicode="&#xf2;" 
d="M250 494q35 0 67.5 -12t63.5 -39t49.5 -79.5t18.5 -123.5t-18.5 -123.5t-49.5 -79.5t-63.5 -39t-67.5 -12t-67.5 12t-63.5 39t-49.5 79.5t-18.5 123.5t18.5 123.5t49.5 79.5t63.5 39t67.5 12zM250 432q-117 0 -117 -192t117 -192t117 192t-117 192zM122 657l29 43
q5 8 10 8q3 0 10 -5l149 -115q4 -2 4 -7q0 -3 -4 -8l-13 -19q-4 -4 -7 -4t-7 2l-166 86q-9 6 -9 10q0 1 4 9z" />
    <glyph glyph-name="oacute" unicode="&#xf3;" 
d="M250 494q35 0 67.5 -12t63.5 -39t49.5 -79.5t18.5 -123.5t-18.5 -123.5t-49.5 -79.5t-63.5 -39t-67.5 -12t-67.5 12t-63.5 39t-49.5 79.5t-18.5 123.5t18.5 123.5t49.5 79.5t63.5 39t67.5 12zM250 432q-117 0 -117 -192t117 -192t117 192t-117 192zM365 700l29 -43
q4 -8 4 -9q0 -4 -9 -10l-166 -86q-4 -2 -7 -2t-7 4l-13 19q-4 5 -4 8q0 5 4 7l149 115q7 5 10 5q5 0 10 -8z" />
    <glyph glyph-name="ocircumflex" unicode="&#xf4;" 
d="M250 494q35 0 67.5 -12t63.5 -39t49.5 -79.5t18.5 -123.5t-18.5 -123.5t-49.5 -79.5t-63.5 -39t-67.5 -12t-67.5 12t-63.5 39t-49.5 79.5t-18.5 123.5t18.5 123.5t49.5 79.5t63.5 39t67.5 12zM250 432q-117 0 -117 -192t117 -192t117 192t-117 192zM250 625l-91 -60
q-6 -4 -9 -4q-5 0 -9 6l-15 20q-3 6 -3 7q0 4 8 10l110 88q8 5 9 5q2 0 9 -5l110 -88q8 -6 8 -10q0 -1 -3 -7l-15 -20q-4 -6 -9 -6q-3 0 -9 4z" />
    <glyph glyph-name="otilde" unicode="&#xf5;" 
d="M250 494q35 0 67.5 -12t63.5 -39t49.5 -79.5t18.5 -123.5t-18.5 -123.5t-49.5 -79.5t-63.5 -39t-67.5 -12t-67.5 12t-63.5 39t-49.5 79.5t-18.5 123.5t18.5 123.5t49.5 79.5t63.5 39t67.5 12zM250 432q-117 0 -117 -192t117 -192t117 192t-117 192zM152 582l-27 11
q-7 3 -7 9q0 4 5 15q31 64 87 64q22 0 61 -21q34 -20 48 -20q25 0 44 28q8 11 11 11q1 0 4 -1l3 -1l27 -11q7 -4 7 -9q0 -4 -5 -15q-30 -64 -87 -64q-26 0 -60 21q-33 20 -50 20q-25 0 -43 -28q-8 -11 -11 -11q-1 0 -4 1z" />
    <glyph glyph-name="odieresis" unicode="&#xf6;" 
d="M250 494q35 0 67.5 -12t63.5 -39t49.5 -79.5t18.5 -123.5t-18.5 -123.5t-49.5 -79.5t-63.5 -39t-67.5 -12t-67.5 12t-63.5 39t-49.5 79.5t-18.5 123.5t18.5 123.5t49.5 79.5t63.5 39t67.5 12zM250 432q-117 0 -117 -192t117 -192t117 192t-117 192zM205 629
q0 -21 -15.5 -37t-37.5 -16t-37.5 15.5t-15.5 37.5t15.5 37.5t37.5 15.5t37.5 -16t15.5 -37zM296 629q0 22 15.5 37.5t37.5 15.5t37.5 -15.5t15.5 -37.5t-15.5 -37.5t-37.5 -15.5t-37.5 15.5t-15.5 37.5z" />
    <glyph glyph-name="divide" unicode="&#xf7;" 
d="M305 427q0 -24 -16.5 -40t-39.5 -16q-24 0 -40 16.5t-16 39.5q0 24 16 40t40 16t40 -16t16 -40zM476 276v-44v-2q0 -4 -0.5 -6t-3.5 -4t-10 -2h-427h-2q-4 0 -6 0.5t-3.5 3.5t-1.5 10v44q0 7 1.5 10t3 3.5t5.5 0.5h3h427q7 0 10 -1.5t3.5 -3t0.5 -5.5v-4zM305 81
q0 -24 -16.5 -40t-39.5 -16q-24 0 -40 16.5t-16 39.5q0 24 16 40t40 16t40 -16t16 -40z" />
    <glyph glyph-name="oslash" unicode="&#xf8;" 
d="M387 530l35 -19q5 -3 5 -6t-3 -8l-34 -61q59 -66 59 -193q0 -132 -59 -194.5t-144 -62.5q-44 0 -89 20l-5 2l-31 -56q-3 -7 -7 -7h-1q-1 0 -7 3l-33 17q-9 4 -4 14l37 68q-55 62 -55 184q0 64 14.5 113t35.5 76.5t49.5 45t53 23t48.5 5.5q48 0 90 -20l2 -1l29 51
q6 10 14 6zM353 379l-163 -313q25 -18 60 -18q123 0 123 190q0 98 -20 141zM146 103l166 312q-24 17 -57 17q-42 0 -69.5 -18.5t-39.5 -52t-15.5 -62t-3.5 -65.5q0 -86 19 -131z" />
    <glyph glyph-name="ugrave" unicode="&#xf9;" horiz-adv-x="518" 
d="M368 37l-3 8q-72 -59 -148 -59q-45 0 -74 13t-42 37t-17 46.5t-4 53.5v332q0 10 7 12l54 13q11 2 14 -2q1 -2 1 -6v-351q0 -43 22 -62t55 -19q52 0 119 51v364q0 10 7 12l54 13q10 2 12 0q2 0 2 -2q1 -2 1 -6v-378q0 -18 8 -40q1 -3 15 -31l7 -14q0 -4 -8 -8l-40 -25
q-13 -8 -25 13q-13 24 -17 35zM122 657l29 43q5 8 10 8q3 0 10 -5l149 -115q4 -2 4 -7q0 -3 -4 -8l-13 -19q-4 -4 -7 -4t-7 2l-166 86q-9 6 -9 10q0 1 4 9z" />
    <glyph glyph-name="uacute" unicode="&#xfa;" horiz-adv-x="518" 
d="M368 37l-3 8q-72 -59 -148 -59q-45 0 -74 13t-42 37t-17 46.5t-4 53.5v332q0 10 7 12l54 13q11 2 14 -2q1 -2 1 -6v-351q0 -43 22 -62t55 -19q52 0 119 51v364q0 10 7 12l54 13q10 2 12 0q2 0 2 -2q1 -2 1 -6v-378q0 -18 8 -40q1 -3 15 -31l7 -14q0 -4 -8 -8l-40 -25
q-13 -8 -25 13q-13 24 -17 35zM385 700l29 -43q4 -8 4 -9q0 -4 -9 -10l-166 -86q-4 -2 -7 -2t-7 4l-13 19q-4 5 -4 8q0 5 4 7l149 115q7 5 10 5q5 0 10 -8z" />
    <glyph glyph-name="ucircumflex" unicode="&#xfb;" horiz-adv-x="518" 
d="M368 37l-3 8q-72 -59 -148 -59q-45 0 -74 13t-42 37t-17 46.5t-4 53.5v332q0 10 7 12l54 13q11 2 14 -2q1 -2 1 -6v-351q0 -43 22 -62t55 -19q52 0 119 51v364q0 10 7 12l54 13q10 2 12 0q2 0 2 -2q1 -2 1 -6v-378q0 -18 8 -40q1 -3 15 -31l7 -14q0 -4 -8 -8l-40 -25
q-13 -8 -25 13q-13 24 -17 35zM260 625l-91 -60q-6 -4 -9 -4q-5 0 -9 6l-15 20q-3 6 -3 7q0 4 8 10l110 88q8 5 9 5q2 0 9 -5l110 -88q8 -6 8 -10q0 -1 -3 -7l-15 -20q-4 -6 -9 -6q-3 0 -9 4z" />
    <glyph glyph-name="udieresis" unicode="&#xfc;" horiz-adv-x="518" 
d="M368 37l-3 8q-72 -59 -148 -59q-45 0 -74 13t-42 37t-17 46.5t-4 53.5v332q0 10 7 12l54 13q11 2 14 -2q1 -2 1 -6v-351q0 -43 22 -62t55 -19q52 0 119 51v364q0 10 7 12l54 13q10 2 12 0q2 0 2 -2q1 -2 1 -6v-378q0 -18 8 -40q1 -3 15 -31l7 -14q0 -4 -8 -8l-40 -25
q-13 -8 -25 13q-13 24 -17 35zM219 629q0 -21 -15.5 -37t-37.5 -16t-37.5 15.5t-15.5 37.5t15.5 37.5t37.5 15.5t37.5 -16t15.5 -37zM310 629q0 22 15.5 37.5t37.5 15.5t37.5 -15.5t15.5 -37.5t-15.5 -37.5t-37.5 -15.5t-37.5 15.5t-15.5 37.5z" />
    <glyph glyph-name="yacute" unicode="&#xfd;" horiz-adv-x="445" 
d="M374 485l49 -20q5 -2 6 -6q1 -3 -1 -13l-123 -409q-41 -135 -61 -174q-38 -73 -118 -73q-26 0 -53 8q-32 9 -64 29q-12 7 -7 19l20 40q2 5 7 5q2 0 18 -10q42 -29 77 -29q18 0 31 9q27 18 46 76l21 63h-36q-10 0 -13 9l-157 441q-4 12 6 15l38 15l9 4q9 3 12 3q8 0 10 -8
l126 -378q9 -27 19 -68l1 -4h2q2 21 15 70l100 380q2 8 10 8q6 0 10 -2zM335 700l29 -43q4 -8 4 -9q0 -4 -9 -10l-166 -86q-4 -2 -7 -2t-7 4l-13 19q-4 5 -4 8q0 5 4 7l149 115q7 5 10 5q5 0 10 -8z" />
    <glyph glyph-name="thorn" unicode="&#xfe;" horiz-adv-x="496" 
d="M159 30v-216q0 -10 -7 -12l-50 -12q-8 -2 -11 -2q-8 0 -8 13v897q0 10 7 12l50 12q8 2 11 2q8 0 8 -13v-263q72 46 130 46q156 0 156 -243q0 -70 -14 -122t-33 -78t-45 -42t-43.5 -19.5t-35.5 -3.5q-50 0 -115 44zM159 378v-282q60 -43 105 -43q27 0 46 11.5t29.5 27.5
t16 44t6.5 51t1 59q0 41 -2.5 66.5t-10.5 55.5t-28 44.5t-51 14.5q-20 0 -54 -15t-58 -34z" />
    <glyph glyph-name="ydieresis" unicode="&#xff;" horiz-adv-x="445" 
d="M374 485l49 -20q5 -2 6 -6q1 -3 -1 -13l-123 -409q-41 -135 -61 -174q-38 -73 -118 -73q-26 0 -53 8q-32 9 -64 29q-12 7 -7 19l20 40q2 5 7 5q2 0 18 -10q42 -29 77 -29q18 0 31 9q27 18 46 76l21 63h-36q-10 0 -13 9l-157 441q-4 12 6 15l38 15l9 4q9 3 12 3q8 0 10 -8
l126 -378q9 -27 19 -68l1 -4h2q2 21 15 70l100 380q2 8 10 8q6 0 10 -2zM185 629q0 -21 -15.5 -37t-37.5 -16t-37.5 15.5t-15.5 37.5t15.5 37.5t37.5 15.5t37.5 -16t15.5 -37zM276 629q0 22 15.5 37.5t37.5 15.5t37.5 -15.5t15.5 -37.5t-15.5 -37.5t-37.5 -15.5t-37.5 15.5
t-15.5 37.5z" />
    <glyph glyph-name="Amacron" unicode="&#x100;" horiz-adv-x="554" 
d="M171 204l-51 -192q-3 -9 -8 -11q-3 -1 -10 -1h-65q-5 0 -6.5 0.5t-3.5 3t1 8.5l203 662q4 11 15 11h59q11 0 15 -11l204 -662q3 -8 -2 -11q-2 -1 -10 -1h-66q-11 0 -14 11l-56 193h-205zM357 274l-60 221q-14 50 -23 95h-2q-7 -49 -21 -95l-61 -221h167zM387 770h-226h-4
t-4 1t-4 4t-1 8v37q0 13 13 13h226h4t4 -1t4 -4t1 -8v-37q0 -6 -2.5 -9.5t-4.5 -3.5h-6z" />
    <glyph glyph-name="amacron" unicode="&#x101;" horiz-adv-x="463" 
d="M308 301v36q0 19 -2.5 32.5t-10.5 28t-26 22t-45 7.5q-57 0 -111 -26q-12 -6 -15 -6q-6 0 -8 5l-15 40q-5 14 21 25q71 29 137 29q151 0 151 -137v-227q0 -43 12 -72q4 -10 14 -28q4 -5 4 -8t-6 -7l-42 -26q-13 -7 -26 16q-10 16 -19 45l-1 3l-4 -4q-63 -63 -135 -63
q-68 0 -101.5 41t-33.5 100q0 127 141 160q58 14 105 14h16zM308 110v129h-15q-24 0 -47.5 -3.5t-54.5 -13t-50 -33.5t-19 -59q0 -41 22 -61.5t50 -20.5q52 0 108 56zM117 610v38q0 12 12 12h221q12 0 12 -12v-38q0 -12 -12 -12h-221q-12 0 -12 12z" />
    <glyph glyph-name="Abreve" unicode="&#x102;" horiz-adv-x="554" 
d="M171 204l-51 -192q-3 -9 -8 -11q-3 -1 -10 -1h-65q-5 0 -6.5 0.5t-3.5 3t1 8.5l203 662q4 11 15 11h59q11 0 15 -11l204 -662q3 -8 -2 -11q-2 -1 -10 -1h-66q-11 0 -14 11l-56 193h-205zM357 274l-60 221q-14 50 -23 95h-2q-7 -49 -21 -95l-61 -221h167zM358 866l40 -7
l2 -1q3 0 4 -0.5t2 -3t1 -6.5q0 -14 -9 -34q-14 -33 -43 -52q-31 -21 -79 -21q-47 0 -79 21q-29 19 -43 52q-9 20 -9 34q0 4 1 6.5t2 3t4 0.5l2 1l40 7q1 0 3 0.5t3 0.5q9 0 11 -13q4 -20 10 -30q17 -30 55 -30t55 30q6 10 10 30q3 14 17 12z" />
    <glyph glyph-name="abreve" unicode="&#x103;" horiz-adv-x="463" 
d="M308 301v36q0 19 -2.5 32.5t-10.5 28t-26 22t-45 7.5q-57 0 -111 -26q-12 -6 -15 -6q-6 0 -8 5l-15 40q-5 14 21 25q71 29 137 29q151 0 151 -137v-227q0 -43 12 -72q4 -10 14 -28q4 -5 4 -8t-6 -7l-42 -26q-13 -7 -26 16q-10 16 -19 45l-1 3l-4 -4q-63 -63 -135 -63
q-68 0 -101.5 41t-33.5 100q0 127 141 160q58 14 105 14h16zM308 110v129h-15q-24 0 -47.5 -3.5t-54.5 -13t-50 -33.5t-19 -59q0 -41 22 -61.5t50 -20.5q52 0 108 56zM317 682l41 -7q11 -2 11 -15q0 -1 -0.5 -3t-0.5 -3q-13 -61 -58 -87q-30 -17 -70 -17t-70 17
q-45 26 -58 87q0 1 -0.5 3t-0.5 3q0 13 11 15l41 7h5q4 0 6 -5l3 -12q15 -62 63 -62t63 62l3 12q1 7 11 5z" />
    <glyph glyph-name="Aogonek" unicode="&#x104;" horiz-adv-x="554" 
d="M171 204l-51 -192q-3 -9 -8 -11q-3 -1 -10 -1h-65q-5 0 -6.5 0.5t-3.5 3t1 8.5l203 662q4 11 15 11h59q11 0 15 -11l204 -662q2 -7 -2 -12l-7 -9q-44 -57 -44 -90q0 -32 32 -32q25 0 51 16q10 7 13 7t6 -6l10 -32q4 -12 -11 -19q-38 -19 -71 -19q-48 0 -69.5 24t-21.5 56
q0 41 47 104h-11q-11 0 -14 11l-56 193h-205zM357 274l-60 221q-14 50 -23 95h-2q-7 -49 -21 -95l-61 -221h167z" />
    <glyph glyph-name="aogonek" unicode="&#x105;" horiz-adv-x="463" 
d="M384 357v-227q0 -43 12 -72q4 -10 14 -28q4 -5 4 -8t-4 -7l-9 -11q-2 -2 -8 -9t-8.5 -10.5t-8 -10.5t-8 -11.5t-7 -11t-7 -11.5t-5 -11t-3.5 -12t-1 -11q0 -16 10 -24.5t24 -8.5q17 0 51 17l10 5q4 0 5 -6l10 -28q4 -11 -8 -19q-29 -20 -71 -20q-45 0 -67.5 23t-22.5 55
q0 47 52 109q-13 29 -18 44q-36 -36 -67.5 -51.5t-71.5 -15.5q-68 0 -101.5 41t-33.5 100q0 126 141 160q44 11 121 14v36q0 19 -2.5 32.5t-10.5 28t-26 22t-45 7.5q-57 0 -111 -26q-12 -6 -15 -6q-6 0 -8 5l-15 40q-1 2 -1 8q0 8 22 17q66 29 137 29q151 0 151 -137z
M308 110v129q-32 0 -60.5 -3.5t-59.5 -14t-49 -34t-18 -57.5q0 -41 22 -61.5t51 -20.5q27 0 58.5 18t55.5 44z" />
    <glyph glyph-name="Cacute" unicode="&#x106;" horiz-adv-x="467" 
d="M432 613l-27 -35q-5 -5 -7 -5q-3 0 -18 13q-52 46 -105 46q-28 0 -49.5 -11t-35.5 -26t-23.5 -41t-14.5 -46t-7 -51t-2.5 -45.5t-0.5 -39.5q0 -319 142 -319q43 0 102 46q15 12 19 12q5 0 8 -5l25 -32q4 -4 4 -11q0 -9 -13 -19q-63 -58 -149 -58q-34 0 -63.5 8
t-60.5 32.5t-53.5 63t-36.5 105t-14 154.5q0 350 218 350q40 0 82 -15.5t70 -42.5q13 -10 13 -21q0 -4 -3 -7zM213 776l164 102q6 3 8 3q4 0 7 -4l29 -50q3 -5 3 -9q0 -6 -11 -10l-172 -69q-1 0 -5 -1.5t-6 -1.5q-4 0 -7 4l-13 24q-2 3 -2 6q0 4 5 6z" />
    <glyph glyph-name="cacute" unicode="&#x107;" horiz-adv-x="437" 
d="M400 427l-24 -45q-2 -4 -5 -4t-12 7q-53 42 -98 42q-124 0 -124 -187q0 -35 3.5 -62t14 -58.5t35.5 -49t62 -17.5q46 0 110 35q8 4 12 5h2q4 0 5 -5l18 -45q1 -2 1 -6q0 -7 -37 -25q-58 -26 -113 -26q-37 0 -69 11t-62 36.5t-47 76t-17 120.5q0 128 58.5 196t141.5 68
q71 0 129 -42q22 -16 16 -25zM365 700l29 -43q4 -8 4 -9q0 -4 -9 -10l-166 -86q-4 -2 -7 -2t-7 4l-13 19q-4 5 -4 8q0 5 4 7l149 115q7 5 10 5q5 0 10 -8z" />
    <glyph glyph-name="Ccircumflex" unicode="&#x108;" horiz-adv-x="467" 
d="M432 613l-27 -35q-5 -5 -7 -5q-3 0 -18 13q-52 46 -105 46q-28 0 -49.5 -11t-35.5 -26t-23.5 -41t-14.5 -46t-7 -51t-2.5 -45.5t-0.5 -39.5q0 -319 142 -319q43 0 102 46q15 12 19 12q5 0 8 -5l25 -32q4 -4 4 -11q0 -9 -13 -19q-63 -58 -149 -58q-34 0 -63.5 8
t-60.5 32.5t-53.5 63t-36.5 105t-14 154.5q0 350 218 350q40 0 82 -15.5t70 -42.5q13 -10 13 -21q0 -4 -3 -7zM273 799l-98 -52q-7 -4 -10 -4q-2 0 -6 4l-16 20q0 1 -1.5 2t-2 2.5t-0.5 3.5q0 6 8 10l111 77q9 6 15 6t15 -6l111 -77q8 -4 8 -10l-4 -8l-16 -20q-4 -4 -6 -4
q-3 0 -10 4z" />
    <glyph glyph-name="ccircumflex" unicode="&#x109;" horiz-adv-x="437" 
d="M400 427l-24 -45q-2 -4 -5 -4t-12 7q-53 42 -98 42q-124 0 -124 -187q0 -35 3.5 -62t14 -58.5t35.5 -49t62 -17.5q46 0 110 35q8 4 12 5h2q4 0 5 -5l18 -45q1 -2 1 -6q0 -7 -37 -25q-58 -26 -113 -26q-37 0 -69 11t-62 36.5t-47 76t-17 120.5q0 128 58.5 196t141.5 68
q71 0 129 -42q22 -16 16 -25zM260 625l-91 -60q-6 -4 -9 -4q-5 0 -9 6l-15 20q-3 6 -3 7q0 4 8 10l110 88q8 5 9 5q2 0 9 -5l110 -88q8 -6 8 -10q0 -1 -3 -7l-15 -20q-4 -6 -9 -6q-3 0 -9 4z" />
    <glyph glyph-name="Cdotaccent" unicode="&#x10a;" horiz-adv-x="467" 
d="M432 613l-27 -35q-5 -5 -7 -5q-3 0 -18 13q-52 46 -105 46q-28 0 -49.5 -11t-35.5 -26t-23.5 -41t-14.5 -46t-7 -51t-2.5 -45.5t-0.5 -39.5q0 -319 142 -319q43 0 102 46q15 12 19 12q5 0 8 -5l25 -32q4 -4 4 -11q0 -9 -13 -19q-63 -58 -149 -58q-34 0 -63.5 8
t-60.5 32.5t-53.5 63t-36.5 105t-14 154.5q0 350 218 350q40 0 82 -15.5t70 -42.5q13 -10 13 -21q0 -4 -3 -7zM204 805q0 25 19 44.5t45 19.5t45 -19.5t19 -44.5t-19 -44.5t-45 -19.5t-45 19.5t-19 44.5z" />
    <glyph glyph-name="cdotaccent" unicode="&#x10b;" horiz-adv-x="437" 
d="M400 427l-24 -45q-2 -4 -5 -4t-12 7q-53 42 -98 42q-124 0 -124 -187q0 -35 3.5 -62t14 -58.5t35.5 -49t62 -17.5q46 0 110 35q8 4 12 5h2q4 0 5 -5l18 -45q1 -2 1 -6q0 -7 -37 -25q-58 -26 -113 -26q-37 0 -69 11t-62 36.5t-47 76t-17 120.5q0 128 58.5 196t141.5 68
q71 0 129 -42q22 -16 16 -25zM194 626q0 25 17.5 42.5t42.5 17.5t42.5 -17.5t17.5 -42.5t-17.5 -42.5t-42.5 -17.5t-42.5 17.5t-17.5 42.5z" />
    <glyph glyph-name="Ccaron" unicode="&#x10c;" horiz-adv-x="467" 
d="M432 613l-27 -35q-5 -5 -7 -5q-3 0 -18 13q-52 46 -105 46q-28 0 -49.5 -11t-35.5 -26t-23.5 -41t-14.5 -46t-7 -51t-2.5 -45.5t-0.5 -39.5q0 -319 142 -319q43 0 102 46q15 12 19 12q5 0 8 -5l25 -32q4 -4 4 -11q0 -9 -13 -19q-63 -58 -149 -58q-34 0 -63.5 8
t-60.5 32.5t-53.5 63t-36.5 105t-14 154.5q0 350 218 350q40 0 82 -15.5t70 -42.5q13 -10 13 -21q0 -4 -3 -7zM276 812l98 52q7 4 10 4q2 0 6 -4l16 -20q0 -1 1.5 -2t2 -2.5t0.5 -3.5q0 -6 -8 -10l-111 -77q-9 -6 -15 -6t-15 6l-111 77q-8 4 -8 10l4 8l16 20q4 4 6 4
q3 0 10 -4z" />
    <glyph glyph-name="ccaron" unicode="&#x10d;" horiz-adv-x="437" 
d="M400 427l-24 -45q-2 -4 -5 -4t-12 7q-53 42 -98 42q-124 0 -124 -187q0 -35 3.5 -62t14 -58.5t35.5 -49t62 -17.5q46 0 110 35q8 4 12 5h2q4 0 5 -5l18 -45q1 -2 1 -6q0 -7 -37 -25q-58 -26 -113 -26q-37 0 -69 11t-62 36.5t-47 76t-17 120.5q0 128 58.5 196t141.5 68
q71 0 129 -42q22 -16 16 -25zM379 654l-110 -88q-7 -5 -9 -5t-9 5l-110 88q-8 6 -8 10q0 1 3 7l15 20q4 6 9 6q3 0 9 -4l91 -60l91 60q6 4 9 4q5 0 9 -6l15 -20q3 -6 3 -7q0 -4 -8 -10z" />
    <glyph glyph-name="Dcaron" unicode="&#x10e;" horiz-adv-x="556" 
d="M109 685h126q114 0 171 -42q101 -75 98 -304q-2 -146 -40 -216q-21 -40 -49 -66t-62 -37.5t-62.5 -15.5t-66.5 -4h-115q-12 0 -12 12v661q0 12 12 12zM179 70h62q107 0 147 92q25 59 26 183q3 177 -56 232q-41 38 -124 38h-55v-545zM260 812l98 52q7 4 10 4q2 0 6 -4
l16 -20q0 -1 1.5 -2t2 -2.5t0.5 -3.5q0 -6 -8 -10l-111 -77q-9 -6 -15 -6t-15 6l-111 77q-8 4 -8 10l4 8l16 20q4 4 6 4q3 0 10 -4z" />
    <glyph glyph-name="dcaron" unicode="&#x10f;" horiz-adv-x="520" 
d="M417 711v-553q0 -70 10 -98q3 -10 8 -18.5t8 -13t3 -6.5q0 -3 -9 -9l-39 -24q-13 -8 -25.5 12t-18.5 44l-8 -6q-71 -53 -131 -53q-25 0 -49 8.5t-52 31.5t-45.5 76.5t-17.5 130.5q0 67 13.5 117t32 76.5t45 43t46.5 20.5t41 4q62 0 112 -34v238q0 10 8 12l52 13q4 1 9 1
q7 0 7 -13zM341 112v282q-58 33 -100 33q-36 0 -59 -15.5t-33 -46t-13 -57.5t-3 -68q0 -26 0.5 -40.5t2.5 -40t8 -41t15 -32.5t25 -25t37 -8q37 0 102 46zM519 717h69q6 0 6 -5l-3 -9l-90 -170q-3 -7 -8 -7q-1 0 -7 2l-21 7q-5 2 -5 5q0 5 1 8l46 160q3 9 12 9z" />
    <glyph glyph-name="Dcroat" unicode="&#x110;" horiz-adv-x="556" 
d="M109 685h126q77 0 130.5 -19.5t88.5 -76.5q50 -82 50 -240q0 -148 -40 -226q-21 -40 -49.5 -66t-62.5 -37.5t-62.5 -15.5t-65.5 -4h-115q-12 0 -12 12v312h-62h-2q-4 0 -6 0.5t-3.5 3.5t-1.5 10v38q6 12 13 13h62v284q0 12 12 12zM179 70h62q107 0 147 92q26 59 26 186
q0 177 -56 229q-41 38 -124 38h-55v-226h120q7 0 10 -1.5t3.5 -3t0.5 -5.5v-3v-38v-2q0 -4 -0.5 -6t-3.5 -4t-10 -2h-120v-254z" />
    <glyph glyph-name="dcroat" unicode="&#x111;" 
d="M341 460v116h-138q-12 0 -12 12v29q0 12 12 12h138v69q0 10 8 12l52 13q4 1 9 1q7 0 7 -13v-82h56q13 0 13 -15v-26q0 -12 -12 -12h-57v-418q0 -70 10 -98q3 -10 8 -18.5t8 -13t3 -6.5q0 -3 -9 -9l-39 -24q-13 -8 -25.5 12t-18.5 44q-77 -59 -139 -59q-25 0 -49 8.5
t-52 31.5t-45.5 76.5t-17.5 130.5q0 67 13.5 117t32 76.5t45 43t46.5 20.5t41 4q62 0 112 -34zM341 112v282q-58 33 -100 33q-36 0 -59 -15.5t-33 -46t-13 -57.5t-3 -68q0 -26 0.5 -40.5t2.5 -40t8 -41t15 -32.5t25 -25t37 -8q8 0 16.5 2t15.5 4t16.5 7l15 8t16 9.5t14 9.5
t14 10.5t12.5 8.5z" />
    <glyph glyph-name="Emacron" unicode="&#x112;" horiz-adv-x="483" 
d="M429 58v-46q0 -12 -12 -12h-310q-12 0 -12 12v661q0 12 12 12h314q14 0 10 -10l-17 -51q-2 -9 -13 -9h-224v-222h197q12 0 12 -12v-46q0 -12 -12 -12h-197v-253h240q12 0 12 -12zM383 770h-226h-4t-4 1t-4 4t-1 8v37q0 13 13 13h226h4t4 -1t4 -4t1 -8v-37q0 -6 -2.5 -9.5
t-4.5 -3.5h-6z" />
    <glyph glyph-name="emacron" unicode="&#x113;" horiz-adv-x="467" 
d="M391 88l18 -45q1 -2 1 -6q0 -7 -37 -25q-58 -26 -113 -26q-40 0 -76 12.5t-69 40t-53 79.5t-20 122q0 118 56 186t144 68q180 0 180 -248v-5q0 -17 -11 -17h-287v-5q0 -81 41 -123.5t97 -42.5q49 0 110 35q8 4 12 5h2q4 0 5 -5zM124 286h216q0 47 -16 85q-25 61 -89 61
q-45 0 -77.5 -36t-33.5 -110zM127 610v38q0 12 12 12h221q12 0 12 -12v-38q0 -12 -12 -12h-221q-12 0 -12 12z" />
    <glyph glyph-name="Edotaccent" unicode="&#x116;" horiz-adv-x="483" 
d="M429 58v-46q0 -12 -12 -12h-310q-12 0 -12 12v661q0 12 12 12h314q14 0 10 -10l-17 -51q-2 -9 -13 -9h-224v-222h197q12 0 12 -12v-46q0 -12 -12 -12h-197v-253h240q12 0 12 -12zM206 805q0 25 19 44.5t45 19.5t45 -19.5t19 -44.5t-19 -44.5t-45 -19.5t-45 19.5t-19 44.5
z" />
    <glyph glyph-name="edotaccent" unicode="&#x117;" horiz-adv-x="467" 
d="M391 88l18 -45q1 -2 1 -6q0 -7 -37 -25q-58 -26 -113 -26q-40 0 -76 12.5t-69 40t-53 79.5t-20 122q0 118 56 186t144 68q180 0 180 -248v-5q0 -17 -11 -17h-287v-5q0 -81 41 -123.5t97 -42.5q49 0 110 35q8 4 12 5h2q4 0 5 -5zM124 286h216q0 47 -16 85q-25 61 -89 61
q-45 0 -77.5 -36t-33.5 -110zM184 626q0 25 17.5 42.5t42.5 17.5t42.5 -17.5t17.5 -42.5t-17.5 -42.5t-42.5 -17.5t-42.5 17.5t-17.5 42.5z" />
    <glyph glyph-name="Eogonek" unicode="&#x118;" horiz-adv-x="483" 
d="M429 58v-46q0 -7 -5 -12l-7 -9q-44 -57 -44 -90q0 -32 32 -32q25 0 51 16q10 7 13 7t6 -6l10 -32q4 -12 -11 -19q-38 -19 -71 -19q-48 0 -69.5 24t-21.5 56q0 41 47 104h-252q-12 0 -12 12v661q0 12 12 12h314q14 0 10 -10l-17 -51q-2 -9 -13 -9h-224v-222h197
q12 0 12 -12v-46q0 -12 -12 -12h-197v-253h240q12 0 12 -12z" />
    <glyph glyph-name="eogonek" unicode="&#x119;" horiz-adv-x="467" 
d="M391 88l18 -45q2 -6 -1 -10l-14 -16q-66 -75 -66 -111q0 -16 10 -24.5t24 -8.5q17 0 51 17l10 5q3 0 5 -6l10 -28q4 -11 -8 -19q-29 -20 -71 -20q-45 0 -67.5 23t-22.5 55q0 40 39 91q-23 -5 -48 -5q-40 0 -76 12.5t-69 39.5t-53 79t-20 123q0 118 56 186t144 68
q180 0 180 -248v-5q0 -17 -11 -17h-287v-5q1 -82 41.5 -124t96.5 -42q49 0 110 35q8 4 12 5h2q4 0 5 -5zM124 286h216q0 47 -16 85q-25 61 -89 61q-45 0 -77.5 -36t-33.5 -110z" />
    <glyph glyph-name="Ecaron" unicode="&#x11a;" horiz-adv-x="483" 
d="M429 58v-46q0 -12 -12 -12h-310q-12 0 -12 12v661q0 12 12 12h314q14 0 10 -10l-17 -51q-2 -9 -13 -9h-224v-222h197q12 0 12 -12v-46q0 -12 -12 -12h-197v-253h240q12 0 12 -12zM270 812l98 52q7 4 10 4q2 0 6 -4l16 -20q0 -1 1.5 -2t2 -2.5t0.5 -3.5q0 -6 -8 -10
l-111 -77q-9 -6 -15 -6t-15 6l-111 77q-8 4 -8 10l4 8l16 20q4 4 6 4q3 0 10 -4z" />
    <glyph glyph-name="ecaron" unicode="&#x11b;" horiz-adv-x="467" 
d="M391 88l18 -45q1 -2 1 -6q0 -7 -37 -25q-58 -26 -113 -26q-40 0 -76 12.5t-69 40t-53 79.5t-20 122q0 118 56 186t144 68q180 0 180 -248v-5q0 -17 -11 -17h-287v-5q0 -81 41 -123.5t97 -42.5q49 0 110 35q8 4 12 5h2q4 0 5 -5zM124 286h216q0 47 -16 85q-25 61 -89 61
q-45 0 -77.5 -36t-33.5 -110zM359 654l-110 -88q-7 -5 -9 -5t-9 5l-110 88q-8 6 -8 10q0 1 3 7l15 20q4 6 9 6q3 0 9 -4l91 -60l91 60q6 4 9 4q5 0 9 -6l15 -20q3 -6 3 -7q0 -4 -8 -10z" />
    <glyph glyph-name="Gcircumflex" unicode="&#x11c;" horiz-adv-x="537" 
d="M468 335v-286q0 -17 -14 -26q-63 -37 -154 -37q-248 0 -248 361q0 28 1.5 54t7.5 63t16 67.5t29 63t44.5 54.5t64 36t86.5 14q84 0 147 -47q12 -9 12 -16q0 -2 -3 -8l-20 -37q-5 -8 -9 -8t-12 6q-61 43 -117 43q-157 0 -157 -277q0 -85 16.5 -162t53.5 -109
q36 -31 91 -31q39 0 83 19v210h-80q-12 0 -12 12v41q0 12 12 12h150q12 0 12 -12zM303 799l-98 -52q-7 -4 -10 -4q-2 0 -6 4l-16 20q0 1 -1.5 2t-2 2.5t-0.5 3.5q0 6 8 10l111 77q9 6 15 6t15 -6l111 -77q8 -4 8 -10l-4 -8l-16 -20q-4 -4 -6 -4q-3 0 -10 4z" />
    <glyph glyph-name="gcircumflex" unicode="&#x11d;" 
d="M413 362v-169l7 -227q3 -87 -46.5 -131.5t-129.5 -44.5q-89 0 -146 33q-1 1 -5 3t-6.5 3.5t-5 4t-4 4.5t-1.5 5q0 2 0.5 3.5t1.5 3t1 2.5l17 38q3 5 7 6q4 0 21 -9q57 -30 120 -30q104 0 100 108l-3 103q-64 -55 -135 -55q-67 0 -111 55.5t-44 165.5q0 72 16.5 125t45 81
t59.5 41t65 13q64 0 115 -37l7 -5q16 43 30 42q3 0 6 -2l45 -28q4 -3 4 -6v-1q0 -3 -5 -11q-26 -43 -26 -84zM337 130v270q-18 11 -46 19t-46 8q-112 0 -112 -181q0 -34 3 -59.5t11 -52t26.5 -40.5t46.5 -14q47 0 117 50zM240 625l-91 -60q-6 -4 -9 -4q-5 0 -9 6l-15 20
q-3 6 -3 7q0 4 8 10l110 88q7 5 9 5t9 -5l110 -88q8 -6 8 -10q0 -1 -3 -7l-15 -20q-4 -6 -9 -6q-3 0 -9 4z" />
    <glyph glyph-name="Gbreve" unicode="&#x11e;" horiz-adv-x="537" 
d="M468 335v-286q0 -17 -14 -26q-63 -37 -154 -37q-248 0 -248 361q0 28 1.5 54t7.5 63t16 67.5t29 63t44.5 54.5t64 36t86.5 14q84 0 147 -47q12 -9 12 -16q0 -2 -3 -8l-20 -37q-5 -8 -9 -8t-12 6q-61 43 -117 43q-157 0 -157 -277q0 -85 16.5 -162t53.5 -109
q36 -31 91 -31q39 0 83 19v210h-80q-12 0 -12 12v41q0 12 12 12h150q12 0 12 -12zM388 866l40 -7l2 -1q3 0 4 -0.5t2 -3t1 -6.5q0 -14 -9 -34q-14 -33 -43 -52q-31 -21 -79 -21t-79 21q-29 19 -43 52q-9 20 -9 34q0 4 1 6.5t2 3t4 0.5l2 1l40 7q1 0 3 0.5t3 0.5q9 0 11 -13
q4 -20 10 -30q17 -30 55 -30t55 30q6 10 10 30q3 14 17 12z" />
    <glyph glyph-name="gbreve" unicode="&#x11f;" 
d="M413 362v-169l7 -227q3 -87 -46.5 -131.5t-129.5 -44.5q-89 0 -146 33q-1 1 -5 3t-6.5 3.5t-5 4t-4 4.5t-1.5 5q0 2 0.5 3.5t1.5 3t1 2.5l17 38q3 5 7 6q4 0 21 -9q57 -30 120 -30q104 0 100 108l-3 103q-64 -55 -135 -55q-67 0 -111 55.5t-44 165.5q0 72 16.5 125t45 81
t59.5 41t65 13q64 0 115 -37l7 -5q16 43 30 42q3 0 6 -2l45 -28q4 -3 4 -6v-1q0 -3 -5 -11q-26 -43 -26 -84zM337 130v270q-18 11 -46 19t-46 8q-112 0 -112 -181q0 -34 3 -59.5t11 -52t26.5 -40.5t46.5 -14q47 0 117 50zM317 682l41 -7q11 -2 11 -15q0 -1 -0.5 -3t-0.5 -3
q-13 -61 -58 -87q-30 -17 -70 -17t-70 17q-45 26 -58 87q0 1 -0.5 3t-0.5 3q0 13 11 15l41 7h5q4 0 6 -5l3 -12q15 -62 63 -62t63 62l3 12q1 7 11 5z" />
    <glyph glyph-name="Gdotaccent" unicode="&#x120;" horiz-adv-x="537" 
d="M468 335v-286q0 -17 -14 -26q-63 -37 -154 -37q-248 0 -248 361q0 28 1.5 54t7.5 63t16 67.5t29 63t44.5 54.5t64 36t86.5 14q84 0 147 -47q12 -9 12 -16q0 -2 -3 -8l-20 -37q-5 -8 -9 -8t-12 6q-61 43 -117 43q-157 0 -157 -277q0 -85 16.5 -162t53.5 -109
q36 -31 91 -31q39 0 83 19v210h-80q-12 0 -12 12v41q0 12 12 12h150q12 0 12 -12zM230 805q0 25 19 44.5t45 19.5t45 -19.5t19 -44.5t-19 -44.5t-45 -19.5t-45 19.5t-19 44.5z" />
    <glyph glyph-name="gdotaccent" unicode="&#x121;" 
d="M413 362v-169l7 -227q3 -87 -46.5 -131.5t-129.5 -44.5q-89 0 -146 33q-1 1 -5 3t-6.5 3.5t-5 4t-4 4.5t-1.5 5q0 2 0.5 3.5t1.5 3t1 2.5l17 38q3 5 7 6q4 0 21 -9q57 -30 120 -30q104 0 100 108l-3 103q-64 -55 -135 -55q-67 0 -111 55.5t-44 165.5q0 72 16.5 125t45 81
t59.5 41t65 13q64 0 115 -37l7 -5q16 43 30 42q3 0 6 -2l45 -28q4 -3 4 -6v-1q0 -3 -5 -11q-26 -43 -26 -84zM337 130v270q-18 11 -46 19t-46 8q-112 0 -112 -181q0 -34 3 -59.5t11 -52t26.5 -40.5t46.5 -14q47 0 117 50zM184 626q0 25 17.5 42.5t42.5 17.5t42.5 -17.5
t17.5 -42.5t-17.5 -42.5t-42.5 -17.5t-42.5 17.5t-17.5 42.5z" />
    <glyph glyph-name="Gcommaaccent" unicode="&#x122;" horiz-adv-x="537" 
d="M468 335v-286q0 -17 -14 -26q-63 -37 -154 -37q-248 0 -248 361q0 28 1.5 54t7.5 63t16 67.5t29 63t44.5 54.5t64 36t86.5 14q84 0 147 -47q12 -9 12 -16q0 -2 -3 -8l-20 -37q-5 -8 -9 -8t-12 6q-61 43 -117 43q-157 0 -157 -277q0 -85 16.5 -162t53.5 -109
q36 -31 91 -31q39 0 83 19v210h-80q-12 0 -12 12v41q0 12 12 12h150q12 0 12 -12zM281 -57h69q6 0 6 -5q0 -2 -2 -6q-1 -2 -1 -3l-90 -170q-3 -7 -8 -7q-1 0 -7 2l-21 7q-5 2 -5 5q0 5 1 8l46 160q3 9 12 9z" />
    <glyph glyph-name="gcommaaccent" unicode="&#x123;" 
d="M413 362v-169l7 -227q3 -87 -46.5 -131.5t-129.5 -44.5q-89 0 -146 33q-1 1 -5 3t-6.5 3.5t-5 4t-4 4.5t-1.5 5q0 2 0.5 3.5t1.5 3t1 2.5l17 38q3 5 7 6q4 0 21 -9q57 -30 120 -30q104 0 100 108l-3 103q-64 -55 -135 -55q-67 0 -111 55.5t-44 165.5q0 72 16.5 125t45 81
t59.5 41t65 13q64 0 115 -37l7 -5q16 43 30 42q3 0 6 -2l45 -28q4 -3 4 -6v-1q0 -3 -5 -11q-26 -43 -26 -84zM337 130v270q-18 11 -46 19t-46 8q-112 0 -112 -181q0 -34 3 -59.5t11 -52t26.5 -40.5t46.5 -14q47 0 117 50zM281 537h-69q-6 0 -6 5l3 9l90 170q3 7 8 7
q1 0 7 -2l21 -7q5 -2 5 -5q0 -5 -1 -8l-46 -160q-3 -9 -12 -9z" />
    <glyph glyph-name="Hcircumflex" unicode="&#x124;" horiz-adv-x="611" 
d="M434 321h-257v-309q0 -12 -12 -12h-58q-12 0 -12 12v661q0 12 12 12h58q12 0 12 -12v-282h257v282q0 12 12 12h58q12 0 12 -12v-661q0 -12 -12 -12h-58q-12 0 -12 12v309zM302 799l-98 -52q-7 -4 -10 -4q-2 0 -6 4l-16 20q0 1 -1.5 2t-2 2.5t-0.5 3.5q0 6 8 10l111 77
q9 6 15 6t15 -6l111 -77q8 -4 8 -10l-4 -8l-16 -20q-4 -4 -6 -4q-3 0 -10 4z" />
    <glyph glyph-name="hcircumflex" unicode="&#x125;" horiz-adv-x="519" 
d="M84 12v686q0 10 8 12l52 13q4 1 9 1q7 0 7 -13v-285q78 68 159 68q34 0 57.5 -11.5t35 -25.5t17.5 -38.5t6.5 -37.5t0.5 -37v-332q0 -12 -12 -12h-52q-12 0 -12 12v334q0 81 -68 81t-132 -61v-354q0 -12 -12 -12h-52q-12 0 -12 12zM124 775l-91 -60q-6 -4 -9 -4
q-5 0 -9 6l-15 20q-3 6 -3 7q0 4 8 10l110 88q8 5 9 5q2 0 9 -5l110 -88q8 -6 8 -10q0 -1 -3 -7l-15 -20q-4 -6 -9 -6q-3 0 -9 4z" />
    <glyph glyph-name="Hbar" unicode="&#x126;" horiz-adv-x="637" 
d="M591 504h-62v-492q0 -12 -12 -12h-58q-12 0 -12 12v309h-257v-309q0 -12 -12 -12h-58q-12 0 -12 12v492h-62q-13 0 -13 14v38q0 13 13 13h62v104q0 12 12 12h58q12 0 12 -12v-104h257v104q0 12 12 12h58q12 0 12 -12v-104h62q13 0 13 -13v-38q0 -14 -13 -14zM190 391h257
v113h-257v-113z" />
    <glyph glyph-name="hbar" unicode="&#x127;" horiz-adv-x="519" 
d="M84 12v564h-57q-12 0 -12 12v29q0 12 12 12h57v69q0 10 8 12l52 13q4 1 8 1q8 0 8 -13v-82h137q13 0 13 -15v-26q0 -12 -12 -12h-138v-150q78 68 159 68q33 0 57 -11.5t35 -25.5t17 -38t7 -38t1 -37v-332q0 -12 -12 -12h-52q-12 0 -12 12v334q0 81 -68 81t-132 -61v-354
q0 -12 -12 -12h-52q-12 0 -12 12z" />
    <glyph glyph-name="Imacron" unicode="&#x12a;" horiz-adv-x="374" 
d="M228 65h91q12 0 12 -12v-41q0 -12 -12 -12h-264q-12 0 -12 12v41q0 12 12 12h91v555h-91q-12 0 -12 12v41q0 12 12 12h264q12 0 12 -12v-41q0 -12 -12 -12h-91v-555zM300 770h-226h-4t-4 1t-4 4t-1 8v37q0 13 13 13h226h4t4 -1t4 -4t1 -8v-37q0 -6 -2.5 -9.5t-4.5 -3.5
h-6z" />
    <glyph glyph-name="imacron" unicode="&#x12b;" horiz-adv-x="279" 
d="M190 465v-453q0 -12 -12 -12h-52q-12 0 -12 12v406h-78q-12 0 -12 12v38q0 12 12 12h141q13 0 13 -15zM17 610v38q0 12 12 12h221q12 0 12 -12v-38q0 -12 -12 -12h-221q-12 0 -12 12z" />
    <glyph glyph-name="Iogonek" unicode="&#x12e;" horiz-adv-x="374" 
d="M228 65h91q12 0 12 -12v-41q0 -7 -5 -12l-7 -9q-44 -57 -44 -90q0 -32 32 -32q25 0 51 16q11 7 13 7q3 0 6 -6l10 -32q4 -12 -11 -19q-38 -19 -71 -19q-48 0 -69.5 24t-21.5 56q0 41 47 104h-206q-12 0 -12 12v41q0 12 12 12h91v555h-91q-12 0 -12 12v41q0 12 12 12h264
q12 0 12 -12v-41q0 -12 -12 -12h-91v-555z" />
    <glyph glyph-name="iogonek" unicode="&#x12f;" horiz-adv-x="279" 
d="M190 465v-453q0 -7 -5 -12q-53 -62 -53 -94q0 -16 10 -24.5t24 -8.5q17 0 51 17l10 5q3 0 5 -6l10 -28q4 -11 -8 -19q-29 -20 -71 -20q-45 0 -67.5 23t-22.5 55q0 56 51 100q-10 0 -10 12v406h-78q-12 0 -12 12v38q0 12 12 12h141q13 0 13 -15zM85 656q0 26 18 44t44 18
t44 -18t18 -44t-18 -44t-44 -18t-44 18t-18 44z" />
    <glyph glyph-name="Idotaccent" unicode="&#x130;" horiz-adv-x="374" 
d="M228 65h91q12 0 12 -12v-41q0 -12 -12 -12h-264q-12 0 -12 12v41q0 12 12 12h91v555h-91q-12 0 -12 12v41q0 12 12 12h264q12 0 12 -12v-41q0 -12 -12 -12h-91v-555zM123 805q0 25 19.5 44.5t44.5 19.5t44.5 -19.5t19.5 -44.5t-19.5 -44.5t-44.5 -19.5t-44.5 19.5
t-19.5 44.5z" />
    <glyph glyph-name="dotlessi" unicode="&#x131;" horiz-adv-x="279" 
d="M190 465v-453q0 -12 -12 -12h-52q-12 0 -12 12v406h-78q-12 0 -12 12v38q0 12 12 12h141q13 0 13 -15z" />
    <glyph glyph-name="Jcircumflex" unicode="&#x134;" horiz-adv-x="451" 
d="M367 673v-504q0 -84 -43 -131q-48 -52 -141 -52q-89 0 -134 54q-42 51 -42 128v16q0 12 12 12h52q12 0 12 -12v-9q0 -122 105 -122q49 0 73 30.5t24 83.5v448h-175q-12 0 -12 12v46q0 12 12 12h245q12 0 12 -12zM237 799l-98 -52q-7 -4 -10 -4q-2 0 -6 4l-16 20
q0 1 -1.5 2t-2 2.5t-0.5 3.5q0 6 8 10l111 77q9 6 15 6t15 -6l111 -77q8 -4 8 -10l-4 -8l-16 -20q-4 -4 -6 -4q-3 0 -10 4z" />
    <glyph glyph-name="jcircumflex" unicode="&#x135;" horiz-adv-x="260" 
d="M190 465v-518q0 -18 -2 -34.5t-10.5 -40t-23 -40.5t-42.5 -29.5t-66 -12.5q-62 0 -112 25q-16 8 -11 22l19 42q2 5 8 5h1q3 0 6 -1.5l10 -5t15 -6.5q35 -14 63 -14q11 0 20 2t16 4.5t12 9t8.5 9.5t6 12.5t4 12.5t2 15t0.5 14v16v13v453h-79q-12 0 -12 12v38q0 12 12 12
h142q13 0 13 -15zM130 625l-91 -60q-6 -4 -9 -4q-5 0 -9 6l-15 20q-3 6 -3 7q0 4 8 10l110 88q8 5 9 5q2 0 9 -5l110 -88q8 -6 8 -10q0 -1 -3 -7l-15 -20q-4 -6 -9 -6q-3 0 -9 4z" />
    <glyph glyph-name="Kcommaaccent" unicode="&#x136;" horiz-adv-x="518" 
d="M430 -5l-251 331h-2v-314q0 -12 -12 -12h-58q-12 0 -12 12v661q0 12 12 12h58q12 0 12 -12v-328h2l256 347q5 7 10 7q3 0 9 -4l39 -28q6 -6 6 -7q0 -2 -5 -9l-234 -311l241 -303q7 -9 -4 -16l-44 -30q-5 -5 -12 -5q-4 0 -11 9zM261 -57h69q6 0 6 -5q0 -2 -2 -6
q-1 -2 -1 -3l-90 -170q-3 -7 -8 -7q-1 0 -7 2l-21 7q-5 2 -5 5q0 5 1 8l46 160q3 9 12 9z" />
    <glyph glyph-name="kcommaaccent" unicode="&#x137;" horiz-adv-x="447" 
d="M242 258l178 -226q5 -5 5 -9q0 -3 -3 -5l-41 -28q-8 -4 -9 -4q-3 0 -11 8l-204 252h-2v-234q0 -12 -12 -12h-52q-12 0 -12 12v686q0 10 8 12l52 13q4 1 9 1q7 0 7 -13v-451l201 228q6 6 10 6t7 -3l39 -27q6 -4 6 -8t-7 -11zM215 -57h69q6 0 6 -5q0 -2 -2 -6q-1 -2 -1 -3
l-90 -170q-3 -7 -8 -7q-1 0 -7 2l-21 7q-5 2 -5 5q0 5 1 8l46 160q3 9 12 9z" />
    <glyph glyph-name="Lacute" unicode="&#x139;" horiz-adv-x="444" 
d="M175 70h254q7 0 10 -3q2 -2 0 -12l-16 -44q-4 -11 -16 -11h-302q-12 0 -12 12v661q0 12 12 12h58q12 0 12 -12v-603zM142 776l164 102q6 3 8 3q4 0 7 -4l29 -50q3 -5 3 -9q0 -6 -11 -10l-172 -69q-1 0 -5 -1.5t-6 -1.5q-4 0 -7 4l-13 24q-2 3 -2 6q0 4 5 6z" />
    <glyph glyph-name="lacute" unicode="&#x13a;" horiz-adv-x="259" 
d="M253 55l14 -39q3 -7 -4 -12q-35 -18 -80 -18q-49 0 -77 25q-21 18 -27 54q-4 23 -4 84v549q0 10 8 12l52 13q4 1 9 1q7 0 7 -13v-569q0 -50 3 -64q7 -30 42 -30q18 0 39 9q10 4 14 4t4 -6zM235 880l29 -43q4 -8 4 -9q0 -4 -9 -10l-166 -86q-4 -2 -7 -2t-7 4l-13 19
q-4 5 -4 8q0 5 4 7l149 115q8 5 10 5q5 0 10 -8z" />
    <glyph glyph-name="Lcommaaccent" unicode="&#x13b;" horiz-adv-x="444" 
d="M175 70h254q7 0 10 -3q2 -2 0 -12l-16 -44q-4 -11 -16 -11h-302q-12 0 -12 12v661q0 12 12 12h58q12 0 12 -12v-603zM241 -57h69q6 0 6 -5q0 -2 -2 -6q-1 -2 -1 -3l-90 -170q-3 -7 -8 -7q-1 0 -7 2l-21 7q-5 2 -5 5q0 5 1 8l46 160q3 9 12 9z" />
    <glyph glyph-name="lcommaaccent" unicode="&#x13c;" horiz-adv-x="259" 
d="M253 55l14 -39q3 -7 -4 -12q-35 -18 -80 -18q-49 0 -77 25q-21 18 -27 54q-4 23 -4 84v549q0 10 8 12l52 13q4 1 9 1q7 0 7 -13v-569q0 -50 3 -64q7 -30 42 -30q18 0 39 9q10 4 14 4t4 -6zM141 -57h69q6 0 6 -5l-3 -9l-90 -170q-3 -7 -8 -7q-1 0 -7 2l-21 7q-5 2 -5 5
q0 5 1 8l46 160q3 9 12 9z" />
    <glyph glyph-name="Lcaron" unicode="&#x13d;" horiz-adv-x="444" 
d="M175 70h254q7 0 10 -3q2 -2 0 -12l-16 -44q-4 -11 -16 -11h-302q-12 0 -12 12v661q0 12 12 12h58q12 0 12 -12v-603zM339 717h69q6 0 6 -5l-3 -9l-90 -170q-3 -7 -8 -7q-1 0 -7 2l-21 7q-5 2 -5 5q0 5 1 8l46 160q3 9 12 9z" />
    <glyph glyph-name="lcaron" unicode="&#x13e;" horiz-adv-x="259" 
d="M253 55l14 -39q3 -7 -4 -12q-35 -18 -80 -18q-49 0 -77 25q-21 18 -27 54q-4 23 -4 84v549q0 10 8 12l52 13q4 1 9 1q7 0 7 -13v-569q0 -50 3 -64q7 -30 42 -30q18 0 39 9q10 4 14 4t4 -6zM259 717h69q6 0 6 -5l-3 -9l-90 -170q-3 -7 -8 -7q-1 0 -7 2l-21 7q-5 2 -5 5
q0 5 1 8l46 160q3 9 12 9z" />
    <glyph glyph-name="Ldot" unicode="&#x13f;" horiz-adv-x="444" 
d="M175 70h254q7 0 10 -3q2 -2 2 -5t-2 -7l-16 -44q-4 -11 -16 -11h-302q-12 0 -12 12v661q0 12 12 12h58q12 0 12 -12v-603zM402 356q0 -26 -18.5 -44t-43.5 -18q-26 0 -44 18.5t-18 43.5t18 43.5t44 18.5t44 -18t18 -44z" />
    <glyph glyph-name="ldot" unicode="&#x140;" horiz-adv-x="394" 
d="M253 55l14 -39q3 -7 -4 -12q-35 -18 -80 -18q-49 0 -77 25q-21 18 -27 54q-4 23 -4 84v549q0 10 8 12l52 13q4 1 9 1q7 0 7 -13v-569q0 -50 3 -64q7 -30 42 -30q18 0 39 9q10 4 14 4t4 -6zM372 383q0 -26 -18.5 -44t-43.5 -18q-26 0 -44 18.5t-18 43.5t18 43.5t44 18.5
t44 -18.5t18 -43.5z" />
    <glyph glyph-name="Lslash" unicode="&#x141;" horiz-adv-x="444" 
d="M175 70h254q7 0 10 -3q2 -2 0 -12l-16 -44q-4 -11 -16 -11h-302q-12 0 -12 12v258l-71 -46q-10 -6 -10 4v47q0 11 9 16l72 47v335q0 12 12 12h58q12 0 12 -12v-282l136 89q10 6 10 -4v-47q0 -11 -9 -16l-137 -89v-254z" />
    <glyph glyph-name="lslash" unicode="&#x142;" horiz-adv-x="281" 
d="M275 55l14 -39q3 -7 -4 -12q-35 -18 -80 -18q-49 0 -77 25q-21 20 -27 54q-4 22 -4 114v72l-74 -67q-4 -4 -7 -4q-5 0 -5 7v54q0 7 5 9l81 74v374q0 10 8 12l52 13q4 1 9 1q7 0 7 -13v-318l90 83q4 4 7 4q5 0 5 -7v-54q0 -7 -5 -9l-97 -89v-179q0 -50 3 -64q7 -30 42 -30
q18 0 39 9q10 4 14 4t4 -6z" />
    <glyph glyph-name="Nacute" unicode="&#x143;" horiz-adv-x="589" 
d="M499 673v-661q0 -12 -12 -12h-56q-12 0 -16 10l-230 494q-12 24 -26 85h-3q10 -56 10 -89v-488q0 -12 -12 -12h-52q-12 0 -12 12v661q0 12 12 12h68q11 0 15 -9l219 -462q10 -19 26 -85h3q-10 56 -10 89v455q0 12 12 12h52q12 0 12 -12zM263 776l164 102q6 3 8 3
q4 0 7 -4l29 -50q3 -5 3 -9q0 -6 -11 -10l-172 -69q-1 0 -5 -1.5t-6 -1.5q-4 0 -7 4l-13 24q-2 3 -2 6q0 4 5 6z" />
    <glyph glyph-name="nacute" unicode="&#x144;" horiz-adv-x="519" 
d="M87 12v359q0 41 -12 67l-3 6q-5 9 -5 15q0 3 5 6l47 26q12 7 21 -11q12 -22 16 -54q78 68 166 68q33 0 55.5 -11t34 -25t17 -38t6.5 -38t1 -38v-332q0 -12 -12 -12h-52q-12 0 -12 12v334q0 81 -65 81q-69 0 -132 -61v-354q0 -12 -12 -12h-52q-12 0 -12 12zM405 700
l29 -43q4 -8 4 -9q0 -4 -9 -10l-166 -86q-4 -2 -7 -2t-7 4l-13 19q-4 5 -4 8q0 5 4 7l149 115q8 5 10 5q5 0 10 -8z" />
    <glyph glyph-name="Ncommaaccent" unicode="&#x145;" horiz-adv-x="589" 
d="M499 673v-661q0 -12 -12 -12h-56q-12 0 -16 10l-230 494q-12 24 -26 85h-3q10 -56 10 -89v-488q0 -12 -12 -12h-52q-12 0 -12 12v661q0 12 12 12h68q11 0 15 -9l219 -462q10 -19 26 -85h3q-10 56 -10 89v455q0 12 12 12h52q12 0 12 -12zM261 -57h69q6 0 6 -5q0 -2 -2 -6
q-1 -2 -1 -3l-90 -170q-3 -7 -8 -7q-1 0 -7 2l-21 7q-5 2 -5 5q0 5 1 8l46 160q3 9 12 9z" />
    <glyph glyph-name="ncommaaccent" unicode="&#x146;" horiz-adv-x="519" 
d="M87 12v359q0 41 -12 67l-3 6q-5 9 -5 15q0 3 5 6l47 26q12 7 21 -11q12 -22 16 -54q78 68 166 68q33 0 55.5 -11t34 -25t17 -38t6.5 -38t1 -38v-332q0 -12 -12 -12h-52q-12 0 -12 12v334q0 81 -65 81q-69 0 -132 -61v-354q0 -12 -12 -12h-52q-12 0 -12 12zM231 -57h69
q6 0 6 -5q0 -2 -2 -6q-1 -2 -1 -3l-90 -170q-3 -7 -8 -7q-1 0 -7 2l-21 7q-5 2 -5 5q0 5 1 8l46 160q3 9 12 9z" />
    <glyph glyph-name="Ncaron" unicode="&#x147;" horiz-adv-x="589" 
d="M499 673v-661q0 -12 -12 -12h-56q-12 0 -16 10l-230 494q-12 24 -26 85h-3q10 -56 10 -89v-488q0 -12 -12 -12h-52q-12 0 -12 12v661q0 12 12 12h68q11 0 15 -9l219 -462q10 -19 26 -85h3q-10 56 -10 89v455q0 12 12 12h52q12 0 12 -12zM300 812l98 52q7 4 10 4q2 0 6 -4
l16 -20q0 -1 1.5 -2t2 -2.5t0.5 -3.5q0 -6 -8 -10l-111 -77q-9 -6 -15 -6t-15 6l-111 77q-8 4 -8 10l4 8l16 20q4 4 6 4q3 0 10 -4z" />
    <glyph glyph-name="ncaron" unicode="&#x148;" horiz-adv-x="519" 
d="M87 12v359q0 41 -12 67l-3 6q-5 9 -5 15q0 3 5 6l47 26q12 7 21 -11q12 -22 16 -54q78 68 166 68q33 0 55.5 -11t34 -25t17 -38t6.5 -38t1 -38v-332q0 -12 -12 -12h-52q-12 0 -12 12v334q0 81 -65 81q-69 0 -132 -61v-354q0 -12 -12 -12h-52q-12 0 -12 12zM399 654
l-110 -88q-7 -5 -9 -5t-9 5l-110 88q-8 6 -8 10q0 1 3 7l15 20q4 6 9 6q3 0 9 -4l91 -60l91 60q6 4 9 4q5 0 9 -6l15 -20q3 -6 3 -7q0 -4 -8 -10z" />
    <glyph glyph-name="Omacron" unicode="&#x14c;" horiz-adv-x="556" 
d="M278 -14q-32 0 -60 7.5t-59.5 30.5t-54 60.5t-37.5 104t-15 154.5q0 30 1.5 55t7.5 71.5t21 82.5t38.5 71.5t64 55.5t93.5 20q31 0 59 -7t59.5 -30.5t54.5 -60.5t38 -103.5t15 -154.5t-15 -154.5t-38 -104t-55 -61t-59.5 -30.5t-58.5 -7zM278 53q28 0 50.5 11t36.5 26.5
t24 42.5t14.5 48t7.5 54.5t3 50v46.5v11q0 49 -2 83t-9.5 76t-21.5 68t-40 44t-63 18q-28 0 -50.5 -11.5t-36.5 -27t-24 -43t-14.5 -49t-7 -54.5t-3 -50t-0.5 -47v-7q0 -133 18 -190q30 -100 118 -100zM393 770h-226h-4t-4 1t-4 4t-1 8v37q0 13 13 13h226h4t4 -1t4 -4t1 -8
v-37q0 -6 -2.5 -9.5t-4.5 -3.5h-6z" />
    <glyph glyph-name="omacron" unicode="&#x14d;" 
d="M250 494q35 0 67.5 -12t63.5 -39t49.5 -79.5t18.5 -123.5t-18.5 -123.5t-49.5 -79.5t-63.5 -39t-67.5 -12t-67.5 12t-63.5 39t-49.5 79.5t-18.5 123.5t18.5 123.5t49.5 79.5t63.5 39t67.5 12zM250 432q-117 0 -117 -192t117 -192t117 192t-117 192zM127 610v38
q0 12 12 12h221q12 0 12 -12v-38q0 -12 -12 -12h-221q-12 0 -12 12z" />
    <glyph glyph-name="Obreve" unicode="&#x14e;" horiz-adv-x="556" 
d="M278 -14q-32 0 -60 7.5t-59.5 30.5t-54 60.5t-37.5 104t-15 154.5q0 30 1.5 55t7.5 71.5t21 82.5t38.5 71.5t64 55.5t93.5 20q31 0 59 -7t59.5 -30.5t54.5 -60.5t38 -103.5t15 -154.5t-15 -154.5t-38 -104t-55 -61t-59.5 -30.5t-58.5 -7zM278 53q28 0 50.5 11t36.5 26.5
t24 42.5t14.5 48t7.5 54.5t3 50v46.5v11q0 49 -2 83t-9.5 76t-21.5 68t-40 44t-63 18q-28 0 -50.5 -11.5t-36.5 -27t-24 -43t-14.5 -49t-7 -54.5t-3 -50t-0.5 -47v-7q0 -133 18 -190q30 -100 118 -100zM362 866l40 -7q8 -3 8 -6q1 -2 1 -5q0 -14 -9 -34q-14 -33 -43 -52
q-31 -21 -79 -21t-79 21q-29 19 -43 52q-9 20 -9 34q0 9 7 11h2l40 7q1 0 3 0.5t3 0.5q9 0 11 -13q4 -20 10 -30q17 -30 55 -30t55 30q6 10 10 30q3 14 17 12z" />
    <glyph glyph-name="obreve" unicode="&#x14f;" 
d="M250 494q35 0 67.5 -12t63.5 -39t49.5 -79.5t18.5 -123.5t-18.5 -123.5t-49.5 -79.5t-63.5 -39t-67.5 -12t-67.5 12t-63.5 39t-49.5 79.5t-18.5 123.5t18.5 123.5t49.5 79.5t63.5 39t67.5 12zM250 432q-117 0 -117 -192t117 -192t117 192t-117 192zM327 682l41 -7
q11 -2 11 -15q0 -1 -0.5 -3t-0.5 -3q-13 -61 -58 -87q-30 -17 -70 -17t-70 17q-45 26 -58 87q0 1 -0.5 3t-0.5 3q0 13 11 15l41 7h5q4 0 6 -5l3 -12q15 -62 63 -62t63 62l3 12q1 7 11 5z" />
    <glyph glyph-name="Ohungarumlaut" unicode="&#x150;" horiz-adv-x="556" 
d="M278 -14q-32 0 -60 7.5t-59.5 30.5t-54 60.5t-37.5 104t-15 154.5q0 30 1.5 55t7.5 71.5t21 82.5t38.5 71.5t64 55.5t93.5 20q31 0 59 -7t59.5 -30.5t54.5 -60.5t38 -103.5t15 -154.5t-15 -154.5t-38 -104t-55 -61t-59.5 -30.5t-58.5 -7zM278 53q28 0 50.5 11t36.5 26.5
t24 42.5t14.5 48t7.5 54.5t3 50v46.5v11q0 49 -2 83t-9.5 76t-21.5 68t-40 44t-63 18q-28 0 -50.5 -11.5t-36.5 -27t-24 -43t-14.5 -49t-7 -54.5t-3 -50t-0.5 -47v-7q0 -133 18 -190q30 -100 118 -100zM319 896l33 -34q6 -6 6 -10q0 -5 -4 -7l-142 -103q-5 -4 -9 -4t-7 3
l-17 17q-3 3 -3 6q0 4 4 8l121 122q7 7 10 7t8 -5zM466 896l33 -34q6 -6 6 -10q0 -5 -4 -7l-142 -103q-5 -4 -9 -4t-7 3l-17 17q-3 3 -3 6q0 4 4 8l121 122q7 7 10 7t8 -5z" />
    <glyph glyph-name="ohungarumlaut" unicode="&#x151;" 
d="M250 494q35 0 67.5 -12t63.5 -39t49.5 -79.5t18.5 -123.5t-18.5 -123.5t-49.5 -79.5t-63.5 -39t-67.5 -12t-67.5 12t-63.5 39t-49.5 79.5t-18.5 123.5t18.5 123.5t49.5 79.5t63.5 39t67.5 12zM250 432q-117 0 -117 -192t117 -192t117 192t-117 192zM299 664l-127 -113
q-7 -5 -10 -5q-4 0 -9 5l-11 10q-7 7 -7 10q0 1 5 9l105 131q8 8 10 8l9 -6l34 -31q7 -7 7 -10q0 -2 -6 -8zM435 664l-127 -113q-7 -5 -10 -5q-4 0 -9 5l-11 10q-7 7 -7 10q0 1 5 9l105 131q8 8 10 8l9 -6l34 -31q7 -7 7 -10q0 -2 -6 -8z" />
    <glyph glyph-name="OE" unicode="&#x152;" horiz-adv-x="761" 
d="M405 685h314q14 0 10 -10l-17 -51q-2 -9 -13 -9h-224v-222h197q12 0 12 -12v-46q0 -12 -12 -12h-197v-253h240q12 0 12 -12v-46q0 -12 -12 -12h-310q-12 0 -12 12v30q-50 -56 -124 -56q-104 0 -161 93q-56 93 -56 264q0 176 57 265q58 91 166 91q71 0 118 -47v21
q0 12 12 12zM393 114v455l-11 12q-47 51 -106 51q-69 0 -103 -74q-31 -67 -31 -215q0 -142 30 -212q33 -78 104 -78q56 0 117 61z" />
    <glyph glyph-name="oe" unicode="&#x153;" horiz-adv-x="778" 
d="M710 90l19 -47q5 -9 -12 -18q-73 -39 -148 -39q-111 0 -164 91q-53 -91 -160 -91q-25 0 -49 5t-52 21.5t-48.5 43t-34.5 73.5t-14 109q0 61 14 108.5t35 74.5t49.5 44t52.5 23t49 6q46 0 89.5 -23.5t69.5 -65.5q28 49 71 69t83 20q73 0 121 -48q61 -62 61 -195
q0 -21 -11 -21h-287q0 -60 22 -105q17 -35 49 -53.5t67 -18.5q48 0 107 33l15 8q5 0 6 -4zM248 48q36 0 60.5 15.5t36.5 45t16.5 61.5t4.5 75q0 27 -3 51.5t-13.5 59t-37 55.5t-66.5 21q-117 0 -117 -184q0 -200 119 -200zM444 292h216q-2 54 -26 93q-28 47 -79 47
q-44 0 -78 -35.5t-33 -104.5z" />
    <glyph glyph-name="Racute" unicode="&#x154;" horiz-adv-x="527" 
d="M333 319l166 -303q4 -8 4 -10q0 -6 -11 -8l-63 -12q-10 -2 -15 8l-165 318h-72v-300q0 -12 -12 -12h-58q-12 0 -12 12v661q0 12 12 12h155q29 0 51.5 -2t53 -12t50 -27.5t34 -51.5t14.5 -81q0 -75 -36.5 -123.5t-95.5 -68.5zM177 377h65q19 0 30.5 0.5t35.5 7t38 18.5
t25.5 37t11.5 61q0 31 -7.5 52.5t-18.5 33.5t-29.5 18.5t-34.5 8t-39 1.5h-77v-238zM223 776l164 102q6 3 8 3q4 0 7 -4l29 -50q3 -5 3 -9q0 -6 -11 -10l-172 -69q-1 0 -5 -1.5t-6 -1.5q-4 0 -7 4l-13 24q-2 3 -2 6q0 4 5 6z" />
    <glyph glyph-name="racute" unicode="&#x155;" horiz-adv-x="315" 
d="M150 410l14 16q19 22 28.5 32t32.5 23t47 13q18 0 38 -8q12 -4 7 -14l-24 -55q-2 -6 -6 -6q-1 0 -2.5 0.5t-3.5 2t-5 2.5q-8 4 -18 4q-32 0 -81 -59l-16 -20v-329q0 -12 -12 -12h-52q-12 0 -12 12v343q0 40 -17 76l-7 14q-4 8 -4 11q0 5 4 8l40 26q2 1 3 2t2 1.5t2 0.5h2
q8 -1 17 -16q17 -32 23 -68zM325 700l29 -43q4 -8 4 -9q0 -4 -9 -10l-166 -86q-4 -2 -7 -2t-7 4l-13 19q-4 5 -4 8q0 5 4 7l149 115q7 5 10 5q5 0 10 -8z" />
    <glyph glyph-name="Rcommaaccent" unicode="&#x156;" horiz-adv-x="527" 
d="M333 319l166 -303q4 -8 4 -10q0 -6 -11 -8l-63 -12q-10 -2 -15 8l-165 318h-72v-300q0 -12 -12 -12h-58q-12 0 -12 12v661q0 12 12 12h155q29 0 51.5 -2t53 -12t50 -27.5t34 -51.5t14.5 -81q0 -75 -36.5 -123.5t-95.5 -68.5zM177 377h65q19 0 30.5 0.5t35.5 7t38 18.5
t25.5 37t11.5 61q0 31 -7.5 52.5t-18.5 33.5t-29.5 18.5t-34.5 8t-39 1.5h-77v-238zM255 -57h69q6 0 6 -5q0 -2 -2 -6q-1 -2 -1 -3l-90 -170q-3 -7 -8 -7q-1 0 -7 2l-21 7q-5 2 -5 5q0 5 1 8l46 160q3 9 12 9z" />
    <glyph glyph-name="rcommaaccent" unicode="&#x157;" horiz-adv-x="315" 
d="M150 410l14 16q19 22 28.5 32t32.5 23t47 13q18 0 38 -8q12 -4 7 -14l-24 -55q-2 -6 -6 -6q-1 0 -2.5 0.5t-3.5 2t-5 2.5q-8 4 -18 4q-32 0 -81 -59l-16 -20v-329q0 -12 -12 -12h-52q-12 0 -12 12v343q0 40 -17 76l-7 14q-4 8 -4 11q0 5 4 8l40 26q2 1 3 2t2 1.5t2 0.5h2
q8 -1 17 -16q17 -32 23 -68zM149 -57h69q6 0 6 -5l-3 -9l-90 -170q-3 -7 -8 -7q-1 0 -7 2l-21 7q-5 2 -5 5q0 5 1 8l46 160q3 9 12 9z" />
    <glyph glyph-name="Rcaron" unicode="&#x158;" horiz-adv-x="527" 
d="M333 319l166 -303q4 -8 4 -10q0 -6 -11 -8l-63 -12q-10 -2 -15 8l-165 318h-72v-300q0 -12 -12 -12h-58q-12 0 -12 12v661q0 12 12 12h155q29 0 51.5 -2t53 -12t50 -27.5t34 -51.5t14.5 -81q0 -75 -36.5 -123.5t-95.5 -68.5zM177 377h65q19 0 30.5 0.5t35.5 7t38 18.5
t25.5 37t11.5 61q0 31 -7.5 52.5t-18.5 33.5t-29.5 18.5t-34.5 8t-39 1.5h-77v-238zM270 812l98 52q7 4 10 4q2 0 6 -4l16 -20q0 -1 1.5 -2t2 -2.5t0.5 -3.5q0 -6 -8 -10l-111 -77q-9 -6 -15 -6t-15 6l-111 77q-8 4 -8 10l4 8l16 20q4 4 6 4q3 0 10 -4z" />
    <glyph glyph-name="rcaron" unicode="&#x159;" horiz-adv-x="315" 
d="M150 410l14 16q19 22 28.5 32t32.5 23t47 13q18 0 38 -8q12 -4 7 -14l-24 -55q-2 -6 -6 -6q-1 0 -2.5 0.5t-3.5 2t-5 2.5q-8 4 -18 4q-32 0 -81 -59l-16 -20v-329q0 -12 -12 -12h-52q-12 0 -12 12v343q0 40 -17 76l-7 14q-4 8 -4 11q0 5 4 8l40 26q2 1 3 2t2 1.5t2 0.5h2
q8 -1 17 -16q17 -32 23 -68zM329 654l-110 -88q-7 -5 -9 -5t-9 5l-110 88q-8 6 -8 10q0 1 3 7l15 20q4 6 9 6q3 0 9 -4l91 -60l91 60q6 4 9 4q5 0 9 -6l15 -20q3 -6 3 -7q0 -4 -8 -10z" />
    <glyph glyph-name="Sacute" unicode="&#x15a;" horiz-adv-x="463" 
d="M407 638l-17 -43q-4 -9 -9 -9q-3 0 -17 7l-11 5.5t-12.5 6t-12.5 6t-14.5 6t-15 4.5t-18 4.5t-18.5 2.5t-21 1q-50 0 -78.5 -28t-28.5 -72q0 -26 8.5 -46t28.5 -37t37 -27.5t50 -27.5q56 -29 88 -54q80 -63 80 -155q0 -80 -54.5 -138t-151.5 -58q-88 0 -178 45
q-18 8 -18 13q0 6 2 10l17 43q4 9 9 9t22 -10q80 -40 142 -40t91 35.5t29 80.5q0 13 -2.5 24.5t-5 20.5t-10 19t-11.5 16t-15 15t-15.5 13t-18 12l-18 10.5l-20 11t-18.5 10.5q-39 22 -59.5 35t-47.5 37.5t-39 54.5t-12 69q0 73 51.5 126t142.5 53q84 0 156 -39
q18 -10 13 -22zM183 776l164 102q6 3 8 3q4 0 7 -4l29 -50q3 -5 3 -9q0 -6 -11 -10l-172 -69q-1 0 -5 -1.5t-6 -1.5q-4 0 -7 4l-13 24q-2 3 -2 6q0 4 5 6z" />
    <glyph glyph-name="sacute" unicode="&#x15b;" horiz-adv-x="389" 
d="M327 446l-17 -37q-3 -7 -10 -7l-15 6q-46 21 -83 21q-38 0 -57.5 -19t-19.5 -48q0 -18 6 -31t22 -24.5t28.5 -18t40.5 -19.5q32 -15 47 -23t37 -25.5t31.5 -41t9.5 -54.5q0 -66 -47.5 -102.5t-112.5 -36.5q-71 0 -135 32q-17 11 -17 16q0 6 1 7l19 40q2 5 6 5h3
q2 0 27 -12q48 -23 98 -23q39 0 60.5 19.5t21.5 52.5q0 23 -14 40t-29 25t-53 26q-26 12 -38.5 18.5t-33 20t-29.5 26.5t-17 33t-8 45q0 60 40.5 98.5t106.5 38.5q32 0 70 -10q33 -9 52 -20q14 -8 9 -18zM305 700l29 -43q4 -8 4 -9q0 -4 -9 -10l-166 -86q-4 -2 -7 -2t-7 4
l-13 19q-4 5 -4 8q0 5 4 7l149 115q7 5 10 5q5 0 10 -8z" />
    <glyph glyph-name="Scircumflex" unicode="&#x15c;" horiz-adv-x="463" 
d="M407 638l-17 -43q-4 -9 -9 -9q-3 0 -17 7l-11 5.5t-12.5 6t-12.5 6t-14.5 6t-15 4.5t-18 4.5t-18.5 2.5t-21 1q-50 0 -78.5 -28t-28.5 -72q0 -26 8.5 -46t28.5 -37t37 -27.5t50 -27.5q56 -29 88 -54q80 -63 80 -155q0 -80 -54.5 -138t-151.5 -58q-88 0 -178 45
q-18 8 -18 13q0 6 2 10l17 43q4 9 9 9t22 -10q80 -40 142 -40t91 35.5t29 80.5q0 13 -2.5 24.5t-5 20.5t-10 19t-11.5 16t-15 15t-15.5 13t-18 12l-18 10.5l-20 11t-18.5 10.5q-39 22 -59.5 35t-47.5 37.5t-39 54.5t-12 69q0 73 51.5 126t142.5 53q84 0 156 -39
q18 -10 13 -22zM237 799l-98 -52q-7 -4 -10 -4q-2 0 -6 4l-16 20q0 1 -1.5 2t-2 2.5t-0.5 3.5q0 6 8 10l111 77q9 6 15 6t15 -6l111 -77q8 -4 8 -10l-4 -8l-16 -20q-4 -4 -6 -4q-3 0 -10 4z" />
    <glyph glyph-name="scircumflex" unicode="&#x15d;" horiz-adv-x="389" 
d="M327 446l-17 -37q-3 -7 -10 -7l-15 6q-46 21 -83 21q-38 0 -57.5 -19t-19.5 -48q0 -18 6 -31t22 -24.5t28.5 -18t40.5 -19.5q32 -15 47 -23t37 -25.5t31.5 -41t9.5 -54.5q0 -66 -47.5 -102.5t-112.5 -36.5q-71 0 -135 32q-17 11 -17 16q0 6 1 7l19 40q2 5 6 5h3
q2 0 27 -12q48 -23 98 -23q39 0 60.5 19.5t21.5 52.5q0 23 -14 40t-29 25t-53 26q-26 12 -38.5 18.5t-33 20t-29.5 26.5t-17 33t-8 45q0 60 40.5 98.5t106.5 38.5q32 0 70 -10q33 -9 52 -20q14 -8 9 -18zM200 625l-91 -60q-6 -4 -9 -4q-5 0 -9 6l-15 20q-3 6 -3 7q0 4 8 10
l110 88q7 5 9 5t9 -5l110 -88q8 -6 8 -10q0 -1 -3 -7l-15 -20q-4 -6 -9 -6q-3 0 -9 4z" />
    <glyph glyph-name="Scedilla" unicode="&#x15e;" horiz-adv-x="463" 
d="M407 638l-17 -43q-4 -9 -9 -9q-3 0 -17 7l-11 5.5t-12.5 6t-12.5 6t-14.5 6t-15 4.5t-18 4.5t-18.5 2.5t-21 1q-50 0 -78.5 -28t-28.5 -72q0 -60 60 -101q11 -8 66.5 -38t85.5 -53q80 -62 80 -155q0 -76 -50 -132.5t-137 -62.5l-4 -43q25 0 45 -10q32 -17 32 -54
q0 -44 -37 -66q-26 -16 -69 -16q-26 0 -44 6q-14 4 -16.5 8t0.5 12l5 31q0 7 7 7q1 0 3 -0.5t5 -1.5l6 -2q26 -6 39 -6q39 0 39 25q0 20 -38 22l-19 1q-9 1 -11.5 1t-7.5 3.5t-3 9.5t1 19l7 56q-67 9 -137 42q-18 8 -18 13q0 6 2 10l17 43q4 9 9 9t22 -10q80 -40 142 -40
t91 35.5t29 80.5q0 13 -2.5 24.5t-5 20.5t-10 19t-11.5 16t-15 15t-15.5 13t-18 12l-18 10.5l-20 11t-18.5 10.5q-39 22 -59.5 35t-47.5 37.5t-39 54.5t-12 69q0 73 51.5 126t142.5 53q84 0 156 -39q18 -10 13 -22z" />
    <glyph glyph-name="scedilla" unicode="&#x15f;" horiz-adv-x="389" 
d="M327 446l-17 -37q-3 -7 -10 -7l-15 6q-46 21 -83 21q-38 0 -57.5 -19t-19.5 -48q0 -18 6 -31t22 -24.5t28.5 -18t40.5 -19.5q32 -15 47 -23t37 -25.5t31.5 -41t9.5 -54.5q0 -56 -39 -95t-104 -43l-4 -41q22 0 43 -9q34 -16 34 -55q0 -37 -28 -58.5t-75 -21.5q-23 0 -46 7
q-15 6 -14 12l5 38q0 5 5 5l8 -2q3 -1 4 -1q13 -5 39 -5q41 0 41 23q0 20 -40 22l-18 1q-12 1 -16 6.5t-2 25.5l6 56q-55 8 -94 28q-17 11 -17 16q0 6 1 7l19 40q2 5 6 5h3q2 0 27 -12q48 -23 98 -23q39 0 60.5 19.5t21.5 52.5q0 23 -14 40t-29 25t-53 26q-26 12 -38.5 18.5
t-33 20t-29.5 26.5t-17 33t-8 45q0 60 40.5 98.5t106.5 38.5q32 0 70 -10q33 -9 52 -20q14 -8 9 -18z" />
    <glyph glyph-name="Scaron" unicode="&#x160;" horiz-adv-x="463" 
d="M407 638l-17 -43q-4 -9 -9 -9q-3 0 -17 7l-11 5.5t-12.5 6t-12.5 6t-14.5 6t-15 4.5t-18 4.5t-18.5 2.5t-21 1q-50 0 -78.5 -28t-28.5 -72q0 -26 8.5 -46t28.5 -37t37 -27.5t50 -27.5q56 -29 88 -54q80 -63 80 -155q0 -80 -54.5 -138t-151.5 -58q-88 0 -178 45
q-18 8 -18 13q0 6 2 10l17 43q4 9 9 9t22 -10q80 -40 142 -40t91 35.5t29 80.5q0 13 -2.5 24.5t-5 20.5t-10 19t-11.5 16t-15 15t-15.5 13t-18 12l-18 10.5l-20 11t-18.5 10.5q-39 22 -59.5 35t-47.5 37.5t-39 54.5t-12 69q0 73 51.5 126t142.5 53q84 0 156 -39
q18 -10 13 -22zM240 812l98 52q7 4 10 4q2 0 6 -4l16 -20q0 -1 1.5 -2t2 -2.5t0.5 -3.5q0 -6 -8 -10l-111 -77q-9 -6 -15 -6t-15 6l-111 77q-8 4 -8 10l4 8l16 20q4 4 6 4q3 0 10 -4z" />
    <glyph glyph-name="scaron" unicode="&#x161;" horiz-adv-x="389" 
d="M327 446l-17 -37q-3 -7 -10 -7l-15 6q-46 21 -83 21q-38 0 -57.5 -19t-19.5 -48q0 -18 6 -31t22 -24.5t28.5 -18t40.5 -19.5q32 -15 47 -23t37 -25.5t31.5 -41t9.5 -54.5q0 -66 -47.5 -102.5t-112.5 -36.5q-71 0 -135 32q-17 11 -17 16q0 6 1 7l19 40q2 5 6 5h3
q2 0 27 -12q48 -23 98 -23q39 0 60.5 19.5t21.5 52.5q0 23 -14 40t-29 25t-53 26q-26 12 -38.5 18.5t-33 20t-29.5 26.5t-17 33t-8 45q0 60 40.5 98.5t106.5 38.5q32 0 70 -10q33 -9 52 -20q14 -8 9 -18zM319 654l-110 -88q-7 -5 -9 -5q-1 0 -9 5l-110 88q-8 6 -8 10
q0 1 3 7l15 20q4 6 9 6q3 0 9 -4l91 -60l91 60q6 4 9 4q5 0 9 -6l15 -20q3 -6 3 -7q0 -4 -8 -10z" />
    <glyph glyph-name="Tcommaaccent" unicode="&#x162;" horiz-adv-x="461" 
d="M266 615v-603q0 -12 -12 -12h-58q-12 0 -12 12v603h-149q-12 0 -12 12v46q0 12 12 12h394q15 0 10 -15l-16 -44q-4 -11 -16 -11h-141zM207 -57h69q6 0 6 -5q0 -2 -2 -6q-1 -2 -1 -3l-90 -170q-3 -7 -8 -7q-1 0 -7 2l-21 7q-5 2 -5 5q0 5 1 8l46 160q3 9 12 9z" />
    <glyph glyph-name="tcommaaccent" unicode="&#x163;" horiz-adv-x="352" 
d="M175 418v-284q0 -20 1.5 -31.5t6.5 -24.5t17.5 -19t32.5 -6q40 0 82 21q12 6 14 6h2q4 0 7 -6l12 -39q1 -5 1 -9t-10 -10t-32 -14q-42 -16 -87 -16q-62 0 -94 35q-29 32 -29 113v284h-70q-12 0 -12 12v38q0 12 12 12h70v137q0 9 11 12l53 15q13 4 12 -8v-2v-154h148
q14 0 10 -14l-13 -39q-3 -9 -13 -9h-132zM167 -57h69q6 0 6 -5q0 -2 -2 -6q-1 -2 -1 -3l-90 -170q-3 -7 -8 -7q-1 0 -7 2l-21 7q-5 2 -5 5q0 5 1 8l46 160q3 9 12 9z" />
    <glyph glyph-name="Tcaron" unicode="&#x164;" horiz-adv-x="461" 
d="M266 615v-603q0 -12 -12 -12h-58q-12 0 -12 12v603h-149q-12 0 -12 12v46q0 12 12 12h394q15 0 10 -15l-16 -44q-4 -11 -16 -11h-141zM226 812l98 52q7 4 10 4q2 0 6 -4l16 -20q0 -1 1.5 -2t2 -2.5t0.5 -3.5q0 -6 -8 -10l-111 -77q-9 -6 -15 -6t-15 6l-111 77q-8 4 -8 10
l4 8l16 20q4 4 6 4q3 0 10 -4z" />
    <glyph glyph-name="tcaron" unicode="&#x165;" horiz-adv-x="352" 
d="M175 418v-284q0 -20 1.5 -31.5t6.5 -24.5t17.5 -19t32.5 -6q40 0 82 21q12 6 14 6h2q4 0 7 -6l12 -39q1 -5 1 -9t-10 -10t-32 -14q-42 -16 -87 -16q-62 0 -94 35q-29 32 -29 113v284h-70q-12 0 -12 12v38q0 12 12 12h70v137q0 9 11 12l53 15q13 4 12 -8v-2v-154h148
q14 0 10 -14l-13 -39q-3 -9 -13 -9h-132zM279 737h69q6 0 6 -5l-3 -9l-90 -170q-3 -7 -8 -7q-1 0 -7 2l-21 7q-5 2 -5 5q0 5 1 8l46 160q3 9 12 9z" />
    <glyph glyph-name="Umacron" unicode="&#x16a;" horiz-adv-x="594" 
d="M511 673v-489q0 -18 -1.5 -34t-13 -48.5t-32 -55.5t-64 -41.5t-103.5 -18.5t-103.5 18.5t-64 41.5t-32 55.5t-13 48.5t-1.5 34v489q0 12 12 12h58q12 0 12 -12v-487q0 -21 4 -39.5t16 -42t41 -37.5t71 -14t71 14t41 37.5t16 42t4 39.5v487q0 12 12 12h58q12 0 12 -12z
M409 770h-226h-4t-4 1t-4 4t-1 8v37q0 13 13 13h226h4t4 -1t4 -4t1 -8v-37q0 -6 -2.5 -9.5t-4.5 -3.5h-6z" />
    <glyph glyph-name="umacron" unicode="&#x16b;" horiz-adv-x="518" 
d="M368 37l-3 8q-72 -59 -148 -59q-45 0 -74 13t-42 37t-17 46.5t-4 53.5v332q0 10 7 12l54 13q11 2 14 -2q1 -2 1 -6v-351q0 -43 22 -62t55 -19q52 0 119 51v364q0 10 7 12l54 13q10 2 12 0q2 0 2 -2q1 -2 1 -6v-378q0 -18 8 -40q1 -3 15 -31l7 -14q0 -4 -8 -8l-40 -25
q-13 -8 -25 13q-13 24 -17 35zM141 610v38q0 12 12 12h221q12 0 12 -12v-38q0 -12 -12 -12h-221q-12 0 -12 12z" />
    <glyph glyph-name="Ubreve" unicode="&#x16c;" horiz-adv-x="594" 
d="M511 673v-489q0 -18 -1.5 -34t-13 -48.5t-32 -55.5t-64 -41.5t-103.5 -18.5t-103.5 18.5t-64 41.5t-32 55.5t-13 48.5t-1.5 34v489q0 12 12 12h58q12 0 12 -12v-487q0 -21 4 -39.5t16 -42t41 -37.5t71 -14t71 14t41 37.5t16 42t4 39.5v487q0 12 12 12h58q12 0 12 -12z
M378 866l40 -7l2 -1q3 0 4 -0.5t2 -3t1 -6.5q0 -14 -9 -34q-14 -33 -43 -52q-31 -21 -79 -21t-79 21q-29 19 -43 52q-9 20 -9 34q0 4 1 6.5t2 3t4 0.5l2 1l40 7q1 0 3 0.5t3 0.5q9 0 11 -13q4 -20 10 -30q17 -30 55 -30t55 30q6 10 10 30q3 14 17 12z" />
    <glyph glyph-name="ubreve" unicode="&#x16d;" horiz-adv-x="518" 
d="M368 37l-3 8q-72 -59 -148 -59q-45 0 -74 13t-42 37t-17 46.5t-4 53.5v332q0 10 7 12l54 13q11 2 14 -2q1 -2 1 -6v-351q0 -43 22 -62t55 -19q52 0 119 51v364q0 10 7 12l54 13q10 2 12 0q2 0 2 -2q1 -2 1 -6v-378q0 -18 8 -40q1 -3 15 -31l7 -14q0 -4 -8 -8l-40 -25
q-13 -8 -25 13q-13 24 -17 35zM341 682l41 -7q11 -2 11 -15q0 -1 -0.5 -3t-0.5 -3q-13 -61 -58 -87q-30 -17 -70 -17t-70 17q-45 26 -58 87q0 1 -0.5 3t-0.5 3q0 13 11 15l41 7h5q4 0 6 -5l3 -12q15 -62 63 -62t63 62l3 12q1 7 11 5z" />
    <glyph glyph-name="Uring" unicode="&#x16e;" horiz-adv-x="594" 
d="M511 673v-489q0 -18 -1.5 -34t-13 -48.5t-32 -55.5t-64 -41.5t-103.5 -18.5t-103.5 18.5t-64 41.5t-32 55.5t-13 48.5t-1.5 34v489q0 12 12 12h58q12 0 12 -12v-487q0 -21 4 -39.5t16 -42t41 -37.5t71 -14t71 14t41 37.5t16 42t4 39.5v487q0 12 12 12h58q12 0 12 -12z
M212 822q0 38 26 64t64 26t64 -26t26 -64t-26 -64t-64 -26t-64 26t-26 64zM258 822q0 -18 13 -31t31 -13t31 13t13 31t-13 31t-31 13t-31 -13t-13 -31z" />
    <glyph glyph-name="uring" unicode="&#x16f;" horiz-adv-x="518" 
d="M368 37l-3 8q-72 -59 -148 -59q-45 0 -74 13t-42 37t-17 46.5t-4 53.5v332q0 10 7 12l54 13q11 2 14 -2q1 -2 1 -6v-351q0 -43 22 -62t55 -19q52 0 119 51v364q0 10 7 12l54 13q10 2 12 0q2 0 2 -2q1 -2 1 -6v-378q0 -18 8 -40q1 -3 15 -31l7 -14q0 -4 -8 -8l-40 -25
q-13 -8 -25 13q-13 24 -17 35zM174 629q0 37 26 63.5t64 26.5t64 -26.5t26 -63.5t-26 -63.5t-64 -26.5t-64 26.5t-26 63.5zM222 629q0 -17 13 -29.5t29 -12.5t29 12.5t13 29.5t-13 29.5t-29 12.5t-29 -12.5t-13 -29.5z" />
    <glyph glyph-name="Uhungarumlaut" unicode="&#x170;" horiz-adv-x="594" 
d="M511 673v-489q0 -18 -1.5 -34t-13 -48.5t-32 -55.5t-64 -41.5t-103.5 -18.5t-103.5 18.5t-64 41.5t-32 55.5t-13 48.5t-1.5 34v489q0 12 12 12h58q12 0 12 -12v-487q0 -21 4 -39.5t16 -42t41 -37.5t71 -14t71 14t41 37.5t16 42t4 39.5v487q0 12 12 12h58q12 0 12 -12z
M338 896l33 -34q6 -6 6 -10q0 -5 -4 -7l-142 -103q-5 -4 -9 -4t-7 3l-17 17q-3 3 -3 6q0 4 4 8l121 122q7 7 10 7t8 -5zM485 896l33 -34q6 -6 6 -10q0 -5 -4 -7l-142 -103q-5 -4 -9 -4t-7 3l-17 17q-3 3 -3 6q0 4 4 8l121 122q7 7 10 7t8 -5z" />
    <glyph glyph-name="uhungarumlaut" unicode="&#x171;" horiz-adv-x="518" 
d="M368 37l-3 8q-72 -59 -148 -59q-45 0 -74 13t-42 37t-17 46.5t-4 53.5v332q0 10 7 12l54 13q11 2 14 -2q1 -2 1 -6v-351q0 -43 22 -62t55 -19q52 0 119 51v364q0 10 7 12l54 13q10 2 12 0q2 0 2 -2q1 -2 1 -6v-378q0 -18 8 -40q1 -3 15 -31l7 -14q0 -4 -8 -8l-40 -25
q-13 -8 -25 13q-13 24 -17 35zM339 664l-127 -113q-7 -5 -10 -5q-4 0 -9 5l-11 10q-7 7 -7 10q0 1 5 9l105 131q8 8 10 8l9 -6l34 -31q7 -7 7 -10q0 -2 -6 -8zM475 664l-127 -113q-7 -5 -10 -5q-4 0 -9 5l-11 10q-7 7 -7 10q0 1 5 9l105 131q8 8 10 8l9 -6l34 -31
q7 -7 7 -10q0 -2 -6 -8z" />
    <glyph glyph-name="Uogonek" unicode="&#x172;" horiz-adv-x="594" 
d="M511 673v-489q0 -146 -122 -185q-50 -65 -50 -98q0 -32 32 -32q25 0 51 16q10 7 13 7t6 -6l10 -32q4 -12 -11 -19q-38 -19 -71 -19q-48 0 -69.5 24t-21.5 56q0 36 37 90h-18q-19 0 -35.5 2t-44 8t-49 20t-42 34t-32 55t-11.5 79v489q0 12 12 12h58q12 0 12 -12v-487
q0 -21 4 -39.5t16 -42t41 -37.5t71 -14t71 14t41 37.5t16 42t4 39.5v487q0 12 12 12h58q12 0 12 -12z" />
    <glyph glyph-name="uogonek" unicode="&#x173;" horiz-adv-x="518" 
d="M352 104v364q0 10 7 12l54 13q4 1 8 1q7 0 7 -8v-356q0 -43 12 -72q8 -20 14 -28q0 -1 1 -2.5t2 -2.5t1 -4l-6 -8q-18 -20 -39 -49q-24 -35 -24 -58q0 -16 10 -24.5t24 -8.5q17 0 51 17l10 5q4 0 5 -6l10 -28q4 -11 -8 -19q-29 -20 -71 -20q-45 0 -67.5 23t-22.5 55
q0 40 41 95l11 15q-11 19 -17 35q-72 -59 -148 -59q-45 0 -74 13t-42 37t-17 46.5t-4 53.5v332q0 10 7 12l54 13q4 1 8 1q7 0 7 -9v-351q0 -43 22 -62t55 -19q52 0 119 51z" />
    <glyph glyph-name="Ydieresis" unicode="&#x178;" horiz-adv-x="481" 
d="M279 291v-279q0 -12 -12 -12h-58q-12 0 -12 12v277l-194 368q-3 6 -3 8q0 9 10 12l35 8l25 6q7 2 11 0q5 -2 9 -12l152 -313q6 15 28 62l122 253q6 13 19 10l60 -14q6 -2 8 -5q4 -6 -1 -15zM91 805q0 24 15.5 39.5t39.5 15.5t39.5 -15.5t15.5 -39.5t-15.5 -39.5
t-39.5 -15.5t-39.5 15.5t-15.5 39.5zM293 805q0 24 15.5 39.5t39.5 15.5t39.5 -15.5t15.5 -39.5t-15.5 -39.5t-39.5 -15.5t-39.5 15.5t-15.5 39.5z" />
    <glyph glyph-name="Zacute" unicode="&#x179;" horiz-adv-x="444" 
d="M427 58v-46q0 -12 -12 -12h-377q-12 0 -12 12v54l294 549h-269q-12 0 -12 7q0 3 2 8l16 44q4 11 16 11h331q12 0 12 -12v-50l-296 -553h295q12 0 12 -12zM193 776l164 102q6 3 8 3q4 0 7 -4l29 -50q3 -5 3 -9q0 -6 -11 -10l-172 -69q-1 0 -5 -1.5t-6 -1.5q-4 0 -7 4
l-13 24q-2 3 -2 6q0 4 5 6z" />
    <glyph glyph-name="zacute" unicode="&#x17a;" horiz-adv-x="419" 
d="M130 65h247q16 0 11 -12l-19 -44q-4 -9 -13 -9h-312h-2q-3 0 -4.5 0.5t-3 3t-1.5 8.5v40l251 363h-219q-12 0 -12 12v41v2q0 4 0.5 5.5t3 3t8.5 1.5h302q6 0 8.5 -1.5t3 -3t0.5 -5.5v-2v-41zM345 700l29 -43q4 -8 4 -9q0 -4 -9 -10l-166 -86q-4 -2 -7 -2t-7 4l-13 19
q-4 5 -4 8q0 5 4 7l149 115q8 5 10 5q5 0 10 -8z" />
    <glyph glyph-name="Zdotaccent" unicode="&#x17b;" horiz-adv-x="444" 
d="M427 58v-46q0 -12 -12 -12h-377q-12 0 -12 12v54l294 549h-269q-12 0 -12 7q0 3 2 8l16 44q4 11 16 11h331q12 0 12 -12v-50l-296 -553h295q12 0 12 -12zM166 805q0 25 19 44.5t45 19.5t45 -19.5t19 -44.5t-19 -44.5t-45 -19.5t-45 19.5t-19 44.5z" />
    <glyph glyph-name="zdotaccent" unicode="&#x17c;" horiz-adv-x="419" 
d="M130 65h247q16 0 11 -12l-19 -44q-4 -9 -13 -9h-312h-2q-3 0 -4.5 0.5t-3 3t-1.5 8.5v40l251 363h-219q-12 0 -12 12v41v2q0 4 0.5 5.5t3 3t8.5 1.5h302q6 0 8.5 -1.5t3 -3t0.5 -5.5v-2v-41zM160 626q0 25 17.5 42.5t42.5 17.5t42.5 -17.5t17.5 -42.5t-17.5 -42.5
t-42.5 -17.5t-42.5 17.5t-17.5 42.5z" />
    <glyph glyph-name="Zcaron" unicode="&#x17d;" horiz-adv-x="444" 
d="M427 58v-46q0 -12 -12 -12h-377q-12 0 -12 12v54l294 549h-269q-12 0 -12 7q0 3 2 8l16 44q4 11 16 11h331q12 0 12 -12v-50l-296 -553h295q12 0 12 -12zM236 812l98 52q7 4 10 4q2 0 6 -4l16 -20q0 -1 1.5 -2t2 -2.5t0.5 -3.5q0 -6 -8 -10l-111 -77q-9 -6 -15 -6t-15 6
l-111 77q-8 4 -8 10l4 8l16 20q4 4 6 4q3 0 10 -4z" />
    <glyph glyph-name="zcaron" unicode="&#x17e;" horiz-adv-x="419" 
d="M130 65h247q16 0 11 -12l-19 -44q-4 -9 -13 -9h-312h-2q-3 0 -4.5 0.5t-3 3t-1.5 8.5v40l251 363h-219q-12 0 -12 12v41v2q0 4 0.5 5.5t3 3t8.5 1.5h302q6 0 8.5 -1.5t3 -3t0.5 -5.5v-2v-41zM339 654l-110 -88q-7 -5 -9 -5t-9 5l-110 88q-8 6 -8 10q0 1 3 7l15 20
q4 6 9 6q3 0 9 -4l91 -60l91 60q6 4 9 4q5 0 9 -6l15 -20q3 -6 3 -7q0 -4 -8 -10z" />
    <glyph glyph-name="uni018F" unicode="&#x18f;" horiz-adv-x="535" 
d="M65 393h328q2 75 -16 136q-30 103 -117 103q-53 0 -105 -46q-15 -13 -18 -13q-2 0 -7 5l-27 35q-3 3 -3 7q0 11 13 21q61 58 153 58q98 0 157.5 -81.5t59.5 -266.5q0 -147 -35 -230q-58 -135 -194 -135q-127 0 -175 144q-31 95 -27 225l1 26q0 12 12 12zM392 323h-255
q-2 -123 25 -191q32 -79 100 -79q73 0 106 89q26 70 24 181z" />
    <glyph glyph-name="florin" unicode="&#x192;" 
d="M282 422l-99 -448q-8 -37 -18 -63.5t-30 -54.5t-55 -43t-84 -15q-34 0 -56.5 6t-17.5 20l14 41q2 5 7 6q11 -1 21 -4q17 -4 41 -4q61 0 87 56q7 15 18 59l99 444h-69q-8 0 -8 6q0 2 3 16l5 24q2 12 13 12h70l20 96q15 70 48 109t112 39q56 0 94 -19q7 -3 10 -5.5t4 -4
t0 -2.5l-1 -3l-18 -43q-3 -8 -19 -1q-45 20 -74 20q-23 0 -39 -8t-25 -25t-13 -29.5t-9 -36.5l-18 -87h141q8 0 8 -6q0 -2 -1 -6q-2 -2 -2 -4l-11 -30q-4 -12 -13 -12h-135z" />
    <glyph glyph-name="uni01CF" unicode="&#x1cf;" horiz-adv-x="374" 
d="M228 65h91q12 0 12 -12v-41q0 -12 -12 -12h-264q-12 0 -12 12v41q0 12 12 12h91v555h-91q-12 0 -12 12v41q0 12 12 12h264q12 0 12 -12v-41q0 -12 -12 -12h-91v-555zM187 812l98 52q7 4 10 4q2 0 6 -4l16 -20q0 -1 1.5 -2t2 -2.5t0.5 -3.5q0 -6 -8 -10l-111 -77
q-9 -6 -15 -6t-15 6l-111 77q-8 4 -8 10l4 8l16 20q4 4 6 4q3 0 10 -4z" />
    <glyph glyph-name="uni01D0" unicode="&#x1d0;" horiz-adv-x="279" 
d="M190 465v-453q0 -12 -12 -12h-52q-12 0 -12 12v406h-78q-12 0 -12 12v38q0 12 12 12h141q13 0 13 -15zM259 654l-110 -88q-7 -5 -9 -5t-9 5l-110 88q-8 6 -8 10q0 1 3 7l15 20q4 6 9 6q3 0 9 -4l91 -60l91 60q6 4 9 4q5 0 9 -6l15 -20q3 -6 3 -7q0 -4 -8 -10z" />
    <glyph glyph-name="uni01DD" unicode="&#x1dd;" horiz-adv-x="467" 
d="M73 392l-18 45q-1 2 -1 6q0 7 37 25q54 26 113 26q99 0 156 -63q62 -69 62 -191q0 -118 -56.5 -186t-143.5 -68q-180 0 -180 248v5q0 17 11 17h287v5q0 71 -35 116q-39 50 -103 50q-47 0 -110 -35q-8 -4 -12 -5h-2q-4 0 -5 5zM340 194h-216q0 -47 16 -85q25 -61 89 -61
q45 0 77.5 36t33.5 110z" />
    <glyph glyph-name="Gcaron" unicode="&#x1e6;" horiz-adv-x="537" 
d="M468 335v-286q0 -17 -14 -26q-63 -37 -154 -37q-248 0 -248 361q0 28 1.5 54t7.5 63t16 67.5t29 63t44.5 54.5t64 36t86.5 14q84 0 147 -47q12 -9 12 -16q0 -2 -3 -8l-20 -37q-5 -8 -9 -8t-12 6q-61 43 -117 43q-157 0 -157 -277q0 -85 16.5 -162t53.5 -109
q36 -31 91 -31q39 0 83 19v210h-80q-12 0 -12 12v41q0 12 12 12h150q12 0 12 -12zM290 812l98 52q7 4 10 4q2 0 6 -4l16 -20q0 -1 1.5 -2t2 -2.5t0.5 -3.5q0 -6 -8 -10l-111 -77q-9 -6 -15 -6t-15 6l-111 77q-8 4 -8 10l4 8l16 20q4 4 6 4q3 0 10 -4z" />
    <glyph glyph-name="gcaron" unicode="&#x1e7;" 
d="M413 362v-169l7 -227q3 -87 -46.5 -131.5t-129.5 -44.5q-89 0 -146 33q-1 1 -5 3t-6.5 3.5t-5 4t-4 4.5t-1.5 5q0 2 0.5 3.5t1.5 3t1 2.5l17 38q3 5 7 6q4 0 21 -9q57 -30 120 -30q104 0 100 108l-3 103q-64 -55 -135 -55q-67 0 -111 55.5t-44 165.5q0 72 16.5 125t45 81
t59.5 41t65 13q64 0 115 -37l7 -5q16 43 30 42q3 0 6 -2l45 -28q4 -3 4 -6v-1q0 -3 -5 -11q-26 -43 -26 -84zM337 130v270q-18 11 -46 19t-46 8q-112 0 -112 -181q0 -34 3 -59.5t11 -52t26.5 -40.5t46.5 -14q47 0 117 50zM357 654l-110 -88q-7 -5 -9 -5t-9 5l-110 88
q-8 6 -8 10q0 1 3 7l15 20q4 6 9 6q3 0 9 -4l91 -60l91 60q6 4 9 4q5 0 9 -6l15 -20q3 -6 3 -7q0 -4 -8 -10z" />
    <glyph glyph-name="Scommaaccent" unicode="&#x218;" horiz-adv-x="463" 
d="M407 638l-17 -43q-4 -9 -9 -9q-3 0 -17 7l-11 5.5t-12.5 6t-12.5 6t-14.5 6t-15 4.5t-18 4.5t-18.5 2.5t-21 1q-50 0 -78.5 -28t-28.5 -72q0 -26 8.5 -46t28.5 -37t37 -27.5t50 -27.5q56 -29 88 -54q80 -63 80 -155q0 -80 -54.5 -138t-151.5 -58q-88 0 -178 45
q-18 8 -18 13q0 6 2 10l17 43q4 9 9 9t22 -10q80 -40 142 -40t91 35.5t29 80.5q0 13 -2.5 24.5t-5 20.5t-10 19t-11.5 16t-15 15t-15.5 13t-18 12l-18 10.5l-20 11t-18.5 10.5q-39 22 -59.5 35t-47.5 37.5t-39 54.5t-12 69q0 73 51.5 126t142.5 53q84 0 156 -39
q18 -10 13 -22zM208 -57h69q6 0 6 -5q0 -2 -2 -6q-1 -2 -1 -3l-90 -170q-4 -7 -8 -7q-1 0 -7 2l-21 7q-5 2 -5 5q0 5 1 8l46 160q3 9 12 9z" />
    <glyph glyph-name="scommaaccent" unicode="&#x219;" horiz-adv-x="389" 
d="M327 446l-17 -37q-3 -7 -10 -7l-15 6q-46 21 -83 21q-38 0 -57.5 -19t-19.5 -48q0 -18 6 -31t22 -24.5t28.5 -18t40.5 -19.5q32 -15 47 -23t37 -25.5t31.5 -41t9.5 -54.5q0 -66 -47.5 -102.5t-112.5 -36.5q-71 0 -135 32q-17 11 -17 16q0 6 1 7l19 40q2 5 6 5h3
q2 0 27 -12q48 -23 98 -23q39 0 60.5 19.5t21.5 52.5q0 23 -14 40t-29 25t-53 26q-26 12 -38.5 18.5t-33 20t-29.5 26.5t-17 33t-8 45q0 60 40.5 98.5t106.5 38.5q32 0 70 -10q33 -9 52 -20q14 -8 9 -18zM169 -57h69q6 0 6 -5q0 -2 -2 -6q-1 -2 -1 -3l-90 -170q-3 -7 -8 -7
q-1 0 -7 2l-21 7q-5 2 -5 5q0 5 1 8l46 160q3 9 12 9z" />
    <glyph glyph-name="uni021A" unicode="&#x21a;" horiz-adv-x="461" 
d="M266 615v-603q0 -12 -12 -12h-58q-12 0 -12 12v603h-149q-12 0 -12 12v46q0 12 12 12h394q15 0 10 -15l-16 -44q-4 -11 -16 -11h-141zM207 -57h69q6 0 6 -5q0 -2 -2 -6q-1 -2 -1 -3l-90 -170q-3 -7 -8 -7q-1 0 -7 2l-21 7q-5 2 -5 5q0 5 1 8l46 160q3 9 12 9z" />
    <glyph glyph-name="uni021B" unicode="&#x21b;" horiz-adv-x="352" 
d="M175 418v-284q0 -20 1.5 -31.5t6.5 -24.5t17.5 -19t32.5 -6q40 0 82 21q12 6 14 6h2q4 0 7 -6l12 -39q1 -5 1 -9t-10 -10t-32 -14q-42 -16 -87 -16q-62 0 -94 35q-29 32 -29 113v284h-70q-12 0 -12 12v38q0 12 12 12h70v137q0 9 11 12l53 15q13 4 12 -8v-2v-154h148
q14 0 10 -14l-13 -39q-3 -9 -13 -9h-132zM167 -57h69q6 0 6 -5q0 -2 -2 -6q-1 -2 -1 -3l-90 -170q-3 -7 -8 -7q-1 0 -7 2l-21 7q-5 2 -5 5q0 5 1 8l46 160q3 9 12 9z" />
    <glyph glyph-name="uni0228" unicode="&#x228;" horiz-adv-x="483" 
d="M233 0h-126q-12 0 -12 12v661q0 12 12 12h314q14 0 10 -10l-17 -51q-2 -9 -13 -9h-224v-222h197q12 0 12 -12v-46q0 -12 -12 -12h-197v-253h240q12 0 12 -12v-46q0 -12 -12 -12h-124l-5 -56q25 0 45 -10q32 -17 32 -54q0 -44 -37 -66q-26 -16 -69 -16q-26 0 -44 6
q-17 6 -17 13q0 1 0.5 3.5t0.5 3.5l5 31q0 7 7 7q1 0 3 -0.5t5 -1.5l6 -2q26 -6 39 -6q39 0 39 25q0 20 -38 22l-19 1q-9 1 -11.5 1t-7.5 3.5t-3 9.5t1 19z" />
    <glyph glyph-name="uni0229" unicode="&#x229;" horiz-adv-x="467" 
d="M391 88l18 -45q1 -2 1 -6q0 -7 -37 -25q-44 -19 -84 -24l-4 -42q22 0 43 -9q34 -16 34 -55q0 -37 -28 -58.5t-75 -21.5q-23 0 -46 7q-15 6 -14 12l5 38q0 5 5 5l12 -3q13 -5 39 -5q41 0 41 23q0 20 -40 22l-18 1q-12 1 -16 6.5t-2 25.5l5 54q-37 4 -68.5 19.5t-59.5 43.5
t-44 76.5t-16 112.5q0 118 56 186t144 68q180 0 180 -248v-5q0 -17 -11 -17h-287v-5q0 -81 41 -123.5t97 -42.5q49 0 110 35q8 4 12 5h2q4 0 5 -5zM124 286h216q0 47 -16 85q-25 61 -89 61q-45 0 -77.5 -36t-33.5 -110z" />
    <glyph glyph-name="uni0237" unicode="&#x237;" horiz-adv-x="279" 
d="M190 465v-518q0 -18 -2 -34.5t-10.5 -40t-23 -40.5t-42.5 -29.5t-66 -12.5q-62 0 -112 25q-16 8 -11 22l19 42q2 5 8 5h1q3 0 6 -1.5l10 -5t15 -6.5q35 -14 63 -14q11 0 20 2t16 4.5t12 9t8.5 9.5t6 12.5t4 12.5t2 15t0.5 14v16v13v453h-79q-12 0 -12 12v38q0 12 12 12
h142q13 0 13 -15z" />
    <glyph glyph-name="uni0259" unicode="&#x259;" horiz-adv-x="467" 
d="M73 392l-18 45q-1 2 -1 6q0 7 37 25q54 26 113 26q99 0 156 -63q62 -69 62 -191q0 -118 -56.5 -186t-143.5 -68q-180 0 -180 248v5q0 17 11 17h287v5q0 71 -35 116q-39 50 -103 50q-47 0 -110 -35q-8 -4 -12 -5h-2q-4 0 -5 5zM340 194h-216q0 -47 16 -85q25 -61 89 -61
q45 0 77.5 36t33.5 110z" />
    <glyph glyph-name="afii57929" unicode="&#x2bc;" horiz-adv-x="166" 
d="M59 717h69q6 0 6 -5l-3 -9l-90 -170q-3 -7 -8 -7q-1 0 -7 2l-21 7q-5 2 -5 5q0 5 1 8l46 160q3 9 12 9z" />
    <glyph glyph-name="circumflex" unicode="&#x2c6;" 
d="M250 625l-91 -60q-6 -4 -9 -4q-5 0 -9 6l-15 20q-3 6 -3 7q0 4 8 10l110 88q8 5 9 5q2 0 9 -5l110 -88q8 -6 8 -10q0 -1 -3 -7l-15 -20q-4 -6 -9 -6q-3 0 -9 4z" />
    <glyph glyph-name="caron" unicode="&#x2c7;" 
d="M369 654l-110 -88q-7 -5 -9 -5t-9 5l-110 88q-8 6 -8 10q0 1 3 7l15 20q4 6 9 6q3 0 9 -4l91 -60l91 60q6 4 9 4q5 0 9 -6l15 -20q3 -6 3 -7q0 -4 -8 -10z" />
    <glyph glyph-name="uni02C9" unicode="&#x2c9;" 
d="M127 610v38q0 12 12 12h221q12 0 12 -12v-38q0 -12 -12 -12h-221q-12 0 -12 12z" />
    <glyph glyph-name="breve" unicode="&#x2d8;" 
d="M327 682l41 -7q11 -2 11 -15q0 -1 -0.5 -3t-0.5 -3q-13 -61 -58 -87q-30 -17 -70 -17t-70 17q-45 26 -58 87q0 1 -0.5 3t-0.5 3q0 13 11 15l41 7h5q4 0 6 -5l3 -12q15 -62 63 -62t63 62l3 12q1 7 11 5z" />
    <glyph glyph-name="dotaccent" unicode="&#x2d9;" 
d="M190 626q0 25 17.5 42.5t42.5 17.5t42.5 -17.5t17.5 -42.5t-17.5 -42.5t-42.5 -17.5t-42.5 17.5t-17.5 42.5z" />
    <glyph glyph-name="ring" unicode="&#x2da;" 
d="M160 629q0 37 26 63.5t64 26.5t64 -26.5t26 -63.5t-26 -63.5t-64 -26.5t-64 26.5t-26 63.5zM208 629q0 -17 13 -29.5t29 -12.5t29 12.5t13 29.5t-13 29.5t-29 12.5t-29 -12.5t-13 -29.5z" />
    <glyph glyph-name="ogonek" unicode="&#x2db;" 
d="M219 15l85 21l-16 -19q-66 -79 -66 -111q0 -16 10 -24.5t24 -8.5q17 0 51 17l10 5q3 0 5 -6l10 -28q2 -6 2 -7q0 -5 -10 -12q-29 -20 -71 -20q-45 0 -67.5 23t-22.5 55q0 39 41 94z" />
    <glyph glyph-name="tilde" unicode="&#x2dc;" 
d="M132 582l-27 11q-7 3 -7 9q0 4 5 15q31 64 87 64q22 0 61 -21q34 -20 48 -20q25 0 44 28q8 11 11 11q1 0 4 -1l3 -1l27 -11q7 -4 7 -9q0 -4 -5 -15q-30 -64 -87 -64q-26 0 -60 21q-33 20 -50 20q-25 0 -43 -28q-8 -11 -11 -11q-1 0 -4 1z" />
    <glyph glyph-name="hungarumlaut" unicode="&#x2dd;" 
d="M259 664l-127 -113q-7 -5 -10 -5q-4 0 -9 5l-11 10q-7 7 -7 10q0 1 5 9l105 131q8 8 10 8l9 -6l34 -31q7 -7 7 -10q0 -2 -6 -8zM395 664l-127 -113q-7 -5 -10 -5q-4 0 -9 5l-11 10q-7 7 -7 10q0 1 5 9l105 131q8 8 10 8l9 -6l34 -31q7 -7 7 -10q0 -2 -6 -8z" />
    <glyph glyph-name="acutecomb" unicode="&#x301;" horiz-adv-x="2" 
d="M-137 700l29 -43q4 -8 4 -9q0 -4 -9 -10l-166 -86q-4 -2 -7 -2t-7 4l-13 19q-4 5 -4 8q0 5 4 7l149 115q7 5 10 5q5 0 10 -8z" />
    <glyph glyph-name="uni0313" unicode="&#x313;" horiz-adv-x="166" 
d="M59 717h69q6 0 6 -5l-3 -9l-90 -170q-3 -7 -8 -7q-1 0 -7 2l-21 7q-5 2 -5 5q0 5 1 8l46 160q3 9 12 9z" />
    <glyph glyph-name="uni0315" unicode="&#x315;" horiz-adv-x="166" 
d="M59 717h69q6 0 6 -5l-3 -9l-90 -170q-3 -7 -8 -7q-1 0 -7 2l-21 7q-5 2 -5 5q0 5 1 8l46 160q3 9 12 9z" />
    <glyph glyph-name="uni0326" unicode="&#x326;" 
d="M241 -57h69q6 0 6 -5q0 -2 -2 -6q-1 -2 -1 -3l-90 -170q-3 -7 -8 -7q-1 0 -7 2l-21 7q-5 2 -5 5q0 5 1 8l46 160q3 9 12 9z" />
    <glyph glyph-name="uni037E" unicode="&#x37e;" horiz-adv-x="307" 
d="M244 410q0 -29 -20.5 -49.5t-49.5 -20.5q-28 0 -49 21t-21 49t21 49t49 21t49 -21t21 -49zM139 114h83q11 0 11 -7q0 -2 -4 -10l-115 -211q-4 -7 -6 -8q-1 -1 -4 -1q-2 0 -8 2l-26 9q-7 2 -7 7q0 3 2 9l59 199q4 11 15 11z" />
    <glyph glyph-name="tonos" unicode="&#x384;" horiz-adv-x="519" 
d="M350 681l-92 -118q-11 -11 -20 -4l-9 7q-11 8 -5 18l62 132q7 14 19 7l39 -24q13 -10 6 -18z" />
    <glyph glyph-name="dieresistonos" unicode="&#x385;" horiz-adv-x="494" 
d="M413 589q0 -22 -15.5 -37.5t-37.5 -15.5t-37.5 15.5t-15.5 37.5t15.5 37.5t37.5 15.5t37.5 -15.5t15.5 -37.5zM186 589q0 -22 -15 -37.5t-38 -15.5q-22 0 -37.5 15.5t-15.5 37.5t15.5 37.5t37.5 15.5q23 0 38 -15.5t15 -37.5zM344 696l-92 -118q-11 -11 -18 -4l-12 7
q-9 7 -4 18l62 132q7 14 19 7l39 -24q13 -10 6 -18z" />
    <glyph glyph-name="Alphatonos" unicode="&#x386;" horiz-adv-x="554" 
d="M171 204l-51 -192q-3 -9 -8 -11q-3 -1 -10 -1h-65q-5 0 -6.5 0.5t-3.5 3t1 8.5l203 662q4 11 15 11h59q11 0 15 -11l204 -662q3 -8 -2 -11q-2 -1 -10 -1h-66q-11 0 -14 11l-56 193h-205zM357 274l-60 221q-14 50 -23 95h-2q-7 -49 -21 -95l-61 -221h167zM88 661l-92 -118
q-11 -11 -20 -4l-9 7q-11 8 -5 18l62 132q7 14 19 7l39 -24q13 -10 6 -18z" />
    <glyph glyph-name="Epsilontonos" unicode="&#x388;" horiz-adv-x="483" 
d="M429 58v-46q0 -12 -12 -12h-310q-12 0 -12 12v661q0 12 12 12h314q14 0 10 -10l-17 -51q-2 -9 -13 -9h-224v-222h197q12 0 12 -12v-46q0 -12 -12 -12h-197v-253h240q12 0 12 -12zM20 661l-92 -118q-11 -11 -20 -4l-9 7q-11 8 -5 18l62 132q7 14 19 7l39 -24q13 -10 6 -18
z" />
    <glyph glyph-name="Etatonos" unicode="&#x389;" horiz-adv-x="611" 
d="M516 673v-661q0 -12 -12 -12h-58q-12 0 -12 12v309h-257v-309q0 -12 -12 -12h-58q-12 0 -12 12v661q0 12 12 12h58q12 0 12 -12v-282h257v282q0 12 12 12h58q12 0 12 -12zM20 661l-92 -118q-11 -11 -20 -4l-9 7q-11 8 -5 18l62 132q7 14 19 7l39 -24q13 -10 6 -18z" />
    <glyph glyph-name="Iotatonos" unicode="&#x38a;" horiz-adv-x="374" 
d="M228 65h91q12 0 12 -12v-41q0 -12 -12 -12h-264q-12 0 -12 12v41q0 12 12 12h91v555h-91q-12 0 -12 12v41q0 12 12 12h264q12 0 12 -12v-41q0 -12 -12 -12h-91v-555zM-8 661l-92 -118q-11 -11 -20 -4l-9 7q-11 8 -5 18l62 132q7 14 19 7l39 -24q13 -10 6 -18z" />
    <glyph glyph-name="Omicrontonos" unicode="&#x38c;" horiz-adv-x="556" 
d="M278 -14q-32 0 -60 7.5t-59.5 30.5t-54 60.5t-37.5 104t-15 154.5q0 30 1.5 55t7.5 71.5t21 82.5t38.5 71.5t64 55.5t93.5 20q31 0 59 -7t59.5 -30.5t54.5 -60.5t38 -103.5t15 -154.5t-15 -154.5t-38 -104t-55 -61t-59.5 -30.5t-58.5 -7zM278 53q28 0 50.5 11t36.5 26.5
t24 42.5t14.5 48t7.5 54.5t3 50v46.5v11q0 49 -2 83t-9.5 76t-21.5 68t-40 44t-63 18q-28 0 -50.5 -11.5t-36.5 -27t-24 -43t-14.5 -49t-7 -54.5t-3 -50t-0.5 -47v-7q0 -133 18 -190q30 -100 118 -100zM40 661l-92 -118q-11 -11 -20 -4l-9 7q-11 8 -5 18l62 132q7 14 19 7
l39 -24q13 -10 6 -18z" />
    <glyph glyph-name="Upsilontonos" unicode="&#x38e;" horiz-adv-x="481" 
d="M282 291v-279q0 -12 -12 -12h-58q-12 0 -12 12v277l-194 368q-3 6 -3 8q0 9 10 12l35 8l25 6q7 2 11 0q5 -2 9 -12l152 -313q6 15 28 62l122 253q6 13 19 10l60 -14q6 -2 8 -5q4 -6 -1 -15zM-29 661l-92 -118q-11 -11 -20 -4l-9 7q-11 8 -5 18l62 132q7 14 19 7l39 -24
q13 -10 6 -18z" />
    <glyph glyph-name="Omegatonos" unicode="&#x38f;" horiz-adv-x="614" 
d="M557 387q0 -94 -31 -169t-92 -107v-41h100q12 0 12 -11v-45q0 -9 -3 -11.5t-11 -2.5h-180v142q0 6 9 10q106 43 106 235q0 110 -37.5 177.5t-122.5 67.5t-122.5 -67.5t-37.5 -177.5q0 -192 106 -235q9 -4 9 -10v-142h-180q-8 0 -11 2.5t-3 11.5v45q0 11 12 11h100v41
q-61 32 -92 107t-31 169q0 62 14.5 117t44 99t78.5 70t113 26t113 -26t78.5 -70t44 -99t14.5 -117zM40 661l-92 -118q-11 -11 -20 -4l-9 7q-11 8 -5 18l62 132q7 14 19 7l39 -24q13 -10 6 -18z" />
    <glyph glyph-name="iotadieresistonos" unicode="&#x390;" horiz-adv-x="258" 
d="M170 465v-453q0 -12 -12 -12h-52q-12 0 -12 12v406h-50q-12 0 -12 12v38q0 12 12 12h113q13 0 13 -15zM286 589q0 -22 -15.5 -37.5t-37.5 -15.5t-37.5 15.5t-15.5 37.5t15.5 37.5t37.5 15.5t37.5 -15.5t15.5 -37.5zM59 589q0 -22 -15 -37.5t-38 -15.5q-22 0 -37.5 15.5
t-15.5 37.5t15.5 37.5t37.5 15.5q23 0 38 -15.5t15 -37.5zM217 696l-92 -118q-11 -11 -18 -4l-12 7q-9 7 -4 18l62 132q7 14 19 7l39 -24q13 -10 6 -18z" />
    <glyph glyph-name="Alpha" unicode="&#x391;" horiz-adv-x="554" 
d="M171 204l-51 -192q-3 -9 -8 -11q-3 -1 -10 -1h-65q-5 0 -6.5 0.5t-3.5 3t1 8.5l203 662q4 11 15 11h59q11 0 15 -11l204 -662q3 -8 -2 -11q-2 -1 -10 -1h-66q-11 0 -14 11l-56 193h-205zM357 274l-60 221q-14 50 -23 95h-2q-7 -49 -21 -95l-61 -221h167z" />
    <glyph glyph-name="Beta" unicode="&#x392;" horiz-adv-x="546" 
d="M107 685h156q28 0 49 -2t51.5 -11t50 -25t34 -48t14.5 -77q0 -111 -99 -163q53 -13 88 -54t35 -113q0 -100 -66 -154q-28 -23 -66.5 -30.5t-108.5 -7.5h-138q-12 0 -12 12v661q0 12 12 12zM177 383h63q132 0 132 130q0 34 -10 56t-28.5 31t-34 12t-38.5 3h-84v-232z
M177 70h89q14 0 27 1.5t33 8t34.5 18.5t25 36t10.5 56q0 34 -11 59t-26 37.5t-36 19.5t-34 8.5t-28 1.5h-84v-246z" />
    <glyph glyph-name="Gamma" unicode="&#x393;" horiz-adv-x="407" 
d="M431 678l-3 -12l-14 -42q-1 -4 -5 -7q-4 -2 -10 -2h-222v-601q0 -9 -3 -11.5t-11 -2.5h-56q-12 0 -12 12v661q0 12 12 12h311q13 0 13 -7z" />
    <glyph glyph-name="uni0394" unicode="&#x394;" horiz-adv-x="566" 
d="M327 674l211 -651q4 -9 4 -17q0 -6 -13 -6h-492q-13 0 -13 6q0 8 4 17l210 651q2 8 4 9.5t11 1.5h59q11 0 15 -11zM433 70l-129 425q-13 44 -23 95h-2q-17 -81 -21 -95l-125 -425h300z" />
    <glyph glyph-name="Epsilon" unicode="&#x395;" horiz-adv-x="483" 
d="M429 58v-46q0 -12 -12 -12h-310q-12 0 -12 12v661q0 12 12 12h314q14 0 10 -10l-17 -51q-2 -9 -13 -9h-224v-222h197q12 0 12 -12v-46q0 -12 -12 -12h-197v-253h240q12 0 12 -12z" />
    <glyph glyph-name="Zeta" unicode="&#x396;" horiz-adv-x="444" 
d="M427 52v-40q0 -12 -16 -12h-371q-8 0 -11 2.5t-3 11.5v52l294 549h-269q-12 0 -12 8q0 2 2 6.5t2 6.5l14 38q5 11 16 11h330q8 0 10.5 -2.5t2.5 -10.5v-49l-296 -553h289q9 0 13 -2.5t4.5 -5.5t0.5 -10z" />
    <glyph glyph-name="Eta" unicode="&#x397;" horiz-adv-x="611" 
d="M516 673v-661q0 -12 -12 -12h-58q-12 0 -12 12v309h-257v-309q0 -12 -12 -12h-58q-12 0 -12 12v661q0 12 12 12h58q12 0 12 -12v-282h257v282q0 12 12 12h58q12 0 12 -12z" />
    <glyph glyph-name="Theta" unicode="&#x398;" horiz-adv-x="556" 
d="M504 343q0 -167 -55.5 -262t-170.5 -95q-116 0 -171 95t-55 262q0 168 55 262t171 94q115 0 170.5 -94.5t55.5 -261.5zM143 391h270q-2 118 -33 179.5t-102 61.5t-101 -60.5t-34 -180.5zM414 321h-272q2 -135 31 -201.5t105 -66.5t105 66.5t31 201.5z" />
    <glyph glyph-name="Iota" unicode="&#x399;" horiz-adv-x="374" 
d="M228 65h91q12 0 12 -12v-41q0 -12 -12 -12h-264q-12 0 -12 12v41q0 12 12 12h91v555h-91q-12 0 -12 12v41q0 12 12 12h264q12 0 12 -12v-41q0 -12 -12 -12h-91v-555z" />
    <glyph glyph-name="Kappa" unicode="&#x39a;" horiz-adv-x="519" 
d="M504 32q0 -7 -7 -11l-40 -28q-10 -7 -14 -7q-6 0 -13 9l-251 331h-2v-314q0 -12 -12 -12h-58q-12 0 -12 12v661q0 12 12 12h58q12 0 12 -12v-328h2l255 346q8 8 12 8q2 0 3 -1t3.5 -2.5t5.5 -3.5l32 -22q9 -7 9 -10q0 -5 -6 -11l-233 -309l239 -300q5 -5 5 -8z" />
    <glyph glyph-name="Lambda" unicode="&#x39b;" horiz-adv-x="536" 
d="M508 6q0 -6 -14 -6h-62q-13 0 -18 11l-129 484q-7 26 -19 95h-2q-9 -66 -17 -95l-125 -484q-5 -11 -18 -11h-62q-14 0 -14 6q2 10 5 17l190 651q2 8 4.5 9.5t10.5 1.5h59q12 0 15 -11l191 -651q3 -7 5 -17z" />
    <glyph glyph-name="Mu" unicode="&#x39c;" horiz-adv-x="667" 
d="M331 268h2q3 32 13 62l119 345q4 10 11 10h65q12 0 12 -12l39 -661q0 -12 -12 -12h-58q-12 0 -12 12l-16 514q-1 19 1 52h-2q-6 -42 -12 -59l-121 -348q-4 -11 -15 -11h-30q-11 0 -15 11l-116 348q-4 11 -12 59h-2q2 -28 1 -52l-15 -514q0 -12 -12 -12h-58q-12 0 -12 12
l38 661q0 12 12 12h65q8 0 11 -10l118 -345q10 -30 13 -62z" />
    <glyph glyph-name="Nu" unicode="&#x39d;" horiz-adv-x="589" 
d="M499 673v-661q0 -12 -12 -12h-56q-12 0 -16 10l-230 494q-12 24 -26 85h-3q10 -56 10 -89v-488q0 -12 -12 -12h-52q-12 0 -12 12v661q0 12 12 12h68q11 0 15 -9l219 -462q10 -19 26 -85h3q-10 56 -10 89v455q0 12 12 12h52q12 0 12 -12z" />
    <glyph glyph-name="Xi" unicode="&#x39e;" horiz-adv-x="454" 
d="M422 679q0 -1 -3 -13l-14 -42q-3 -9 -15 -9h-122v-222h96q8 0 10.5 -2.5t2.5 -10.5v-44q0 -8 -2.5 -10.5t-10.5 -2.5h-96v-253h140q12 0 12 -11v-45q0 -9 -3 -11.5t-11 -2.5h-358q-8 0 -11 2.5t-3 11.5v45q0 11 12 11h140v253h-96q-8 0 -10.5 2.5t-2.5 10.5v44
q0 8 2.5 10.5t10.5 2.5h96v222h-122q-12 0 -15 9l-14 42q-3 12 -3 13q0 6 13 6h364q13 0 13 -6z" />
    <glyph glyph-name="Omicron" unicode="&#x39f;" horiz-adv-x="556" 
d="M278 -14q-32 0 -60 7.5t-59.5 30.5t-54 60.5t-37.5 104t-15 154.5q0 30 1.5 55t7.5 71.5t21 82.5t38.5 71.5t64 55.5t93.5 20q31 0 59 -7t59.5 -30.5t54.5 -60.5t38 -103.5t15 -154.5t-15 -154.5t-38 -104t-55 -61t-59.5 -30.5t-58.5 -7zM278 53q28 0 50.5 11t36.5 26.5
t24 42.5t14.5 48t7.5 54.5t3 50v46.5v11q0 49 -2 83t-9.5 76t-21.5 68t-40 44t-63 18q-28 0 -50.5 -11.5t-36.5 -27t-24 -43t-14.5 -49t-7 -54.5t-3 -50t-0.5 -47v-7q0 -133 18 -190q30 -100 118 -100z" />
    <glyph glyph-name="Pi" unicode="&#x3a0;" horiz-adv-x="601" 
d="M177 615v-603q0 -12 -12 -12h-58q-12 0 -12 12v661q0 12 12 12h387q12 0 12 -12v-661q0 -12 -12 -12h-58q-12 0 -12 12v603h-247z" />
    <glyph glyph-name="Rho" unicode="&#x3a1;" horiz-adv-x="511" 
d="M178 289v-277q0 -12 -12 -12h-58q-12 0 -12 12v661q0 12 12 12h155q21 0 34 -0.5t36.5 -4t39.5 -10t35 -20t30.5 -32.5t19.5 -48.5t8 -66.5q0 -59 -19.5 -102t-44.5 -64t-60 -32.5t-54 -13.5t-38 -2h-72zM178 359h65q20 0 34 1t36 8.5t36 21.5t24.5 41.5t10.5 66.5
t-10 64t-30.5 36t-39.5 14t-49 3h-77v-256z" />
    <glyph glyph-name="Sigma" unicode="&#x3a3;" horiz-adv-x="465" 
d="M434 679q0 -1 -3 -13l-14 -42q-3 -9 -15 -9h-249l168 -250q3 -5 3 -6q0 -3 -3 -7l-182 -282h275q9 0 13 -2.5t4.5 -5.5t0.5 -10v-40q0 -12 -16 -12h-361q-8 0 -11 2.5t-3 11.5v52l190 291l-180 266v49q0 8 2.5 10.5t10.5 2.5h357q13 0 13 -6z" />
    <glyph glyph-name="Tau" unicode="&#x3a4;" horiz-adv-x="461" 
d="M266 615v-603q0 -12 -12 -12h-58q-12 0 -12 12v603h-149q-12 0 -12 12v46q0 12 12 12h394q15 0 10 -15l-16 -44q-4 -11 -16 -11h-141z" />
    <glyph glyph-name="Upsilon" unicode="&#x3a5;" horiz-adv-x="481" 
d="M282 291v-279q0 -12 -12 -12h-58q-12 0 -12 12v277l-194 368q-3 6 -3 8q0 9 10 12l35 8l25 6q7 2 11 0q5 -2 9 -12l152 -313q6 15 28 62l122 253q6 13 19 10l60 -14q6 -2 8 -5q4 -6 -1 -15z" />
    <glyph glyph-name="Phi" unicode="&#x3a6;" horiz-adv-x="596" 
d="M561 404q0 -123 -58 -186t-164 -69v-137q0 -12 -12 -12h-58q-12 0 -12 12v137q-106 6 -164 68.5t-58 186.5q0 116 59 176t163 66v27q0 12 12 12h58q12 0 12 -12v-27q103 -6 162.5 -66t59.5 -176zM470 404q0 164 -131 175v-363q131 12 131 188zM257 216v363
q-131 -11 -131 -175q0 -176 131 -188z" />
    <glyph glyph-name="Chi" unicode="&#x3a7;" horiz-adv-x="481" 
d="M459 16l-50 -21q-4 -3 -8.5 -1t-11.5 15l-122 225q-10 16 -26 56l-23 -50l-125 -235q-1 -1 -3 -4t-2 -4q-5 -6 -14 -2l-50 17q-11 5 -11 11q0 3 1 5t2.5 4t1.5 3l174 322l-161 293l-5 10v2q0 7 11 11l35 12l15 5q10 4 17 -7l112 -206l25 -52q12 30 26 56l105 195
q7 13 11.5 15t8.5 -1l50 -21q11 -5 11 -11q0 -4 -5 -11l-164 -287l181 -322q5 -7 5 -11q0 -3 -1.5 -5t-2.5 -2.5t-4 -1.5z" />
    <glyph glyph-name="Psi" unicode="&#x3a8;" horiz-adv-x="571" 
d="M529 634v-257q0 -188 -203 -198v-167q0 -12 -12 -12h-58q-12 0 -12 12v167q-106 2 -154 52.5t-48 145.5v257q0 12 12 12h58q12 0 12 -12v-255q0 -129 120 -133v427q0 12 12 12h58q12 0 12 -12v-427q121 7 121 133v255q0 12 12 12h58q12 0 12 -12z" />
    <glyph glyph-name="uni03A9" unicode="&#x3a9;" horiz-adv-x="614" 
d="M557 387q0 -94 -31 -169t-92 -107v-41h100q12 0 12 -11v-45q0 -9 -3 -11.5t-11 -2.5h-180v142q0 6 9 10q106 43 106 235q0 110 -37.5 177.5t-122.5 67.5t-122.5 -67.5t-37.5 -177.5q0 -192 106 -235q9 -4 9 -10v-142h-180q-8 0 -11 2.5t-3 11.5v45q0 11 12 11h100v41
q-61 32 -92 107t-31 169q0 62 14.5 117t44 99t78.5 70t113 26t113 -26t78.5 -70t44 -99t14.5 -117z" />
    <glyph glyph-name="Iotadieresis" unicode="&#x3aa;" horiz-adv-x="374" 
d="M228 65h91q12 0 12 -12v-41q0 -12 -12 -12h-264q-12 0 -12 12v41q0 12 12 12h91v555h-91q-12 0 -12 12v41q0 12 12 12h264q12 0 12 -12v-41q0 -12 -12 -12h-91v-555zM31 805q0 24 15.5 39.5t39.5 15.5t39.5 -15.5t15.5 -39.5t-15.5 -39.5t-39.5 -15.5t-39.5 15.5
t-15.5 39.5zM233 805q0 24 15.5 39.5t39.5 15.5t39.5 -15.5t15.5 -39.5t-15.5 -39.5t-39.5 -15.5t-39.5 15.5t-15.5 39.5z" />
    <glyph glyph-name="Upsilondieresis" unicode="&#x3ab;" horiz-adv-x="481" 
d="M92 805q0 24 15.5 39.5t39.5 15.5t39.5 -15.5t15.5 -39.5t-15.5 -39.5t-39.5 -15.5t-39.5 15.5t-15.5 39.5zM294 805q0 24 15.5 39.5t39.5 15.5t39.5 -15.5t15.5 -39.5t-15.5 -39.5t-39.5 -15.5t-39.5 15.5t-15.5 39.5zM282 291v-279q0 -12 -12 -12h-58q-12 0 -12 12v277
l-194 368q-3 6 -3 8q0 9 10 12l35 8l25 6q7 2 11 0q5 -2 9 -12l152 -313q6 15 28 62l122 253q6 13 19 10l60 -14q6 -2 8 -5q4 -6 -1 -15z" />
    <glyph glyph-name="alphatonos" unicode="&#x3ac;" horiz-adv-x="495" 
d="M446 22q0 -4 -8 -9l-39 -24q-6 -3 -8 -3q-16 0 -31 47q-8 29 -7 34l-2 2q-56 -83 -145 -83q-54 0 -90.5 39t-50.5 92t-14 114q0 71 16 128t55 96t97 39q67 0 122 -44v18q0 10 8 12l50 12q1 0 12 2q7 0 7 -13v-323q0 -75 11 -100q2 -5 6.5 -13t7.5 -14t3 -9zM341 180v209
q-2 1 -10 6.5t-13 8t-14 7.5t-16.5 8t-17.5 6.5t-20 5t-20 1.5q-97 0 -97 -204q0 -27 1 -47t5.5 -47t13.5 -44t25.5 -29.5t39.5 -12.5q48 0 85.5 45.5t37.5 86.5zM350 681l-92 -118q-11 -11 -20 -4l-9 7q-11 8 -5 18l62 132q7 14 19 7l39 -24q13 -10 6 -18z" />
    <glyph glyph-name="epsilontonos" unicode="&#x3ad;" horiz-adv-x="450" 
d="M418 35q0 -13 -64.5 -30.5t-119.5 -17.5q-82 0 -132.5 33t-50.5 104q0 49 40 89t81 44q-37 4 -67.5 33t-30.5 66q0 60 52 99t129 39q62 0 136 -30q12 -4 12 -13q0 -2 -2 -5t-2 -5l-15 -27q-8 -12 -14 -12q-2 0 -19 7.5t-44 15t-53 7.5q-37 0 -67.5 -18.5t-30.5 -50.5
q0 -77 100 -77h75q11 0 11 -7q0 -1 -0.5 -3t-0.5 -4l-13 -39q-4 -9 -13 -9h-57q-49 0 -87 -23.5t-38 -71.5q0 -40 32 -60t74 -20q35 0 69.5 9.5t55.5 19t24 9.5q6 0 10 -9l16 -31q4 -4 4 -12zM354 681l-92 -118q-11 -11 -20 -4l-9 7q-11 8 -5 18l62 132q7 14 19 7l39 -24
q13 -10 6 -18z" />
    <glyph glyph-name="etatonos" unicode="&#x3ae;" horiz-adv-x="519" 
d="M87 12v359q0 41 -12 67l-3 6q-5 9 -5 15q0 3 5 6l47 26q12 7 21 -11q12 -22 16 -54q78 68 166 68q33 0 55.5 -11t34 -25t17 -38t6.5 -38t1 -38v-332q0 -12 -12 -12h-52q-12 0 -12 12v334q0 81 -65 81q-69 0 -132 -61v-354q0 -12 -12 -12h-52q-12 0 -12 12zM354 681
l-92 -118q-11 -11 -20 -4l-9 7q-11 8 -5 18l62 132q7 14 19 7l39 -24q13 -10 6 -18z" />
    <glyph glyph-name="iotatonos" unicode="&#x3af;" horiz-adv-x="258" 
d="M170 465v-453q0 -12 -12 -12h-52q-12 0 -12 12v406h-50q-12 0 -12 12v38q0 12 12 12h113q13 0 13 -15zM224 681l-92 -118q-11 -11 -20 -4l-9 7q-11 8 -5 18l62 132q7 14 19 7l39 -24q13 -10 6 -18z" />
    <glyph glyph-name="upsilondieresistonos" unicode="&#x3b0;" horiz-adv-x="494" 
d="M452 458q0 -3 -2.5 -7t-7 -12t-8.5 -18q-13 -36 -13 -74v-181q0 -93 -40 -136.5t-137 -43.5q-91 0 -131 43.5t-40 136.5v302q0 11 7 12l50 12q1 0 12 2q7 0 7 -13v-307q0 -65 22 -95.5t80 -30.5q54 0 74 30t20 96v203q0 37 15 69q22 48 34 48q3 0 9 -2l45 -28q4 -3 4 -6z
M416 589q0 -22 -15.5 -37.5t-37.5 -15.5t-37.5 15.5t-15.5 37.5t15.5 37.5t37.5 15.5t37.5 -15.5t15.5 -37.5zM189 589q0 -22 -15 -37.5t-38 -15.5q-22 0 -37.5 15.5t-15.5 37.5t15.5 37.5t37.5 15.5q23 0 38 -15.5t15 -37.5zM347 696l-92 -118q-11 -11 -18 -4l-12 7
q-9 7 -4 18l62 132q7 14 19 7l39 -24q13 -10 6 -18z" />
    <glyph glyph-name="alpha" unicode="&#x3b1;" horiz-adv-x="495" 
d="M446 22q0 -4 -8 -9l-39 -24q-6 -3 -8 -3q-16 0 -31 47q-8 29 -7 34l-2 2q-56 -83 -145 -83q-54 0 -90.5 39t-50.5 92t-14 114q0 71 16 128t55 96t97 39q67 0 122 -44v18q0 10 8 12l50 12q1 0 12 2q7 0 7 -13v-323q0 -75 11 -100q2 -5 6.5 -13t7.5 -14t3 -9zM341 180v209
q-2 1 -10 6.5t-13 8t-14 7.5t-16.5 8t-17.5 6.5t-20 5t-20 1.5q-97 0 -97 -204q0 -27 1 -47t5.5 -47t13.5 -44t25.5 -29.5t39.5 -12.5q48 0 85.5 45.5t37.5 86.5z" />
    <glyph glyph-name="beta" unicode="&#x3b2;" horiz-adv-x="520" 
d="M469 210q0 -100 -52 -162t-149 -62q-48 0 -75.5 11.5t-53.5 37.5q-21 -49 -32 -49q-5 0 -14 7l-25 16q-15 9 -15 13q0 2 2 5.5l6 10t7 13.5q16 28 16 71v380q0 44 8 81t27 70t56 52t89 19q72 0 119 -43t47 -106q0 -129 -82 -163q50 -16 85.5 -73.5t35.5 -128.5zM387 212
q0 68 -28.5 111.5t-85.5 43.5h-51q-12 0 -12 12v38q0 12 12 12h59q73 37 73 133q0 40 -27 70t-69 30q-98 0 -98 -162v-409q1 -1 7.5 -5.5t9 -6t8.5 -5.5t9.5 -5.5t9.5 -4.5t11 -4.5l11.5 -3.5t13.5 -2.5t14 -0.5q66 0 99.5 46.5t33.5 112.5z" />
    <glyph glyph-name="gamma" unicode="&#x3b3;" horiz-adv-x="406" 
d="M391 469q0 -1 -0.5 -3t-0.5 -4l-155 -461v-199q0 -12 -12 -12h-52q-12 0 -12 12v200l-142 460q-2 6 -2 7q0 5 9 6l50 11q1 0 4.5 1t5.5 0q4 0 7 -8l97 -343q2 -9 12 -70h1q7 60 11 70l104 343q2 8 6 8q2 1 5.5 0t4.5 -1l50 -11q9 -1 9 -6z" />
    <glyph glyph-name="delta" unicode="&#x3b4;" 
d="M449 238q0 -113 -50 -182.5t-155 -69.5q-98 0 -145.5 67t-47.5 180q0 94 38.5 160t113.5 83q-23 11 -36 18.5t-30.5 22t-25.5 34t-8 44.5q0 59 43 94t110 35q54 0 126 -40q11 -6 11 -13q0 -2 -2 -5t-2 -5l-13 -27q-6 -12 -12 -12q-2 0 -18.5 10t-41.5 20t-49 10
q-32 0 -54 -18t-22 -51q0 -23 16.5 -43t35.5 -30.5t55 -28t52 -27.5q52 -31 81.5 -89.5t29.5 -136.5zM367 239q0 183 -117 183t-117 -180q0 -93 26.5 -143.5t91.5 -50.5q63 0 89.5 49t26.5 142z" />
    <glyph glyph-name="epsilon" unicode="&#x3b5;" horiz-adv-x="450" 
d="M418 35q0 -13 -64.5 -30.5t-119.5 -17.5q-82 0 -132.5 33t-50.5 104q0 49 40 89t81 44q-37 4 -67.5 33t-30.5 66q0 60 52 99t129 39q62 0 136 -30q12 -4 12 -13q0 -2 -2 -5t-2 -5l-15 -27q-8 -12 -14 -12q-2 0 -19 7.5t-44 15t-53 7.5q-37 0 -67.5 -18.5t-30.5 -50.5
q0 -77 100 -77h75q11 0 11 -7q0 -1 -0.5 -3t-0.5 -4l-13 -39q-4 -9 -13 -9h-57q-49 0 -87 -23.5t-38 -71.5q0 -40 32 -60t74 -20q35 0 69.5 9.5t55.5 19t24 9.5q6 0 10 -9l16 -31q4 -4 4 -12z" />
    <glyph glyph-name="zeta" unicode="&#x3b6;" horiz-adv-x="420" 
d="M425 712v-37q-52 -50 -90 -91.5t-89.5 -108.5t-80 -138.5t-28.5 -140.5q0 -68 34 -97.5t110 -39.5q128 -16 128 -120q0 -35 -18.5 -66t-55.5 -72q-14 -14 -21 -11q-2 2 -5 4t-5 4l-23 21q-7 7 -5 12l3 4q3 4 5 6l8 8q5 6 17 19t17.5 19.5t10.5 17t5 20.5q0 23 -16.5 38.5
t-43.5 19.5q-119 17 -173 62t-54 151q0 67 27.5 137t78.5 136t86 104t88 89h-236q-7 0 -7 12v38q0 12 7 12h316q8 0 9 -2t1 -10z" />
    <glyph glyph-name="eta" unicode="&#x3b7;" horiz-adv-x="519" 
d="M87 12v359q0 41 -12 67l-3 6q-5 9 -5 15q0 3 5 6l47 26q12 7 21 -11q12 -22 16 -54q78 68 166 68q33 0 55.5 -11t34 -25t17 -38t6.5 -38t1 -38v-332q0 -12 -12 -12h-52q-12 0 -12 12v334q0 81 -65 81q-69 0 -132 -61v-354q0 -12 -12 -12h-52q-12 0 -12 12z" />
    <glyph glyph-name="theta" unicode="&#x3b8;" horiz-adv-x="510" 
d="M455 363q0 -100 -20 -182.5t-66.5 -138.5t-113.5 -56t-113.5 53t-66.5 133t-20 179q0 75 11.5 140.5t35 118.5t63 83.5t90.5 30.5q68 0 114 -50.5t66 -129.5t20 -181zM138 401h234q-2 52 -9 96.5t-20 82.5t-35.5 60t-52.5 22q-101 0 -117 -261zM373 339h-236
q1 -59 7.5 -108.5t19.5 -92t36.5 -66.5t54.5 -24t54.5 24t36.5 67t19.5 92t7.5 108z" />
    <glyph glyph-name="iota" unicode="&#x3b9;" horiz-adv-x="258" 
d="M170 465v-453q0 -12 -12 -12h-52q-12 0 -12 12v406h-50q-12 0 -12 12v38q0 12 12 12h113q13 0 13 -15z" />
    <glyph glyph-name="kappa" unicode="&#x3ba;" horiz-adv-x="428" 
d="M409 23q0 -1 -6 -7l-35 -24q-8 -6 -12 -6q-3 0 -11 8l-204 252h-2v-234q0 -12 -12 -12h-52q-12 0 -12 12v456q0 11 7 12l50 12q1 0 12 2q7 0 7 -13v-221l199 226q8 8 11 8q4 0 12 -6l35 -24q6 -6 6 -7q0 -5 -7 -12l-169 -187l176 -223q7 -7 7 -12z" />
    <glyph glyph-name="lambda" unicode="&#x3bb;" horiz-adv-x="436" 
d="M424 22q0 -2 -1 -3.5t-4 -2.5t-4 -2l-42 -17q-9 -4 -15 -4q-8 0 -10 8l-99 368q-4 15 -14 73h-3q-8 -50 -15 -73l-124 -368q-3 -8 -11 -8q-5 0 -14 4l-42 17q-1 1 -3.5 2t-3.5 2.5t-1 3.5q-1 9 2 14l156 436q4 9 13 9h31l-46 148q-6 20 -14.5 26.5t-29.5 6.5
q-16 0 -32.5 -8t-17.5 -8q-5 0 -7 6l-14 40q-2 6 -2 7q0 8 28.5 16.5t56.5 8.5q88 0 109 -77l170 -611q0 -1 1.5 -5.5t1.5 -8.5z" />
    <glyph glyph-name="uni03BC" unicode="&#x3bc;" 
d="M451 21q0 -1 -9 -8l-39 -24q-6 -3 -8 -3q-3 0 -6 2t-6 6t-5.5 8t-5.5 10.5l-5 10.5t-5 11.5t-4 10.5q-4 -2 -32.5 -21.5t-50.5 -28.5t-46 -9q-43 0 -80 28v-198q0 -11 -7 -12l-50 -12q-1 0 -12 -2q-7 0 -7 13v665q0 11 7 12l50 12q1 0 12 2q7 0 7 -13v-347q0 -81 82 -81
q22 0 60.5 18t53.5 33v364q0 11 7 12l50 12q1 0 12 2q7 0 7 -13v-356q0 -45 11 -66q19 -33 19 -38z" />
    <glyph glyph-name="nu" unicode="&#x3bd;" horiz-adv-x="444" 
d="M375 486l53 -14q9 -2 9 -7q0 -1 -1 -4l-1 -3l-181 -456q-7 -8 -12 -9h-40q-5 0 -7 1q-3 2 -5 8l-169 459q-3 5 0 8q1 1 8 3l33 8l20 6q10 3 13 -7l111 -325q10 -27 18 -63h2q3 21 18 62l118 326l3 6q4 3 10 1z" />
    <glyph glyph-name="xi" unicode="&#x3be;" horiz-adv-x="435" 
d="M419 717q0 -6 -1 -7l-13 -40q-3 -8 -13 -8h-61q-50 0 -104 -36t-54 -86q0 -41 22 -67.5t49 -35t58 -8.5h54q14 0 14 -14v-40q0 -8 -2.5 -10.5t-11.5 -2.5h-64q-52 0 -103.5 -45.5t-51.5 -120.5q0 -72 29 -104t104 -38q144 -18 144 -115q0 -35 -18 -66.5t-55 -71.5
q-14 -14 -21 -11q-2 1 -11 8l-23 21q-7 7 -5 12l3 4q3 4 5 6l8 8q5 6 17 19t17.5 19.5t10.5 17t5 20.5q0 22 -23.5 39t-51.5 19q-107 9 -162 57t-55 153q0 40 17.5 78t42 63t47.5 41t39 21q-107 33 -107 142q0 33 28.5 68.5t65.5 49.5l9 3q0 1 1 1h9l2 2h-110q-7 0 -7 12v38
q0 12 7 12h309q11 0 11 -7z" />
    <glyph glyph-name="omicron" unicode="&#x3bf;" 
d="M250 494q35 0 67.5 -12t63.5 -39t49.5 -79.5t18.5 -123.5t-18.5 -123.5t-49.5 -79.5t-63.5 -39t-67.5 -12t-67.5 12t-63.5 39t-49.5 79.5t-18.5 123.5t18.5 123.5t49.5 79.5t63.5 39t67.5 12zM250 432q-117 0 -117 -192t117 -192t117 192t-117 192z" />
    <glyph glyph-name="pi" unicode="&#x3c0;" horiz-adv-x="517" 
d="M485 469v-42q0 -12 -12 -12h-50v-290q0 -45 11 -66q19 -33 19 -38q0 -1 -9 -8l-39 -24q-6 -3 -8 -3q-3 0 -6 2t-6 6t-5.5 8t-5.5 10.5l-5 10.5t-5 11.5t-4 10.5q-13 25 -13 89v281h-177v-403q0 -12 -12 -12h-52q-12 0 -12 12v403h-50q-12 0 -12 12v42q0 8 2 10t10 2h429
q8 0 10 -2t2 -10z" />
    <glyph glyph-name="rho" unicode="&#x3c1;" horiz-adv-x="470" 
d="M425 250q0 -116 -42 -190t-125 -74q-68 0 -122 34v-204q0 -11 -7 -12l-50 -12q-1 0 -12 -2q-7 0 -7 13v445q0 119 38.5 182.5t142.5 63.5q184 0 184 -244zM343 248q0 27 -0.5 42.5t-3.5 40t-9.5 38.5t-18 29t-30 22t-43.5 7t-43.5 -7t-29 -23t-17 -29.5t-9 -40t-3 -39
t-0.5 -41.5v-161q62 -33 113 -33q31 0 51 16t28.5 47t11.5 60t3 72z" />
    <glyph glyph-name="sigma1" unicode="&#x3c2;" horiz-adv-x="402" 
d="M397 432q0 -2 -1.5 -4.5t-1.5 -3.5l-23 -42q-5 -6 -6 -6q-2 0 -15 13t-39.5 25.5t-63.5 12.5q-76 0 -102.5 -45.5t-26.5 -127.5q0 -75 24 -119.5t76 -69.5q12 -6 40 -16.5t41 -18t30.5 -21t24.5 -34t7 -48.5q0 -50 -69 -126q-14 -14 -21 -11q-5 3 -10 8l-23 21
q-8 7 -6 12l4 4q3 4 5 6l8 8q42 52 42 72q0 16 -6 27.5t-19 19.5t-24.5 12.5t-32.5 11.5t-34 12q-68 27 -103.5 89.5t-35.5 151.5q0 113 50 181t160 68q36 0 73 -12.5t57.5 -27t20.5 -22.5z" />
    <glyph glyph-name="sigma" unicode="&#x3c3;" 
d="M485 474q0 -2 -1 -4v-3l-13 -39q-5 -9 -13 -9h-108l2 -2q9 0 14 -1.5t11 -4.5t13 -5q21 -12 40 -66t19 -103q0 -113 -50 -182t-155 -69q-98 0 -145.5 66.5t-47.5 179.5q0 112 50 180.5t153 68.5h220q11 0 11 -7zM367 238q0 181 -117 181t-117 -178q0 -94 26.5 -143.5
t91.5 -49.5q63 0 89.5 49t26.5 141z" />
    <glyph glyph-name="tau" unicode="&#x3c4;" horiz-adv-x="407" 
d="M385 474q0 -5 -1 -7l-13 -40q-5 -9 -13 -9h-137v-284q0 -16 0.5 -24t3.5 -21t9 -19.5t18 -11.5t29 -5q21 0 43 6.5t36 13.5t17 7q7 0 7 -6l11 -37q0 -2 1 -5q1 -4 1 -5q0 -10 -45 -25.5t-84 -15.5q-65 0 -94 35q-29 33 -29 113v284h-135q-7 0 -7 12v39q0 12 7 12h364
q11 0 11 -7z" />
    <glyph glyph-name="upsilon" unicode="&#x3c5;" horiz-adv-x="494" 
d="M452 458q0 -3 -2.5 -7t-7 -12t-8.5 -18q-13 -36 -13 -74v-181q0 -93 -40 -136.5t-137 -43.5q-91 0 -131 43.5t-40 136.5v302q0 11 7 12l50 12q1 0 12 2q7 0 7 -13v-307q0 -65 22 -95.5t80 -30.5q54 0 74 30t20 96v203q0 37 15 69q22 48 34 48q3 0 9 -2l45 -28q4 -3 4 -6z
" />
    <glyph glyph-name="phi" unicode="&#x3c6;" horiz-adv-x="576" 
d="M525 243q0 -112 -50 -184.5t-149 -72.5v-170q0 -11 -7 -12l-50 -12q-1 -1 -3 -1q-1 0 -4 -0.5t-5 -0.5q-7 0 -7 13v183q-102 0 -150.5 68.5t-48.5 183.5q0 167 88 234q37 29 48 21q5 -2 7 -7l20 -43q2 -5 0 -7q-2 -3 -6 -5.5l-11.5 -7.5t-15.5 -12q-48 -41 -48 -164
q0 -95 26 -147t91 -52v351q0 47 24 71t45 24q108 0 157 -69t49 -182zM443 244q0 76 -25.5 131t-73.5 55q-18 0 -18 -25v-357q117 0 117 196z" />
    <glyph glyph-name="chi" unicode="&#x3c7;" horiz-adv-x="444" 
d="M347 1l-93 139q-20 30 -32 53l-36 -53l-98 -140q-7 -10 -21 -5l-48 20q-6 2 -6 6q0 5 4 9l166 215l-145 205q-4 5 -4 8q0 5 8 8l35 14l12 5q12 5 20 -6l113 -177l119 177q5 8 12 8q5 0 9 -2l46 -19q12 -5 4 -16l-150 -197l156 -223q4 -5 4 -8q0 -5 -6 -7l-49 -20
q-4 -2 -8 -2q-7 0 -12 8z" />
    <glyph glyph-name="psi" unicode="&#x3c8;" horiz-adv-x="578" 
d="M536 458q0 -3 -2.5 -7t-7 -12t-8.5 -18q-13 -36 -13 -74v-181q0 -93 -40.5 -136.5t-137.5 -43.5v-170q0 -11 -7 -12l-50 -12q-1 -1 -3 -1q-1 0 -4 -0.5t-5 -0.5q-7 0 -7 13v183h-7q-91 0 -131 43.5t-40 136.5v302q0 11 7 12l50 12q1 0 12 2q7 0 7 -13v-307
q0 -65 22 -95.5t80 -30.5v463q0 11 7 12l49 12q1 0 12 2q8 0 8 -13v-476h8q54 0 74 30t20 96v203q0 37 15 69q22 48 34 48q3 0 9 -2l45 -28q4 -3 4 -6z" />
    <glyph glyph-name="omega" unicode="&#x3c9;" horiz-adv-x="630" 
d="M579 241q0 -114 -38 -184.5t-122 -70.5q-66 0 -102 65q-36 -65 -108 -65q-158 0 -158 252q0 167 88 234q37 29 48 21q5 -2 7 -7l19 -40q2 -5 0 -7q-2 -3 -6 -5.5l-11.5 -7.5t-15.5 -12q-47 -41 -47 -167q0 -47 3.5 -80t12 -61.5t25.5 -43t42 -14.5t43 21.5t18 58.5v170
q0 12 12 12h51q13 0 13 -15v-167q0 -37 19 -58.5t44 -21.5q26 0 43 14t25 43.5t10.5 61t2.5 80.5q0 126 -47 167q-8 7 -15.5 12l-11.5 7.5t-6 5.5q-2 2 0 7l19 40q2 5 7 7q11 8 48 -21q39 -30 63.5 -89t24.5 -142z" />
    <glyph glyph-name="iotadieresis" unicode="&#x3ca;" horiz-adv-x="258" 
d="M170 465v-453q0 -12 -12 -12h-52q-12 0 -12 12v406h-50q-12 0 -12 12v38q0 12 12 12h113q13 0 13 -15zM256 609q0 -22 -15.5 -37.5t-37.5 -15.5t-37.5 15.5t-15.5 37.5t15.5 37.5t37.5 15.5t37.5 -15.5t15.5 -37.5zM79 609q0 -22 -15 -37.5t-38 -15.5q-22 0 -37.5 15.5
t-15.5 37.5t15.5 37.5t37.5 15.5q23 0 38 -15.5t15 -37.5z" />
    <glyph glyph-name="upsilondieresis" unicode="&#x3cb;" horiz-adv-x="494" 
d="M452 458q0 -3 -2.5 -7t-7 -12t-8.5 -18q-13 -36 -13 -74v-181q0 -93 -40 -136.5t-137 -43.5q-91 0 -131 43.5t-40 136.5v302q0 11 7 12l50 12q1 0 12 2q7 0 7 -13v-307q0 -65 22 -95.5t80 -30.5q54 0 74 30t20 96v203q0 37 15 69q22 48 34 48q3 0 9 -2l45 -28q4 -3 4 -6z
M406 609q0 -22 -15.5 -37.5t-37.5 -15.5t-37.5 15.5t-15.5 37.5t15.5 37.5t37.5 15.5t37.5 -15.5t15.5 -37.5zM209 609q0 -22 -15 -37.5t-38 -15.5q-22 0 -37.5 15.5t-15.5 37.5t15.5 37.5t37.5 15.5q23 0 38 -15.5t15 -37.5z" />
    <glyph glyph-name="omicrontonos" unicode="&#x3cc;" 
d="M250 494q35 0 67.5 -12t63.5 -39t49.5 -79.5t18.5 -123.5t-18.5 -123.5t-49.5 -79.5t-63.5 -39t-67.5 -12t-67.5 12t-63.5 39t-49.5 79.5t-18.5 123.5t18.5 123.5t49.5 79.5t63.5 39t67.5 12zM250 432q-117 0 -117 -192t117 -192t117 192t-117 192zM354 681l-92 -118
q-11 -11 -20 -4l-9 7q-11 8 -5 18l62 132q7 14 19 7l39 -24q13 -10 6 -18z" />
    <glyph glyph-name="upsilontonos" unicode="&#x3cd;" horiz-adv-x="494" 
d="M452 458q0 -3 -2.5 -7t-7 -12t-8.5 -18q-13 -36 -13 -74v-181q0 -93 -40 -136.5t-137 -43.5q-91 0 -131 43.5t-40 136.5v302q0 11 7 12l50 12q1 0 12 2q7 0 7 -13v-307q0 -65 22 -95.5t80 -30.5q54 0 74 30t20 96v203q0 37 15 69q22 48 34 48q3 0 9 -2l45 -28q4 -3 4 -6z
M354 681l-92 -118q-11 -11 -20 -4l-9 7q-11 8 -5 18l62 132q7 14 19 7l39 -24q13 -10 6 -18z" />
    <glyph glyph-name="omegatonos" unicode="&#x3ce;" horiz-adv-x="630" 
d="M579 241q0 -114 -38 -184.5t-122 -70.5q-66 0 -102 65q-36 -65 -108 -65q-158 0 -158 252q0 167 88 234q37 29 48 21q5 -2 7 -7l19 -40q2 -5 0 -7q-2 -3 -6 -5.5l-11.5 -7.5t-15.5 -12q-47 -41 -47 -167q0 -47 3.5 -80t12 -61.5t25.5 -43t42 -14.5t43 21.5t18 58.5v170
q0 12 12 12h51q13 0 13 -15v-167q0 -37 19 -58.5t44 -21.5q26 0 43 14t25 43.5t10.5 61t2.5 80.5q0 126 -47 167q-8 7 -15.5 12l-11.5 7.5t-6 5.5q-2 2 0 7l19 40q2 5 7 7q11 8 48 -21q39 -30 63.5 -89t24.5 -142zM414 681l-92 -118q-11 -11 -20 -4l-9 7q-11 8 -5 18l62 132
q7 14 19 7l39 -24q13 -10 6 -18z" />
    <glyph glyph-name="afii10023" unicode="&#x401;" horiz-adv-x="483" 
d="M429 58v-46q0 -12 -12 -12h-310q-12 0 -12 12v661q0 12 12 12h314q14 0 10 -10l-17 -51q-2 -9 -13 -9h-224v-222h197q12 0 12 -12v-46q0 -12 -12 -12h-197v-253h240q12 0 12 -12zM115 805q0 24 15.5 39.5t39.5 15.5t39.5 -15.5t15.5 -39.5t-15.5 -39.5t-39.5 -15.5
t-39.5 15.5t-15.5 39.5zM317 805q0 24 15.5 39.5t39.5 15.5t39.5 -15.5t15.5 -39.5t-15.5 -39.5t-39.5 -15.5t-39.5 15.5t-15.5 39.5z" />
    <glyph glyph-name="afii10051" unicode="&#x402;" horiz-adv-x="618" 
d="M249 615v-213q74 33 140 33q79 0 128 -49q53 -53 53 -170q0 -124 -52 -181q-46 -49 -121 -49q-40 0 -81 17q-15 6 -13 15l10 43q4 20 23 9q30 -17 59 -17q47 1 71 40q20 36 20 119q0 80 -22 113q-29 43 -95 43q-63 0 -120 -33v-323q0 -12 -12 -12h-58q-12 0 -12 12v603
h-132q-12 0 -12 12v46q0 12 12 12h394q15 0 10 -15l-16 -44q-4 -11 -16 -11h-158z" />
    <glyph glyph-name="afii10052" unicode="&#x403;" horiz-adv-x="435" 
d="M395 615h-218v-603q0 -12 -12 -12h-58q-12 0 -12 12v661q0 12 12 12h308q14 0 10 -10l-17 -51q-2 -9 -13 -9zM233 776l164 102q6 3 8 3q4 0 7 -4l29 -50q3 -5 3 -9q0 -6 -11 -10l-172 -69q-1 0 -5 -1.5t-6 -1.5q-4 0 -7 4l-13 24q-2 3 -2 6q0 4 5 6z" />
    <glyph glyph-name="afii10053" unicode="&#x404;" horiz-adv-x="468" 
d="M142 393h198q12 0 12 -12v-46q0 -12 -12 -12h-197q2 -86 19 -152q31 -118 123 -118q41 0 102 46q15 12 19 12q6 0 8 -5l25 -32q4 -4 4 -11q0 -9 -13 -19q-63 -58 -149 -58q-50 0 -89 17.5t-63 48.5t-40 66.5t-23.5 80t-10.5 79.5t-3 73q0 98 18 169t50.5 108.5t68.5 54
t80 16.5q93 0 153 -58q13 -10 13 -21q0 -4 -3 -7l-27 -35q-5 -5 -7 -5q-3 0 -18 13q-52 46 -105 46q-87 0 -117 -103q-18 -61 -16 -136z" />
    <glyph glyph-name="afii10054" unicode="&#x405;" horiz-adv-x="463" 
d="M407 638l-17 -43q-4 -9 -9 -9q-3 0 -17 7l-11 5.5t-12.5 6t-12.5 6t-14.5 6t-15 4.5t-18 4.5t-18.5 2.5t-21 1q-50 0 -78.5 -28t-28.5 -72q0 -26 8.5 -46t28.5 -37t37 -27.5t50 -27.5q56 -29 88 -54q80 -63 80 -155q0 -80 -54.5 -138t-151.5 -58q-88 0 -178 45
q-18 8 -18 13q0 6 2 10l17 43q4 9 9 9t22 -10q80 -40 142 -40t91 35.5t29 80.5q0 13 -2.5 24.5t-5 20.5t-10 19t-11.5 16t-15 15t-15.5 13t-18 12l-18 10.5l-20 11t-18.5 10.5q-39 22 -59.5 35t-47.5 37.5t-39 54.5t-12 69q0 73 51.5 126t142.5 53q84 0 156 -39
q18 -10 13 -22z" />
    <glyph glyph-name="afii10055" unicode="&#x406;" horiz-adv-x="374" 
d="M228 65h91q12 0 12 -12v-41q0 -12 -12 -12h-264q-12 0 -12 12v41q0 12 12 12h91v555h-91q-12 0 -12 12v41q0 12 12 12h264q12 0 12 -12v-41q0 -12 -12 -12h-91v-555z" />
    <glyph glyph-name="afii10056" unicode="&#x407;" horiz-adv-x="374" 
d="M228 65h91q12 0 12 -12v-41q0 -12 -12 -12h-264q-12 0 -12 12v41q0 12 12 12h91v555h-91q-12 0 -12 12v41q0 12 12 12h264q12 0 12 -12v-41q0 -12 -12 -12h-91v-555zM26 805q0 24 15.5 39.5t39.5 15.5t39.5 -15.5t15.5 -39.5t-15.5 -39.5t-39.5 -15.5t-39.5 15.5
t-15.5 39.5zM228 805q0 24 15.5 39.5t39.5 15.5t39.5 -15.5t15.5 -39.5t-15.5 -39.5t-39.5 -15.5t-39.5 15.5t-15.5 39.5z" />
    <glyph glyph-name="afii10057" unicode="&#x408;" horiz-adv-x="451" 
d="M367 673v-504q0 -84 -43 -131q-48 -52 -141 -52q-89 0 -134 54q-42 51 -42 128v16q0 12 12 12h52q12 0 12 -12v-9q0 -122 105 -122q49 0 73 30.5t24 83.5v448h-175q-12 0 -12 12v46q0 12 12 12h245q12 0 12 -12z" />
    <glyph glyph-name="afii10058" unicode="&#x409;" horiz-adv-x="850" 
d="M230 615l-2 -144q-3 -211 -26 -312q-16 -72 -42 -108.5t-69 -52.5q-31 -12 -59 -12q-14 0 -16 9l-12 52q-5 18 10 20l11 1q37 4 62.5 25t39.5 79q23 94 26 363l1 138q0 12 12 12h310q12 0 12 -12v-277h98q88 0 145 -40q74 -53 74 -159q0 -83 -46 -136q-54 -61 -174 -61
h-167q-12 0 -12 12v603h-176zM488 70h97q61 0 95.5 33.5t34.5 91.5q0 65 -36.5 98t-98.5 33h-92v-256z" />
    <glyph glyph-name="afii10059" unicode="&#x40a;" horiz-adv-x="878" 
d="M434 326h-257v-314q0 -12 -12 -12h-58q-12 0 -12 12v661q0 12 12 12h58q12 0 12 -12v-277h257v277q0 12 12 12h58q12 0 12 -12v-277h98q88 0 145 -40q74 -53 74 -159q0 -83 -46 -136q-54 -61 -174 -61h-167q-12 0 -12 12v314zM516 70h97q61 0 95.5 33.5t34.5 91.5
q0 65 -36.5 98t-98.5 33h-92v-256z" />
    <glyph glyph-name="afii10060" unicode="&#x40b;" horiz-adv-x="646" 
d="M249 615v-213q78 33 145 33q76 0 127 -39t51 -126v-258q0 -12 -12 -12h-58q-12 0 -12 12v258q0 13 -2.5 25.5t-11.5 31t-32.5 30t-59.5 11.5q-58 0 -135 -33v-323q0 -12 -12 -12h-58q-12 0 -12 12v603h-132q-12 0 -12 12v46q0 12 12 12h394q15 0 10 -15l-16 -44
q-4 -11 -16 -11h-158z" />
    <glyph glyph-name="afii10061" unicode="&#x40c;" horiz-adv-x="559" 
d="M177 391h68q20 0 32 4t25.5 24t23.5 58l19 74q21 80 45 107q25 27 80 38l11 2q1 0 3 0.5t3 0.5q10 0 13 -11l14 -45q3 -6 0.5 -10t-14.5 -7l-15 -3q-29 -7 -43 -25q-10 -15 -24 -68l-15 -56q-6 -24 -10 -35t-12 -29t-21 -30.5t-31 -22.5q60 -24 78 -88l37 -136
q10 -39 21 -51q13 -14 38 -18l19 -3q19 -3 14 -16l-15 -48q-3 -11 -12 -11q-6 0 -20 2l-15 2q-57 7 -84 42q-4 5 -7 10t-6 13t-5 12.5t-5 15.5t-4 15l-4.5 18l-4.5 18l-25 101q-13 54 -32 70t-52 16h-68v-309q0 -12 -12 -12h-58q-12 0 -12 12v661q0 12 12 12h58q12 0 12 -12
v-282zM263 776l164 102q6 3 8 3q4 0 7 -4l29 -50q3 -5 3 -9q0 -6 -11 -10l-172 -69q-1 0 -5 -1.5t-6 -1.5q-4 0 -7 4l-13 24q-2 3 -2 6q0 4 5 6z" />
    <glyph glyph-name="afii10062" unicode="&#x40e;" horiz-adv-x="494" 
d="M471 663l-163 -543q-21 -70 -56.5 -102t-98.5 -32q-50 0 -97 29q-26 16 -19 30l21 43q4 7 10 7q5 0 18 -11q36 -31 69 -31q21 0 37 9t26.5 27.5t15 31.5t11.5 36l10 36h-31q-12 0 -17 14l-177 452q-7 15 9 20l20 6l23 7q1 0 3.5 1t3.5 1t3.5 -1t4.5 -3.5t4 -7.5l128 -323
l41 -118h3q8 44 30 122l91 316q4 14 8 16t10 -1l50 -10q3 0 7.5 -2.5t4.5 -7.5q0 -4 -3 -11zM336 866l40 -7q8 -3 8 -6q1 -2 1 -5q0 -14 -9 -34q-14 -33 -43 -52q-31 -21 -79 -21t-79 21q-29 19 -43 52q-9 20 -9 34q0 4 1 6.5t2 3t4 0.5l2 1l40 7q1 0 3 0.5t3 0.5
q9 0 11 -13q4 -20 10 -30q17 -30 55 -30t55 30q6 10 10 30q3 14 17 12z" />
    <glyph glyph-name="afii10145" unicode="&#x40f;" horiz-adv-x="598" 
d="M177 70h244v603q0 12 12 12h58q12 0 12 -12v-661q0 -12 -12 -12h-151v-171q0 -12 -12 -12h-58q-12 0 -12 12v171h-151q-12 0 -12 12v661q0 12 12 12h58q12 0 12 -12v-603z" />
    <glyph glyph-name="afii10017" unicode="&#x410;" horiz-adv-x="554" 
d="M171 204l-51 -192q-3 -9 -8 -11q-3 -1 -10 -1h-65q-5 0 -6.5 0.5t-3.5 3t1 8.5l203 662q4 11 15 11h59q11 0 15 -11l204 -662q3 -8 -2 -11q-2 -1 -10 -1h-66q-11 0 -14 11l-56 193h-205zM357 274l-60 221q-14 50 -23 95h-2q-7 -49 -21 -95l-61 -221h167z" />
    <glyph glyph-name="afii10018" unicode="&#x411;" horiz-adv-x="555" 
d="M108 685h346q16 0 12 -12l-15 -46q-3 -12 -16 -12h-257v-210h98q104 0 161.5 -54t57.5 -145q0 -66 -26.5 -112t-68.5 -69q-46 -25 -146 -25h-146q-12 0 -12 12v661q0 12 12 12zM178 70h97q61 0 95.5 35.5t34.5 97.5q0 36 -12.5 63t-28.5 39.5t-38 20t-33.5 8.5t-22.5 1
h-92v-265z" />
    <glyph glyph-name="afii10019" unicode="&#x412;" horiz-adv-x="546" 
d="M107 685h156q28 0 49 -2t51.5 -11t50 -25t34 -48t14.5 -77q0 -111 -99 -163q53 -13 88 -54t35 -113q0 -100 -66 -154q-28 -23 -66.5 -30.5t-108.5 -7.5h-138q-12 0 -12 12v661q0 12 12 12zM177 383h63q132 0 132 130q0 34 -10 56t-28.5 31t-34 12t-38.5 3h-84v-232z
M177 70h89q14 0 27 1.5t33 8t34.5 18.5t25 36t10.5 56q0 34 -11 59t-26 37.5t-36 19.5t-34 8.5t-28 1.5h-84v-246z" />
    <glyph glyph-name="afii10020" unicode="&#x413;" horiz-adv-x="435" 
d="M395 615h-218v-603q0 -12 -12 -12h-58q-12 0 -12 12v661q0 12 12 12h308q14 0 10 -10l-17 -51q-2 -9 -13 -9z" />
    <glyph glyph-name="afii10021" unicode="&#x414;" horiz-adv-x="596" 
d="M174 685h300h9.5t6.5 -5t4 -15v-595h50q6 0 10 -0.5t6 -1t3 -3t1 -3.5v-5v-5v-223q0 -12 -12 -12h-58q-12 0 -12 12v171h-382v-171q0 -12 -12 -12h-58q-12 0 -12 12v223v5v5t1 3.5t3 3t6 1t10 0.5h34q30 63 47.5 123t24.5 133.5t8.5 124t1.5 151.5v63q0 4 0.5 7.5t1 5.5
t2 3.5l2.5 2.5t3 1h3.5h4h3.5zM232 615v-113q0 -259 -71 -432h251v545h-180z" />
    <glyph glyph-name="afii10022" unicode="&#x415;" horiz-adv-x="483" 
d="M429 58v-46q0 -12 -12 -12h-310q-12 0 -12 12v661q0 12 12 12h314q14 0 10 -10l-17 -51q-2 -9 -13 -9h-224v-222h197q12 0 12 -12v-46q0 -12 -12 -12h-197v-253h240q12 0 12 -12z" />
    <glyph glyph-name="afii10024" unicode="&#x416;" horiz-adv-x="814" 
d="M366 391v282q0 12 12 12h58q12 0 12 -12v-282h54q20 0 32 4t25.5 24t23.5 58l19 74q21 80 45 107q25 27 80 38l11 2q1 0 3 0.5t3 0.5q10 0 13 -11l14 -45q3 -6 0.5 -10t-14.5 -7l-15 -3q-29 -5 -43 -25q-9 -14 -24 -68l-15 -56q-6 -24 -10 -35t-12 -29t-21 -30.5
t-31 -22.5q60 -24 78 -88l37 -136q10 -39 21 -51q13 -14 38 -18l19 -3q19 -3 14 -16l-15 -48q-3 -11 -12 -11q-6 0 -20 2l-15 2q-57 7 -84 42q-4 5 -7 10t-6 13t-5 12.5t-5 15.5t-4 15l-4.5 18l-4.5 18l-25 101q-13 54 -32 70t-52 16h-54v-309q0 -12 -12 -12h-58
q-12 0 -12 12v309h-54q-33 0 -52 -16t-32 -70l-25 -101l-4.5 -18l-4.5 -18t-4 -15t-5 -15.5t-5 -12.5t-6 -13t-7 -10q-27 -35 -84 -42l-15 -2q-14 -2 -20 -2q-9 0 -12 11l-15 48q-5 13 14 16l19 3q25 4 38 18q11 12 21 51l37 136q18 64 78 88q-18 10 -31 22.5t-21 30.5
t-12 29t-10 35l-15 56q-15 54 -24 68q-14 20 -43 25l-15 3q-12 3 -14.5 7t0.5 10l14 45q4 13 19 10l11 -2q55 -11 80 -38q24 -27 45 -107l19 -74q14 -55 32 -70.5t49 -15.5h54z" />
    <glyph glyph-name="afii10025" unicode="&#x417;" horiz-adv-x="457" 
d="M136 331v43q0 12 13 12h18q130 0 130 129q0 62 -28.5 89.5t-68.5 27.5q-51 0 -102 -46q-14 -13 -17 -13h-1q-2 0 -7 5l-27 35q-3 3 -3 7q0 10 13 21q58 58 147 58q87 0 133.5 -49.5t46.5 -123.5q0 -60 -27 -103.5t-74 -60.5q28 -8 52 -22.5t46 -52.5t22 -92
q0 -103 -62.5 -156t-150.5 -53t-151 58q-13 10 -13 19q0 7 4 11l25 32q6 6 8 6q5 0 13 -7q66 -52 118 -52q49 0 84 32t35 102q0 43 -13 71.5t-35.5 40.5t-41 16t-42.5 4h-32q-12 0 -12 12z" />
    <glyph glyph-name="afii10026" unicode="&#x418;" horiz-adv-x="626" 
d="M445 685h74q12 0 12 -12v-661q0 -12 -12 -12h-58q-12 0 -12 12v488q0 33 10 89h-2q-11 -44 -27 -75l-245 -504q-6 -10 -16 -10h-62q-12 0 -12 12v661q0 12 12 12h58q12 0 12 -12v-465q0 -33 -10 -89h2q11 44 27 75l234 482q4 9 15 9z" />
    <glyph glyph-name="afii10027" unicode="&#x419;" horiz-adv-x="626" 
d="M445 685h74q12 0 12 -12v-661q0 -12 -12 -12h-58q-12 0 -12 12v488q0 33 10 89h-2q-11 -44 -27 -75l-245 -504q-6 -10 -16 -10h-62q-12 0 -12 12v661q0 12 12 12h58q12 0 12 -12v-465q0 -33 -10 -89h2q11 44 27 75l234 482q4 9 15 9zM247 852l3 -15q11 -55 63 -55t63 55
l3 15q2 11 17 8l36 -6q11 -2 11 -14q0 -6 -3 -15q-9 -38 -36 -63q-35 -33 -91 -33t-91 33q-27 25 -36 63q-3 9 -3 15q0 12 11 14l36 6q15 3 17 -8z" />
    <glyph glyph-name="afii10028" unicode="&#x41a;" horiz-adv-x="559" 
d="M177 391h68q20 0 32 4t25.5 24t23.5 58l19 74q21 80 45 107q25 27 80 38l11 2q1 0 3 0.5t3 0.5q10 0 13 -11l14 -45q3 -6 0.5 -10t-14.5 -7l-15 -3q-29 -7 -43 -25q-10 -15 -24 -68l-15 -56q-6 -24 -10 -35t-12 -29t-21 -30.5t-31 -22.5q60 -24 78 -88l37 -136
q10 -39 21 -51q13 -14 38 -18l19 -3q19 -3 14 -16l-15 -48q-3 -11 -12 -11q-6 0 -20 2l-15 2q-57 7 -84 42q-4 5 -7 10t-6 13t-5 12.5t-5 15.5t-4 15l-4.5 18l-4.5 18l-25 101q-13 54 -32 70t-52 16h-68v-309q0 -12 -12 -12h-58q-12 0 -12 12v661q0 12 12 12h58q12 0 12 -12
v-282z" />
    <glyph glyph-name="afii10029" unicode="&#x41b;" horiz-adv-x="583" 
d="M230 615l-2 -144q-3 -211 -26 -312q-16 -72 -42 -108.5t-69 -52.5q-31 -12 -59 -12q-14 0 -16 9l-12 52q-5 18 10 20l11 1q37 4 62.5 25t39.5 79q23 94 26 363l1 138q0 12 12 12h310q12 0 12 -12v-661q0 -12 -12 -12h-58q-12 0 -12 12v603h-176z" />
    <glyph glyph-name="afii10030" unicode="&#x41c;" horiz-adv-x="667" 
d="M331 268h2q3 32 13 62l119 345q4 10 11 10h65q12 0 12 -12l39 -661q0 -12 -12 -12h-58q-12 0 -12 12l-16 514q-1 19 1 52h-2q-6 -42 -12 -59l-121 -348q-4 -11 -15 -11h-30q-11 0 -15 11l-116 348q-4 11 -12 59h-2q2 -28 1 -52l-15 -514q0 -12 -12 -12h-58q-12 0 -12 12
l38 661q0 12 12 12h65q8 0 11 -10l118 -345q10 -30 13 -62z" />
    <glyph glyph-name="afii10031" unicode="&#x41d;" horiz-adv-x="611" 
d="M434 321h-257v-309q0 -12 -12 -12h-58q-12 0 -12 12v661q0 12 12 12h58q12 0 12 -12v-282h257v282q0 12 12 12h58q12 0 12 -12v-661q0 -12 -12 -12h-58q-12 0 -12 12v309z" />
    <glyph glyph-name="afii10032" unicode="&#x41e;" horiz-adv-x="556" 
d="M278 -14q-32 0 -60 7.5t-59.5 30.5t-54 60.5t-37.5 104t-15 154.5q0 30 1.5 55t7.5 71.5t21 82.5t38.5 71.5t64 55.5t93.5 20q31 0 59 -7t59.5 -30.5t54.5 -60.5t38 -103.5t15 -154.5t-15 -154.5t-38 -104t-55 -61t-59.5 -30.5t-58.5 -7zM278 53q28 0 50.5 11t36.5 26.5
t24 42.5t14.5 48t7.5 54.5t3 50v46.5v11q0 49 -2 83t-9.5 76t-21.5 68t-40 44t-63 18q-28 0 -50.5 -11.5t-36.5 -27t-24 -43t-14.5 -49t-7 -54.5t-3 -50t-0.5 -47v-7q0 -133 18 -190q30 -100 118 -100z" />
    <glyph glyph-name="afii10033" unicode="&#x41f;" horiz-adv-x="601" 
d="M177 615v-603q0 -12 -12 -12h-58q-12 0 -12 12v661q0 12 12 12h387q12 0 12 -12v-661q0 -12 -12 -12h-58q-12 0 -12 12v603h-247z" />
    <glyph glyph-name="afii10034" unicode="&#x420;" horiz-adv-x="511" 
d="M178 289v-277q0 -12 -12 -12h-58q-12 0 -12 12v661q0 12 12 12h155q21 0 34 -0.5t36.5 -4t39.5 -10t35 -20t30.5 -32.5t19.5 -48.5t8 -66.5q0 -59 -19.5 -102t-44.5 -64t-60 -32.5t-54 -13.5t-38 -2h-72zM178 359h65q20 0 34 1t36 8.5t36 21.5t24.5 41.5t10.5 66.5
t-10 64t-30.5 36t-39.5 14t-49 3h-77v-256z" />
    <glyph glyph-name="afii10035" unicode="&#x421;" horiz-adv-x="467" 
d="M432 613l-27 -35q-5 -5 -7 -5q-3 0 -18 13q-52 46 -105 46q-28 0 -49.5 -11t-35.5 -26t-23.5 -41t-14.5 -46t-7 -51t-2.5 -45.5t-0.5 -39.5q0 -319 142 -319q43 0 102 46q15 12 19 12q5 0 8 -5l25 -32q4 -4 4 -11q0 -9 -13 -19q-63 -58 -149 -58q-34 0 -63.5 8
t-60.5 32.5t-53.5 63t-36.5 105t-14 154.5q0 350 218 350q40 0 82 -15.5t70 -42.5q13 -10 13 -21q0 -4 -3 -7z" />
    <glyph glyph-name="afii10036" unicode="&#x422;" horiz-adv-x="461" 
d="M266 615v-603q0 -12 -12 -12h-58q-12 0 -12 12v603h-149q-12 0 -12 12v46q0 12 12 12h394q15 0 10 -15l-16 -44q-4 -11 -16 -11h-141z" />
    <glyph glyph-name="afii10037" unicode="&#x423;" horiz-adv-x="494" 
d="M471 663l-163 -543q-21 -70 -56.5 -102t-98.5 -32q-50 0 -97 29q-26 16 -19 30l21 43q4 7 10 7q5 0 18 -11q36 -31 69 -31q21 0 37 9t26.5 27.5t15 31.5t11.5 36l10 36h-31q-12 0 -17 14l-177 452q-7 15 9 20l20 6l23 7q1 0 3.5 1t3.5 1t3.5 -1t4.5 -3.5t4 -7.5l128 -323
l41 -118h3q8 44 30 122l91 316q4 14 8 16t10 -1l50 -10q3 0 7.5 -2.5t4.5 -7.5q0 -4 -3 -11z" />
    <glyph glyph-name="afii10038" unicode="&#x424;" horiz-adv-x="634" 
d="M276 623v90q0 12 12 12h58q12 0 12 -12v-90h35q50 0 87 -18.5t56.5 -45t31.5 -64t15 -66.5t3 -61q0 -107 -31 -163q-50 -92 -162 -92h-35v-101q0 -12 -12 -12h-58q-12 0 -12 12v101h-35q-112 0 -162 92q-31 56 -31 163t31 163q50 92 162 92h35zM358 556v-376h19
q65 0 95 48q24 39 24 140t-24 140q-30 48 -95 48h-19zM276 180v376h-19q-65 0 -95 -48q-24 -39 -24 -140t24 -140q30 -48 95 -48h19z" />
    <glyph glyph-name="afii10039" unicode="&#x425;" horiz-adv-x="481" 
d="M458 16l-50 -21q-4 -3 -8.5 -1t-11.5 15l-122 225q-10 16 -26 56l-23 -50l-125 -235q0 -1 -2 -4t-3 -4q-5 -6 -14 -2l-50 17q-11 5 -11 11q0 3 1 5t2.5 4t1.5 3l174 322l-161 293l-5 10v2q0 7 11 11l35 12l15 5q10 4 17 -7l112 -206l25 -52q12 30 26 56l105 195
q7 13 11.5 15t8.5 -1l50 -21q11 -5 11 -11q0 -4 -5 -11l-164 -287l181 -322q5 -7 5 -11q0 -3 -1.5 -5t-2.5 -2.5t-4 -1.5z" />
    <glyph glyph-name="afii10040" unicode="&#x426;" horiz-adv-x="608" 
d="M177 70h247v603q0 12 12 12h58q12 0 12 -12v-603h50q6 0 10 -0.5t6 -1t3 -3t1 -3.5v-5v-5v-223q0 -12 -12 -12h-58q-12 0 -12 12v171h-387q-12 0 -12 12v661q0 12 12 12h58q12 0 12 -12v-603z" />
    <glyph glyph-name="afii10041" unicode="&#x427;" horiz-adv-x="575" 
d="M480 673v-661q0 -12 -12 -12h-58q-12 0 -12 12v293q-76 -33 -149 -33t-123.5 39t-50.5 126v236q0 12 12 12h58q12 0 12 -12v-236q0 -13 2.5 -25.5t11.5 -31t32.5 -30t59.5 -11.5q58 0 135 33v301q0 12 12 12h58q12 0 12 -12z" />
    <glyph glyph-name="afii10042" unicode="&#x428;" horiz-adv-x="816" 
d="M177 70h190v603q0 12 12 12h58q12 0 12 -12v-603h190v603q0 12 12 12h58q12 0 12 -12v-661q0 -12 -12 -12h-602q-12 0 -12 12v661q0 12 12 12h58q12 0 12 -12v-603z" />
    <glyph glyph-name="afii10043" unicode="&#x429;" horiz-adv-x="823" 
d="M177 70h190v603q0 12 12 12h58q12 0 12 -12v-603h190v603q0 12 12 12h58q12 0 12 -12v-603h50q6 0 10 -0.5t6 -1t3 -3t1 -3.5v-5v-5v-223q0 -12 -12 -12h-58q-12 0 -12 12v171h-602q-12 0 -12 12v661q0 12 12 12h58q12 0 12 -12v-603z" />
    <glyph glyph-name="afii10044" unicode="&#x42a;" horiz-adv-x="627" 
d="M265 396h98q88 0 145 -40q74 -53 74 -158q0 -84 -46 -137q-54 -61 -174 -61h-167q-12 0 -12 12v603h-153q-11 0 -13 9l-17 51q-4 10 10 10h243q12 0 12 -12v-277zM265 70h97q61 0 95.5 33.5t34.5 91.5q0 65 -36.5 98t-98.5 33h-92v-256z" />
    <glyph glyph-name="afii10045" unicode="&#x42b;" horiz-adv-x="771" 
d="M178 396h98q88 0 145 -40q74 -55 74 -160q0 -83 -46 -135q-54 -61 -174 -61h-167q-12 0 -12 12v661q0 12 12 12h58q12 0 12 -12v-277zM178 70h97q61 0 95.5 33.5t34.5 93.5q0 36 -12.5 62t-28 38.5t-37.5 19.5t-33.5 8t-23.5 1h-92v-256zM676 673v-661q0 -12 -12 -12h-58
q-12 0 -12 12v661q0 12 12 12h58q12 0 12 -12z" />
    <glyph glyph-name="afii10046" unicode="&#x42c;" horiz-adv-x="540" 
d="M178 396h98q88 0 145 -40q74 -53 74 -159q0 -83 -46 -136q-54 -61 -174 -61h-167q-12 0 -12 12v661q0 12 12 12h58q12 0 12 -12v-277zM178 70h97q61 0 95.5 33.5t34.5 91.5q0 65 -36.5 98t-98.5 33h-92v-256z" />
    <glyph glyph-name="afii10047" unicode="&#x42d;" horiz-adv-x="473" 
d="M36 74l25 32q3 5 7 6h2q1 0 2 -1t5 -4.5t10 -7.5q60 -46 103 -46q30 0 61 19.5t50 62.5q30 68 30 177v11h-197q-12 0 -12 12v46q0 12 12 12h197v15q0 100 -27 157q-33 67 -107 67q-47 0 -92 -37l-10.5 -8.5t-8 -7.5t-5 -4.5t-4.5 -1.5h-1q-2 0 -7 5l-27 35q-3 3 -3 7
t5 12q16 21 61.5 44t99.5 23q53 0 97.5 -26t70.5 -69q49 -80 49 -255q0 -189 -62 -278q-60 -85 -166 -85q-86 0 -149 58q-13 10 -13 19q0 7 4 11z" />
    <glyph glyph-name="afii10048" unicode="&#x42e;" horiz-adv-x="800" 
d="M177 391h119q19 308 226 308q31 0 59 -7t59.5 -30.5t54.5 -60.5t38 -103.5t15 -154.5t-15 -154.5t-38 -104t-55 -60.5t-59.5 -30.5t-58.5 -7.5q-99 0 -163.5 85t-62.5 250h-119v-309q0 -12 -12 -12h-58q-12 0 -12 12v661q0 12 12 12h58q12 0 12 -12v-282zM522 53
q28 0 50.5 11t36.5 26.5t24 42.5t14.5 48t7.5 54.5t3 50v46.5v11q0 49 -2 83t-9.5 76t-21.5 68t-40 44t-63 18q-28 0 -50.5 -11.5t-36.5 -27t-24 -43t-14.5 -49t-7 -54.5t-3 -50t-0.5 -47v-7q0 -133 18 -190q30 -100 118 -100z" />
    <glyph glyph-name="afii10049" unicode="&#x42f;" horiz-adv-x="572" 
d="M395 312h-65q-38 0 -58 -23q-13 -14 -26 -63l-28 -98q-23 -79 -36 -96q-26 -34 -84 -42l-13 -2q-3 0 -9 -1t-7.5 -1.5t-5 0t-5 1.5t-3 3.5t-2.5 6.5l-15 48q-5 13 14 16l19 3q25 4 38 18q12 13 20 44l34 118q18 61 69 92q-56 12 -90.5 53t-34.5 108q0 87 54 137.5
t137 50.5h167q12 0 12 -12v-661q0 -12 -12 -12h-58q-12 0 -12 12v300zM395 377v238h-89q-54 0 -85.5 -31.5t-31.5 -84.5q0 -57 31 -89.5t93 -32.5h82z" />
    <glyph glyph-name="afii10065" unicode="&#x430;" horiz-adv-x="463" 
d="M308 301v36q0 19 -2.5 32.5t-10.5 28t-26 22t-45 7.5q-57 0 -111 -26q-12 -6 -15 -6q-6 0 -8 5l-15 40q-5 14 21 25q71 29 137 29q151 0 151 -137v-227q0 -43 12 -72q4 -10 14 -28q4 -5 4 -8t-6 -7l-42 -26q-13 -7 -26 16q-10 16 -19 45l-1 3l-4 -4q-63 -63 -135 -63
q-68 0 -101.5 41t-33.5 100q0 127 141 160q58 14 105 14h16zM308 110v129h-15q-24 0 -47.5 -3.5t-54.5 -13t-50 -33.5t-19 -59q0 -41 22 -61.5t50 -20.5q52 0 108 56z" />
    <glyph glyph-name="afii10066" unicode="&#x431;" horiz-adv-x="506" 
d="M109 380h6q22 50 62.5 75t89.5 25q19 0 39.5 -4t48.5 -19t49 -40t36 -72t15 -110q0 -70 -18.5 -121t-49.5 -77.5t-64 -38.5t-69 -12q-52 0 -99.5 28t-74.5 87q-29 63 -29 191q0 139 26 212q38 106 153 159l166 75q19 8 26 -6l17 -35q7 -13 -14 -22l-187 -86
q-113 -52 -126 -178zM256 418q-19 0 -36 -6.5t-37 -24t-32 -57t-12 -96.5q0 -186 117 -186t117 187q0 57 -12 96.5t-31.5 56.5t-37 23.5t-36.5 6.5z" />
    </font>
</defs>
</svg>
